<?xml version="1.0" encoding="UTF-8" standalone="no"?>
<!-- Created with Inkscape (http://www.inkscape.org/) -->

<svg
   width="947.36951mm"
   height="537.73474mm"
   viewBox="0 0 947.36951 537.73474"
   version="1.1"
   id="svg1"
   xml:space="preserve"
   inkscape:export-filename="escutBatman.svg"
   inkscape:export-xdpi="96"
   inkscape:export-ydpi="96"
   xmlns:inkscape="http://www.inkscape.org/namespaces/inkscape"
   xmlns:sodipodi="http://sodipodi.sourceforge.net/DTD/sodipodi-0.dtd"
   xmlns="http://www.w3.org/2000/svg"
   xmlns:svg="http://www.w3.org/2000/svg"><sodipodi:namedview
     id="namedview1"
     pagecolor="#ffffff"
     bordercolor="#000000"
     borderopacity="0.25"
     inkscape:showpageshadow="2"
     inkscape:pageopacity="0.0"
     inkscape:pagecheckerboard="0"
     inkscape:deskcolor="#d1d1d1"
     inkscape:document-units="mm" /><defs
     id="defs1"><inkscape:path-effect
       effect="bspline"
       id="path-effect5"
       is_visible="true"
       lpeversion="1.3"
       weight="33.333333"
       steps="2"
       helper_size="0"
       apply_no_weight="true"
       apply_with_weight="true"
       only_selected="false"
       uniform="false" /></defs><g
     inkscape:label="Capa 1"
     inkscape:groupmode="layer"
     id="layer1"
     transform="translate(931.37578,-203.35286)"><path
       style="fill:#fff800;fill-opacity:1;stroke-width:0.267754"
       d="m -465.06257,214.35004 c 3.62344,0.0261 8.8883,0.0261 14.76316,0.0586 5.87487,0.0324 12.3595,0.0972 19.85558,0.35659 7.49608,0.25935 16.00313,0.71319 22.6003,1.13463 6.59717,0.42143 11.28408,0.81044 16.22795,1.23188 4.94388,0.42143 10.14441,0.87526 16.46874,1.49122 6.32431,0.61594 13.772,1.39395 21.60515,2.43135 7.83316,1.03739 16.0513,2.33406 24.26969,3.71185 8.21839,1.37777 16.43653,2.83654 24.04495,4.31156 7.60843,1.47504 14.6067,2.96622 22.45591,4.73302 7.8492,1.76679 16.54888,3.80908 24.33386,5.77037 7.78499,1.96131 14.65484,3.8415 20.65811,5.6245 6.00327,1.78299 11.13962,3.4687 17.42048,5.62346 6.28087,2.15476 13.70587,4.77844 21.50455,7.74078 7.79868,2.96235 15.97054,6.26319 23.37084,9.38073 7.40029,3.11753 14.02857,6.0516 20.56626,9.16914 6.5377,3.11755 12.98439,6.41839 18.29625,9.26084 5.31185,2.84247 9.48858,5.22639 13.93784,7.88548 4.44925,2.65908 9.17079,5.59315 13.57464,8.34393 4.40386,2.75077 8.48978,5.31807 13.347646,8.61901 4.85788,3.30094 10.48739,7.33529 15.70845,11.41561 5.22108,4.08031 10.03339,8.20634 14.80046,12.47003 4.76706,4.26371 9.48858,8.66481 13.66543,12.83682 4.17686,4.17201 7.8088,8.11466 10.7469,11.53751 2.9381,3.42287 5.1822,6.32573 7.65262,9.39813 2.47042,3.0724 5.16699,6.3141 7.83155,10.0422 2.66456,3.7281 5.29694,7.94234 7.73677,11.96219 2.43984,4.01985 4.68697,7.84507 6.35633,10.97342 1.6693504,3.12835 2.7608104,5.55964 4.1412404,8.75284 1.38045,3.1932 3.04976,7.1481 4.33388,10.51958 1.28412,3.37149 2.18298001,6.15935 2.82503001,8.3962 0.64206,2.23685 1.02728999,3.92255 1.51685999,5.83523 0.48957,1.91267 1.08346,4.05221 1.69343,6.64567 0.60995,2.59345 1.23595,5.64067 1.67737,8.42862 0.44142,2.78797 0.69824,5.31651 0.95308,9.65104 0.25485,4.33455 0.50771,10.4748 0.61145,15.37885 0.10374,4.90404 0.0583,8.57164 -0.21405,12.19349 -0.2724,3.62185 -0.77179,7.19774 -1.4755,11.2093 -0.70372,4.01154 -1.61171,8.4585 -2.91698,13.52451 -1.30526999,5.06601 -3.00775,10.75077 -4.94863,15.96578 -1.94088,5.21501 -4.12004,9.95995 -6.39006,14.48726 -2.2700304,4.5273 -4.6308004,8.83672 -7.6613004,13.79958 -3.0305,4.96287 -6.73054,10.57887 -10.03343,15.24371 -3.30288,4.66483 -6.20844,8.37827 -8.96652,11.73651 -2.75809,3.35823 -5.36854,6.36106 -8.46713,9.78808 -3.0986,3.427 -6.68514,7.27797 -10.47609,11.01444 -3.79096,3.73645 -7.78609,7.3582 -14.678,13.00021 -6.89191,5.64199 -16.68014,13.30389 -24.65628,19.04761 -7.976126,5.74372 -14.139746,9.56895 -20.046696,13.16737 -5.90696,3.5984 -11.55695,6.9698 -19.51853,11.24901 -7.96158,4.2792 -18.23425,9.46595 -29.91978,14.78253 -11.68554,5.31658 -24.78322,10.76269 -38.0097,15.69024 -13.22647,4.92755 -26.58092,9.33629 -39.9358,13.22647 -13.35488,3.89018 -26.70937,7.26156 -41.09156,10.50338 -14.38219,3.24182 -29.7912,6.35386 -44.17338,8.81764 -14.38217,2.46377 -27.73665,4.27915 -42.24724,5.83522 -14.51061,1.55607 -30.17644,2.85275 -46.22799,3.50111 -16.05154,0.64835 -32.48782,0.64835 -47.25521,0.51868 -14.7674,-0.12968 -27.86507,-0.38901 -38.90851,-0.90771 -11.04343,-0.51869 -20.03203,-1.2967 -30.33618,-2.21015 -10.30416,-0.91346 -21.92323,-1.96229 -34.45224,-3.58704 -12.52901,-1.62476 -25.96719,-3.82531 -39.67818,-6.4844 -13.71098,-2.65908 -27.69395,-5.77653 -41.31413,-9.35254 -13.62018,-3.57601 -26.87675,-7.61035 -40.76935,-12.19498 -13.8926,-4.58462 -28.42035,-9.71925 -39.42998,-13.89125 -11.00961,-4.172 -18.50049,-7.38114 -27.73952,-11.91993 -9.23903,-4.53878 -20.22565,-10.40692 -29.94138,-15.90847 -9.71572,-5.50154 -18.15998,-10.63616 -25.01546,-15.08324 -6.85548,-4.44708 -12.12179,-8.20635 -16.96528,-11.68073 -4.84349,-3.47438 -9.26387,-6.66367 -14.49185,-11.04634 -5.22795,-4.38266 -11.26315,-9.95843 -16.78487,-15.46951 -5.52171,-5.5111 -10.52966,-10.95719 -15.02408,-16.14409 -4.49442,-5.18693 -8.47509,-10.11435 -12.19904,-15.30125 -3.72395,-5.18691 -7.19098,-10.63299 -10.08026,-15.49571 -2.88927,-4.86272 -5.20063,-9.1418 -7.14285,-12.90229 -1.94223,-3.76051 -3.51524,-7.00223 -4.84752,-10.21163 -1.33226,-3.2094 -2.42373,-6.38629 -3.53129,-9.7902 -1.10755,-3.40391 -2.23112,-7.03464 -3.37078,-11.11933 -1.13967,-4.0847 -2.29535,-8.62311 -3.19424,-14.6529 -0.89888,-6.02979 -1.54093,-13.55059 -1.66934,-20.55291 -0.12841,-7.00232 0.25682,-13.48577 0.64206,-18.54298 0.38524,-5.05722 0.77047,-8.68796 1.31808,-11.9599 0.5476,-3.27196 1.25757,-6.18497 2.38438,-10.07136 1.12681,-3.88641 2.67039,-8.74596 4.25941,-13.28472 1.58903,-4.53877 3.2234,-8.75649 4.85782,-12.56173 1.63441,-3.80524 3.2688,-7.19776 5.24137,-10.9441 1.97256,-3.74635 4.28319,-7.84629 7.26842,-12.5222 2.98522,-4.67592 6.64486,-9.92751 9.85517,-14.27154 3.2103,-4.34402 5.97108,-7.78024 9.00484,-11.33004 3.03374,-3.54979 6.34025,-7.21293 10.01606,-11.05449 3.67582,-3.84155 7.72067,-7.86128 11.76566,-11.6542 4.04499,-3.79293 8.08985,-7.35881 10.8507,-9.69292 2.76085,-2.3341 4.23755,-3.43628 7.81707,-6.12701 3.57951,-2.69072 9.26158,-6.9698 14.92779,-11.02206 5.66619,-4.05227 11.31616,-7.8775 16.9342,-11.47592 5.61804,-3.59841 11.20381,-6.96981 17.81705,-10.63306 6.61324,-3.66326 14.25355,-7.61816 19.1653,-10.11435 4.91173,-2.49618 7.09467,-3.53353 10.18639,-5.00231 3.09171,-1.46878 7.09197,-3.36889 12.04321,-5.6256 4.95124,-2.25671 10.85315,-4.86986 17.13554,-7.40473 6.28242,-2.53486 12.94495,-4.9913 20.00027,-7.51628 7.05533,-2.52497 14.50301,-5.11835 23.33137,-7.8739 8.82836,-2.75554 19.03684,-5.67309 27.76886,-8.0234 8.73202,-2.35031 15.9871,-4.13326 23.53132,-5.90005 7.54423,-1.76679 15.37715,-3.51732 24.62285,-5.30032 9.2457,-1.783 19.9036,-3.59836 27.74645,-4.85078 7.84287,-1.25243 12.87028,-1.94184 19.78793,-2.76794 6.91765,-0.8261 15.72511,-1.78884 23.76101,-2.53384 8.0359,-0.74499 15.29978,-1.27222 23.44919,-1.76505 8.14941,-0.49286 17.18387,-0.9513 23.92583,-1.2493 6.74197,-0.29801 11.1911,-0.43554 14.40674,-0.47816 3.21565,-0.0426 5.19764,0.0101 8.82109,0.0358 z"
       id="path4-3" /><path
       id="path3"
       style="fill:#000000;fill-opacity:1;stroke-width:0.264583"
       d="m -452.28322,203.3529 c -3.82537,0 -7.26807,0.0319 -11.56363,0.0956 -4.29556,0.0637 -9.44373,0.15917 -13.45241,0.25477 -4.00867,0.0956 -6.87728,0.1914 -10.38386,0.33486 -3.50658,0.14345 -7.65075,0.33472 -11.23704,0.51005 -3.58629,0.17533 -6.6147,0.33479 -9.8025,0.52606 -3.18781,0.19127 -6.53486,0.41408 -9.31623,0.59738 -2.78136,0.1833 -4.99693,0.32719 -7.66672,0.49455 -2.66978,0.16736 -5.79371,0.35822 -8.50335,0.58136 -2.70964,0.22315 -5.0046,0.47827 -7.29981,0.73329 -2.29522,0.25502 -4.59057,0.50995 -7.17269,0.79685 -2.58212,0.28691 -5.45111,0.60587 -8.16075,0.95653 -2.70963,0.35065 -5.25984,0.73332 -8.16074,1.14773 -2.9009,0.41442 -6.15239,0.86041 -9.78648,1.37046 -3.6341,0.51005 -7.65068,1.08381 -11.22102,1.62574 -3.57035,0.54192 -6.69441,1.0523 -10.00973,1.59422 -3.31531,0.54193 -6.82139,1.1156 -8.57467,1.4025 -1.75327,0.2869 -1.75376,0.28668 -3.45922,0.66921 -1.70546,0.38254 -5.11633,1.14767 -10.39213,2.35903 -5.2758,1.21135 -12.41622,2.86925 -18.63245,4.33565 -6.21623,1.46638 -11.50784,2.7413 -17.02274,4.14393 -5.5149,1.40263 -11.25273,2.93258 -18.0268,4.8612 -6.77408,1.92862 -14.58399,4.25549 -19.15853,5.67407 -4.57452,1.41858 -5.91324,1.92908 -8.75037,2.94918 -2.83713,1.02009 -7.17251,2.54983 -11.73106,4.20749 -4.55856,1.65766 -9.33986,3.44287 -14.31282,5.41931 -4.97298,1.97643 -10.13712,4.14437 -15.397,6.37584 -5.25987,2.23146 -10.61565,4.52642 -14.5526,6.27972 -3.93695,1.75329 -6.45501,2.96451 -9.4356,4.46277 -2.98059,1.49827 -6.42327,3.28335 -10.28051,5.29167 -3.85724,2.00831 -8.12907,4.24004 -13.61209,7.30033 -5.48301,3.06028 -12.17702,6.94891 -17.64181,10.27947 -5.46479,3.33057 -9.70008,6.10261 -13.21522,8.45789 -3.51513,2.35527 -6.3099,4.29365 -9.24026,6.41252 -2.93035,2.11887 -5.99574,4.41802 -9.57978,7.16804 -3.58404,2.75002 -7.68682,5.9512 -11.65407,9.28729 -3.96725,3.33609 -7.79916,6.80715 -11.31558,10.16579 -3.51643,3.35864 -6.71718,6.60426 -9.53482,9.51208 -2.81766,2.90781 -5.25193,5.4774 -7.86671,8.40775 -2.61477,2.93035 -5.40964,6.2214 -7.56232,8.77983 -2.15269,2.55843 -3.66289,4.38413 -4.91392,5.97328 -1.25104,1.58915 -2.24265,2.9418 -4.06848,5.53403 -1.82583,2.59222 -4.48571,6.42393 -6.76238,9.98544 -2.27666,3.5615 -4.1702,6.8526 -5.70301,9.55755 -1.53281,2.70495 -2.70502,4.82376 -3.92224,7.16804 -1.21722,2.34428 -2.47934,4.91396 -3.85558,7.88686 -1.37623,2.9729 -2.86655,6.34867 -4.0659,9.26403 -1.19935,2.91536 -2.10789,5.3699 -2.97657,8.06359 -0.86867,2.69369 -1.69734,5.62651 -2.36678,8.17676 -0.66944,2.55025 -1.17941,4.71788 -1.72134,7.23625 -0.54192,2.51836 -1.11548,5.38751 -1.63607,7.98039 -0.52059,2.59287 -0.98834,4.90945 -1.26711,6.83421 -0.27876,1.92477 -0.3686,3.45739 -0.50384,5.44101 -0.13525,1.98362 -0.3159,4.41788 -0.45114,7.03265 -0.13523,2.61477 -0.22545,5.41027 -0.18035,8.70127 0.0451,3.29101 0.22547,7.07763 0.54105,10.63915 0.31557,3.5615 0.76658,6.89746 1.44281,10.77453 0.67623,3.87708 1.57754,8.29495 2.56935,12.48761 0.99182,4.19266 2.07398,8.15974 2.75022,10.77454 0.67624,2.61479 0.94695,3.8772 1.80351,6.35672 0.85656,2.47951 2.29918,6.17609 4.14755,10.41383 1.84838,4.23774 4.10203,9.01662 6.94221,14.24616 2.84019,5.22955 6.26666,10.90948 9.5126,15.95872 3.24592,5.04923 6.31123,9.46736 9.51208,13.7051 3.20084,4.23775 6.53708,8.29517 9.03717,11.26702 2.50009,2.97184 4.16373,4.85775 6.97219,7.7773 2.80844,2.91956 6.76142,6.8726 10.55491,10.47481 3.79348,3.60223 7.42766,6.85341 11.34866,10.13685 3.921,3.28343 8.12888,6.59891 12.65556,10.13737 4.52667,3.53846 9.37171,7.29984 13.73249,10.49651 4.3608,3.19667 8.23692,5.82848 12.00082,8.33903 3.7639,2.51055 7.41569,4.89992 12.17187,7.7401 4.75617,2.84018 10.61652,6.1308 15.55305,8.79067 4.93653,2.65987 8.94866,4.68854 13.378,6.87504 4.42934,2.18649 9.27585,4.53082 14.42651,6.94272 5.15066,2.41191 10.60537,4.89115 16.69149,7.43831 6.08611,2.54715 12.80286,5.16225 18.92339,7.5737 6.12052,2.41146 11.64411,4.61913 16.98811,6.64765 5.344,2.02853 10.50815,3.87754 15.76803,5.66271 5.25987,1.78517 10.61544,3.50669 16.44912,5.2281 5.83368,1.72142 12.14529,3.44273 18.32964,5.08445 6.18434,1.64171 12.24117,3.20364 16.54472,4.27157 4.30356,1.06792 6.85358,1.64202 10.16889,2.40709 3.31531,0.76507 7.39547,1.72115 12.81472,2.805 5.41926,1.08384 12.17732,2.29501 20.19464,3.63388 8.01731,1.33888 17.29389,2.80551 23.90861,3.82561 6.61473,1.0201 10.56728,1.59399 16.27343,2.26343 5.70615,0.66944 13.1656,1.4343 20.21065,2.10374 7.04506,0.66944 13.67516,1.24337 19.60449,1.65778 5.92933,0.41441 11.15744,0.66903 16.76797,0.94 5.61053,0.27096 11.6033,0.55812 18.01079,0.76533 6.40748,0.20721 13.22936,0.33462 21.23074,0.39842 8.00138,0.0638 17.18211,0.064 26.61801,-0.15916 9.4359,-0.22314 19.12652,-0.66938 26.71,-1.0666 7.58347,-0.39721 13.05905,-0.74543 18.59215,-1.23507 5.5331,-0.48965 11.12343,-1.1208 17.75757,-1.8712 6.63414,-0.75039 14.31192,-1.62035 21.75319,-2.56522 7.44127,-0.94487 14.64555,-1.96457 20.86178,-2.95279 6.21623,-0.98823 11.44394,-1.94461 16.38505,-2.86908 4.9411,-0.92446 9.59529,-1.81716 14.09009,-2.67787 4.49482,-0.86071 8.82986,-1.68938 12.59148,-2.51819 3.76162,-0.82883 6.94965,-1.65779 10.87065,-2.67788 3.921,-1.0201 8.57489,-2.23137 12.47004,-3.25251 3.89515,-1.02114 7.03139,-1.85195 11.43962,-3.07888 4.40821,-1.22693 10.0884,-2.85002 15.67863,-4.51807 5.59021,-1.66805 11.08969,-3.38079 17.13073,-5.40949 6.04104,-2.02871 12.6231,-4.37318 19.92644,-7.07812 7.30334,-2.70494 15.32779,-5.77035 22.21414,-8.57674 6.88636,-2.80638 12.63422,-5.35328 21.44779,-9.69243 8.81356,-4.33916 20.69219,-10.47037 28.27734,-14.5278 7.58515,-4.05743 10.87618,-6.04092 14.41514,-8.2274 3.53898,-2.1865 7.32594,-4.57589 10.97763,-6.94273 3.651676,-2.36683 7.168116,-4.71117 10.616916,-7.12308 3.44881,-2.41191 6.8295,-4.89127 10.14305,-7.39335 3.31356,-2.50207 6.55975,-5.02669 9.39995,-7.23573 2.84018,-2.20904 5.27464,-4.10238 7.70909,-6.15363 2.43444,-2.05126 4.86853,-4.26029 7.37061,-6.58203 2.50207,-2.32174 5.07176,-4.75628 7.23573,-6.83007 2.16396,-2.07379 3.92223,-3.78671 5.99602,-5.90559 2.07378,-2.11886 4.46295,-4.64361 7.3241,-7.92458 2.86114,-3.28096 6.19419,-7.31807 8.40258,-10.02212 2.2084,-2.70405 3.29192,-4.07443 4.94957,-6.36964 1.65765,-2.29521 3.88897,-5.51514 5.99292,-8.62325 2.10396,-3.10811 4.08064,-6.10422 6.07301,-9.30796 1.9923804,-3.20373 4.0007404,-6.61479 5.6265304,-9.51569 1.62579,-2.90091 2.86894,-5.29158 4.06435001,-7.82588 1.19543,-2.5343 2.34316999,-5.21227 3.39514999,-7.69876 1.05198,-2.4865 2.00827,-4.78146 2.85305,-6.99699 0.84477,-2.21553 1.57753,-4.35127 2.26291,-6.51898 0.68538,-2.16771 1.32324,-4.36716 1.8970396,-6.40736 0.5738,-2.0402 1.08385,-3.92134 1.53014,-5.78621 0.44629,-1.86487 0.82873,-3.71356 1.3069,-5.9769 0.47817,-2.26333 1.05196,-4.94122 1.53014,-8.19278 0.47817,-3.25155 0.86067,-7.0763 1.11569,-10.08879 0.25503,-3.01249 0.38255,-5.21218 0.41445,-7.98556 0.0319,-2.77338 -0.0319,-6.12048 -0.11162,-9.37203 -0.0797,-3.25157 -0.17529,-6.40756 -0.39843,-9.10126 -0.22315,-2.6937 -0.57391,-4.9252 -0.94051,-7.15667 -0.3666,-2.23146 -0.74926,-4.46284 -1.14773,-6.51898 -0.39848,-2.05614 -0.81283,-3.93691 -1.2113,-5.61051 -0.39848,-1.6736 -0.78064,-3.1399 -1.35444,-5.29167 -0.57381,-2.15175 -1.3392396,-4.98862 -2.2158796,-7.90546 -0.87665,-2.91683 -1.8645,-5.91328 -2.58176,-8.04911 -0.71726,-2.13584 -1.16388,-3.41084 -1.80144,-4.87722 -0.63756,-1.46639 -1.46601,-3.12411 -2.37453,-5.11649 -0.90851999,-1.99237 -1.89687999,-4.31959 -2.88509,-6.45542 -0.98822,-2.13583 -1.97633,-4.08013 -2.96313,-6.04459 -0.9868,-1.96446 -1.97242,-3.9489 -3.07372,-5.86528 -1.10129,-1.91637 -2.3182,-3.76453 -3.9186204,-6.24406 -1.60042,-2.47953 -3.58423,-5.5903 -5.4777,-8.43049 -1.89346,-2.8402 -3.69668,-5.40989 -5.38727,-7.70909 -1.69058,-2.2992 -3.26828,-4.32772 -4.72219,-6.08594 -1.45391,-1.75821 -2.78388,-3.24619 -4.21525,-4.89169 -1.43136,-1.6455 -2.96437,-3.44848 -4.76767,-5.47718 -1.80328,-2.0287 -3.87679,-4.28272 -6.31124,-6.80734 -2.43445,-2.52461 -5.22931,-5.31979 -7.79901,-7.77678 -2.56969,-2.457 -4.91401,-4.57577 -7.41608,-6.80734 -2.50207,-2.23158 -5.16211,-4.57578 -8.02483,-6.98769 -2.86272,-2.4119 -5.92818,-4.89152 -9.64748,-7.77678 -3.71929,-2.88527 -8.09213,-6.1762 -11.3099,-8.58811 -3.21777,-2.41192 -5.27993,-3.94465 -7.31428,-5.33094 -2.03435,-1.38629 -4.04082,-2.62566 -6.26112,-4.04575 -2.220296,-1.42009 -4.654616,-3.02049 -6.981996,-4.50257 -2.32738,-1.48208 -4.54727,-2.84624 -6.59288,-4.08037 -2.04561,-1.23413 -3.91667,-2.33825 -6.10195,-3.59461 -2.18528,-1.25637 -4.68501,-2.66472 -7.0187,-3.99045 -2.33369,-1.32574 -4.50114,-2.56912 -7.02748,-3.90003 -2.52632,-1.3309 -5.41152,-2.74906 -8.92607,-4.51031 -3.51454,-1.76126 -7.65832,-3.86513 -12.53566,-6.16035 -4.87734,-2.29522 -10.48796,-4.78209 -15.33344,-6.91792 -4.84546,-2.13584 -8.92553,-3.92082 -13.00592,-5.57847 -4.08039,-1.65766 -8.16089,-3.18749 -11.46028,-4.43074 -3.29939,-1.24325 -5.81766,-2.19982 -8.35195,-3.10834 -2.53429,-0.90852 -5.08441,-1.76892 -7.73027,-2.69337 -2.64587,-0.92447 -5.38714,-1.91266 -8.01709,-2.85306 -2.62993,-0.9404 -5.14821,-1.83319 -7.8419,-2.69389 -2.69369,-0.86071 -5.56253,-1.68965 -7.82587,-2.31924 -2.26335,-0.62959 -3.92107,-1.05957 -6.64663,-1.86449 -2.72556,-0.80491 -6.51914,-1.98469 -10.32857,-3.06854 -3.80942,-1.08386 -7.63448,-2.07179 -11.683,-3.10782 -4.04852,-1.03604 -8.32029,-2.12009 -12.0525,-2.98948 -3.7322,-0.8694 -6.92463,-1.52412 -9.24233,-2.03192 -2.31769,-0.50779 -3.76029,-0.86842 -6.28489,-1.43195 -2.52459,-0.56352 -6.13148,-1.33032 -10.05364,-2.11925 -3.92217,-0.78894 -8.15957,-1.60005 -11.40551,-2.20865 -3.24594,-0.60862 -5.50025,-1.01446 -7.40523,-1.32757 -1.90499,-0.3131 -3.4604,-0.53359 -5.52938,-0.83509 -2.06898,-0.3015 -4.65131,-0.68415 -7.18561,-1.08262 -2.53431,-0.39847 -5.02074,-0.81266 -7.44347,-1.17926 -2.42274,-0.3666 -4.78158,-0.68565 -6.91741,-0.97255 -2.13584,-0.2869 -4.04844,-0.5418 -5.91333,-0.79789 -1.8649,-0.25609 -3.6822,-0.51338 -5.69526,-0.77721 -2.01308,-0.26382 -4.2216,-0.5343 -6.61097,-0.82734 -2.38937,-0.29303 -4.95937,-0.60852 -7.50652,-0.87901 -2.54716,-0.27049 -5.07173,-0.496 -7.82174,-0.72141 -2.75003,-0.22541 -5.72541,-0.45045 -8.2951,-0.60823 -2.56971,-0.15779 -4.73345,-0.24788 -7.03265,-0.40566 -2.2992,-0.15779 -4.73337,-0.38334 -7.43831,-0.60875 -2.70493,-0.22541 -5.68024,-0.45115 -8.70076,-0.63148 -3.02052,-0.18033 -6.08613,-0.31529 -9.19375,-0.48163 -3.10763,-0.16633 -6.2573,-0.36388 -9.47384,-0.47852 -3.21655,-0.11468 -6.4997,-0.14639 -10.24537,-0.17829 -3.74567,-0.0318 -7.95376,-0.0636 -11.77913,-0.0636 z m -22.43067,13.15217 c 3.19311,-0.0419 5.16112,0.01 8.75916,0.0351 3.59804,0.0257 8.8264,0.026 14.66008,0.0579 5.8337,0.0319 12.27258,0.0953 19.71611,0.35036 7.44354,0.25503 15.89112,0.70128 22.44204,1.1157 6.55093,0.41441 11.20505,0.79688 16.11427,1.21129 4.90922,0.41442 10.07301,0.86089 16.353,1.46658 6.27999,0.60568 13.67574,1.37096 21.45399,2.39107 7.77825,1.0201 15.93904,2.29508 24.09982,3.6499 8.16078,1.35482 16.32097,2.78909 23.87606,4.23954 7.5551,1.45045 14.50419,2.91714 22.29838,4.65449 7.7942,1.73736 16.43298,3.74546 24.16339,5.67408 7.73042,1.92862 14.55228,3.77763 20.51347,5.53092 5.96119,1.7533 11.06185,3.41053 17.29869,5.52938 6.23684,2.11886 13.60972,4.69895 21.35374,7.61194 7.74401,2.91299 15.85842,6.15916 23.20685,9.22476 7.34842,3.0656 13.93014,5.95038 20.42201,9.01599 6.49186,3.0656 12.89377,6.31183 18.1684,9.10693 5.27462,2.79511 9.4219,5.13928 13.83998,7.75405 4.41806,2.61478 9.10629,5.49973 13.47928,8.20467 4.37299,2.70494 8.43066,5.22951 13.254486,8.47545 4.82382,3.24594 10.41355,7.21334 15.59801,11.22567 5.18448,4.01233 9.96313,8.06965 14.69678,12.2623 4.73364,4.19266 9.42214,8.51999 13.56971,12.62249 4.14759,4.1025 7.7542,7.97973 10.6717,11.34556 2.91751,3.36583 5.14592,6.22009 7.59902,9.2413 2.4531,3.0212 5.13039,6.20938 7.77627,9.87536 2.64588,3.66598 5.26001,7.80972 7.68274,11.76259 2.42274,3.95288 4.6541,7.71433 6.31176,10.79056 1.65765,3.07622 2.74165,5.46723 4.11241,8.60722 1.3707704,3.14 3.0284904,7.02876 4.3036104,10.34408 1.27512,3.31531 2.16745,6.05675 2.805,8.25633 0.63756,2.19958 1.02023,3.85735 1.50637,5.73816 0.48614,1.8808 1.07586,3.98475 1.68155001,6.535 0.60568,2.55024 1.22721,5.54687 1.66553,8.28838 0.43832999,2.74151 0.69312999,5.22754 0.94618999,9.48986 0.25306,4.26233 0.50419,10.30025 0.6072,15.12259 0.10302,4.82234 0.0581,8.42898 -0.21239,11.99048 -0.27049,3.56151 -0.76625,7.07787 -1.46502999,11.02259 -0.69878,3.9447 -1.60033,8.31784 -2.89646001,13.29944 -1.29612,4.98161 -2.98663,10.57118 -4.91391,15.6993 -1.92728,5.12812 -4.0912304,9.79428 -6.3453504,14.24616 -2.25412,4.45188 -4.59855,8.68954 -7.6078,13.56972 -3.00926,4.88017 -6.68348,10.40266 -9.96322,14.98978 -3.27974,4.58712 -6.16459,8.23862 -8.90333,11.5409 -2.73876,3.30228 -5.33088,6.25482 -8.40776,9.62473 -3.07688,3.36991 -6.63861,7.15717 -10.40298,10.83138 -3.76439,3.67421 -7.73122,7.2352 -14.57482,12.7832 -6.84361,5.548 -16.56355,13.08262 -24.48378,18.73064 -7.920216,5.64802 -14.040716,9.40958 -19.906276,12.94805 -5.86555,3.53846 -11.47599,6.85343 -19.38176,11.06134 -7.90577,4.2079 -18.1062,9.30858 -29.70981,14.53658 -11.60363,5.228 -24.60967,10.58306 -37.74344,15.42852 -13.13375,4.84545 -26.39471,9.18107 -39.65597,13.00644 -13.26128,3.82536 -26.52234,7.14025 -40.80372,10.32805 -14.28137,3.1878 -29.5821,6.24806 -43.86347,8.67079 -14.28135,2.42272 -27.54256,4.20801 -41.95144,5.73815 -14.4089,1.53015 -29.96463,2.80513 -45.90366,3.44268 -15.93903,0.63755 -32.26038,0.63756 -46.92427,0.51005 -14.66388,-0.12752 -27.66985,-0.3824 -38.63588,-0.89245 -10.96603,-0.51005 -19.8913,-1.27529 -30.12323,-2.17351 -10.23193,-0.89824 -21.76964,-1.92976 -34.21083,-3.52744 -12.44119,-1.59769 -25.7853,-3.76158 -39.40018,-6.37635 -13.61488,-2.61479 -27.49966,-5.67991 -41.02437,-9.19634 -13.52471,-3.51644 -26.68862,-7.48379 -40.48383,-11.99203 -13.79522,-4.50824 -28.22125,-9.55715 -39.15369,-13.65964 -10.93243,-4.10248 -18.37081,-7.25859 -27.54508,-11.72176 -9.17427,-4.46317 -20.0839,-10.23309 -29.73152,-15.64297 -9.64762,-5.40989 -18.03292,-10.45919 -24.84035,-14.83217 -6.80743,-4.37299 -12.03645,-8.06963 -16.846,-11.48612 -4.80953,-3.4165 -9.19901,-6.55274 -14.39033,-10.86239 -5.19132,-4.30964 -11.18419,-9.79221 -16.6672,-15.21147 -5.48301,-5.41928 -10.45607,-10.77504 -14.91899,-15.87552 -4.46291,-5.1005 -8.41563,-9.94563 -12.11347,-15.04611 -3.69785,-5.10049 -7.1407,-10.45613 -10.00973,-15.23783 -2.86901,-4.7817 -5.16397,-8.98923 -7.09259,-12.68708 -1.92861,-3.69785 -3.49072,-6.88583 -4.81366,-10.04177 -1.32292,-3.15592 -2.40697,-6.2796 -3.50676,-9.6268 -1.09979,-3.34719 -2.21541,-6.91758 -3.34708,-10.93421 -1.13168,-4.01664 -2.27931,-8.47961 -3.1719,-14.40894 -0.89258,-5.92933 -1.52975,-13.32449 -1.65726,-20.21014 -0.12751,-6.88565 0.25463,-13.26107 0.63717,-18.23403 0.38254,-4.97296 0.76519,-8.5436 1.30896,-11.76104 0.54377,-3.21745 1.24891,-6.08162 2.36781,-9.90327 1.11891,-3.82165 2.65184,-8.60013 4.22972,-13.06328 1.57789,-4.46315 3.20051,-8.6109 4.82348,-12.35273 1.62296,-3.74184 3.24611,-7.07769 5.20485,-10.76162 1.95874,-3.68393 4.25283,-7.71546 7.21713,-12.31346 2.96431,-4.59801 6.59868,-9.76212 9.78648,-14.03377 3.1878,-4.27165 5.92909,-7.65079 8.94158,-11.14144 3.01247,-3.49065 6.2956,-7.09259 9.94564,-10.87014 3.65005,-3.77755 7.66689,-7.73055 11.68353,-11.46028 4.01663,-3.72973 8.03303,-7.23599 10.77453,-9.5312 2.7415,-2.29521 4.20789,-3.37906 7.76232,-6.02496 3.55442,-2.64589 9.19638,-6.85386 14.82287,-10.83861 5.62647,-3.98476 11.23736,-7.74612 16.81602,-11.28458 5.57866,-3.53846 11.12505,-6.85399 17.69195,-10.45621 6.56688,-3.60223 14.15356,-7.49105 19.03088,-9.94565 4.87731,-2.4546 7.04511,-3.47477 10.11514,-4.91908 3.07004,-1.44431 7.04243,-3.31285 11.95896,-5.53196 4.91654,-2.21911 10.77662,-4.78857 17.01498,-7.28121 6.23838,-2.49263 12.85443,-4.90785 19.86029,-7.39076 7.00587,-2.48291 14.40161,-5.03356 23.1681,-7.7432 8.76647,-2.70963 18.90321,-5.57829 27.57403,-7.88944 8.67081,-2.31115 15.87518,-4.06436 23.36653,-5.80171 7.49134,-1.73736 15.26929,-3.45879 24.45019,-5.21209 9.18089,-1.75329 19.76392,-3.5387 27.5518,-4.77025 7.78789,-1.23155 12.78028,-1.90945 19.64945,-2.72179 6.86916,-0.81234 15.61485,-1.75873 23.59442,-2.49132 7.97958,-0.73258 15.19259,-1.25119 23.28489,-1.73581 8.09229,-0.48464 17.06353,-0.93532 23.75824,-1.22835 6.69471,-0.29304 11.11248,-0.42835 14.30558,-0.47026 z" /><path
       style="fill:#000000;fill-opacity:1;stroke-width:0.264583"
       d="m 87.217564,-18.744126 c 0,0 34.427986,0 34.427986,0 0,0 32.13278,-58.910108 32.13278,-58.910108 0.25502,9.180796 0.51005,18.361591 1.14761,30.857834 0.63757,12.496243 1.65764,28.307297 3.06028,42.5886626 1.40264,14.2813654 3.18776,27.0322164 4.46287,35.7030144 1.27512,8.670798 2.04017,13.261104 3.3153,17.724035 1.27513,4.462931 3.06025,8.79822 4.36724,11.539718 1.307,2.741498 2.13581,3.889078 3.06027,4.972932 0.92447,1.083853 1.94454,2.10392 4.17602,3.570315 2.23147,1.466395 5.6742,3.379024 8.79825,4.909169 3.12405,1.530145 5.92924,2.677723 9.24456,3.761577 3.31533,1.083853 7.14059,2.103922 10.96596,2.868993 3.82537,0.765071 7.65062,1.275105 11.41224,1.562005 3.76161,0.286901 7.45935,0.350655 10.96594,0.223141 3.50659,-0.127515 6.82181,-0.446286 9.57603,-0.781124 2.75422,-0.334837 4.94729,-0.685722 7.77954,-1.266914 2.83225,-0.581192 6.30349,-1.392651 9.32401,-2.294301 3.02052,-0.901649 5.59014,-1.893432 7.95696,-2.930329 2.36683,-1.036897 4.53072,-2.118844 7.16805,-3.606569 2.63733,-1.487725 5.7479,-3.381115 8.47539,-5.274576 2.72749,-1.893461 5.07171,-3.786875 6.85246,-5.274594 1.78075,-1.48772 2.99794,-2.569668 4.44354,-3.983287 1.4456,-1.413619 3.11953,-3.15882 4.88098,-5.306573 1.76145,-2.147753 3.61033,-4.697926 5.23611,-7.34381 1.62579,-2.645883 3.02838,-5.387308 4.23975,-8.320096 1.21136,-2.932788 2.23143,-6.056746 2.90086,-8.606988 0.66943,-2.550241 0.9882,-4.526623 1.21135,-6.598699 0.22315,-2.072076 0.35066,-4.239721 0.43035,-6.152403 0.0797,-1.912683 0.11155,-3.570294 0.0318,-5.5786172 -0.0797,-2.0083229 -0.27097,-4.3672283 -0.68539,-6.853719 -0.41442,-2.48649067 -1.05196,-5.1004211 -1.72141,-7.7144224 -0.66944,-2.6140012 -1.37074,-5.2279254 -2.08317,-7.4394224 -0.71243,-2.211496 -1.43594,-4.020431 -2.47395,-6.390112 -1.03801,-2.369682 -2.39044,-5.299957 -3.72038,-7.982359 -1.32993,-2.682401 -2.63727,-5.11677 -4.022,-7.600536 -1.38473,-2.483765 -2.84676,-5.016758 -4.29505,-7.255573 -1.44829,-2.238815 -2.88275,-4.183315 -4.18975,-5.912701 -1.30701,-1.729386 -2.48646,-3.243554 -3.66594,-4.757748 1.59389,0.446288 3.18778,0.892575 5.10047,1.386685 1.91268,0.494109 4.1441,1.036025 5.88145,1.514195 1.73734,0.478169 2.98054,0.892568 4.49218,1.365675 1.51164,0.473107 3.2916,1.004884 4.67752,1.451111 1.38591,0.446227 2.3777,0.806878 4.8347,1.640906 2.457,0.834028 6.37905,2.141379 9.8504,3.324794 3.47135,1.183415 6.49178,2.242819 10.2618,3.595292 3.77002,1.352473 8.28939,2.997928 12.25101,4.519461 3.96162,1.521532 7.36522,2.919038 11.08676,4.403589 3.72153,1.484551 7.76074,3.056045 12.36255,4.989434 4.6018,1.93339 9.76589,4.228544 15.82162,7.094454 6.05573,2.86591 13.00271,6.302389 18.73042,9.3280699 5.72771,3.0256811 10.23582,5.6403872 14.74405,8.25516519 4.50824,2.61477801 9.01634,5.22947561 12.73564,7.43851391 3.7193,2.2090384 6.64956,4.012279 9.91804,6.17624 3.26848,2.163961 6.87496,4.688496 10.39139,7.258195 3.51643,2.569699 6.9426,5.184404 10.36886,7.934433 3.42627,2.750028 6.85242,5.635203 10.45902,8.881144 3.6066,3.24594 7.3934,6.852421 11.04508,10.459021 3.65168,3.6066 7.16799,7.213081 9.67697,9.918109 2.50898,2.705029 4.01051,4.508467 5.9089,7.035995 1.89839,2.527529 4.19355,5.778995 6.13811,8.679902 1.94456,2.900908 3.53841,5.451078 5.13232,8.128835 1.5939,2.677758 3.18776,5.482938 4.62227,8.288213 1.43452,2.805274 2.7096,5.610461 3.79345,8.128825 1.08385,2.518364 1.97642,4.749764 2.62992,6.391474 0.6535,1.64172 1.06789,2.69366 1.53013,4.33539 0.46223,1.64173 0.97226,3.87313 1.48231,6.07272 0.51006,2.19959 1.02009,4.36723 1.39466,6.24007 0.37456,1.87283 0.61363,3.45075 0.82881,4.91714 0.21517,1.46639 0.40643,2.82117 0.61752,5.18095 0.21108,2.35978 0.44197,5.72441 0.55741,7.95902 0.11545,2.23461 0.11545,3.3391 0.0591,5.49743 -0.0564,2.15833 -0.16906,5.37036 -0.24795,7.81044 -0.0789,2.44007 -0.12398,4.10807 -0.30431,6.24949 -0.18033,2.14142 -0.49589,4.75612 -0.85655,7.12294 -0.36066,2.36683 -0.76639,4.48564 -1.2623,6.98772 -0.49591,2.50208 -1.08197,5.38727 -1.60042,7.68646 -0.51844,2.2992 -0.96925,4.01228 -1.6004,6.10862 -0.63115,2.09634 -1.44261,4.57579 -2.47951,7.39345 -1.0369,2.81765 -2.29917,5.97333 -3.37,8.59035 -1.07083,2.61701 -1.95016,4.69522 -3.13898,7.18482 -1.18882,2.48959 -2.68704,5.3904 -4.55191,8.57821 -1.86488,3.18781 -4.09627,6.66242 -5.92926,9.46769 -1.83299,2.80527 -3.26746,4.94103 -5.35549,7.73037 -2.08802,2.78934 -4.82945,6.23207 -7.57097,9.48363 -2.74152,3.25157 -5.48294,6.31176 -8.06507,8.98952 -2.58212,2.67776 -5.00478,4.97291 -7.52315,7.30001 -2.51837,2.3271 -5.13229,4.68601 -7.96304,7.05152 -2.83074,2.36551 -5.87812,4.73748 -10.46748,8.06493 -4.58936,3.32745 -10.72038,7.61016 -15.85976,10.99133 -5.13939,3.38118 -9.28684,5.86063 -12.11711,7.55399 -2.83028,1.69335 -4.3432,2.6005 -6.67767,3.85105 -2.33448,1.25055 -5.49032,2.8444 -7.95159,4.10393 -2.46126,1.25954 -4.2278,2.18468 -6.6439,3.3235 -2.41611,1.13883 -5.48163,2.49126 -8.00623,3.59578 -2.5246,1.10452 -4.50818,1.96107 -6.92958,2.93417 -2.42139,0.9731 -5.28049,2.06271 -8.41555,3.26103 -3.13506,1.19832 -6.54591,2.50529 -9.98523,3.69614 -3.43932,1.19085 -6.90689,2.26552 -10.37455,3.34021 1.05943,-0.8791 2.11886,-1.7582 3.3699,-2.89654 1.25104,-1.13834 2.69363,-2.53585 3.88831,-3.86578 1.19468,-1.32993 2.14139,-2.5922 2.96414,-3.76434 0.82275,-1.17213 1.52151,-2.25408 2.08504,-3.09938 0.56354,-0.84529 0.99181,-1.45389 1.65602,-2.58964 0.66421,-1.13575 1.56432,-2.79862 2.60413,-4.88925 1.03981,-2.09063 2.21926,-4.60893 3.20748,-7.01572 0.98822,-2.4068 1.78515,-4.70196 2.35895,-6.48712 0.57381,-1.78517 0.92446,-3.06025 1.25918,-4.431 0.33473,-1.37076 0.6535,-2.8371 0.97228,-4.5904 0.31878,-1.7533 0.63754,-3.79345 0.79693,-5.80176 0.15938,-2.00831 0.15938,-3.98469 0.1275,-5.70611 -0.0319,-1.72142 -0.0956,-3.18777 -0.15147,-4.32462 -0.0558,-1.13685 -0.10377,-1.94415 -0.28552,-3.24946 -0.18176,-1.30531 -0.49733,-3.10855 -0.88053,-4.73151 -0.3832,-1.62297 -0.83401,-3.06557 -1.37499,-4.48566 -0.54099,-1.4201 -1.17212,-2.81761 -2.02869,-4.46312 -0.85657,-1.64551 -1.93852,-3.53892 -3.04304,-5.13934 -1.10452,-1.60042 -2.23155,-2.90776 -3.30226,-4.07991 -1.07071,-1.17215 -2.08503,-2.209 -3.40369,-3.31353 -1.31867,-1.10452 -2.94159,-2.27664 -4.6998,-3.38115 -1.75821,-1.10452 -3.65162,-2.14139 -5.31966,-2.99795 -1.66804,-0.85656 -3.11066,-1.53278 -4.57583,-2.0963 -1.46517,-0.56353 -2.95284,-1.01434 -4.50819,-1.46516 -1.55535,-0.45083 -3.17826,-0.90164 -5.16189,-1.32992 -1.98363,-0.42829 -4.32784,-0.83402 -6.51435,-1.08197 -2.1865,-0.24796 -4.21514,-0.33812 -6.24385,-0.36066 -2.0287,-0.0225 -4.05737,0.0226 -6.48356,0.20227 -2.42619,0.17973 -5.24977,0.49407 -8.47865,1.09755 -3.22888,0.60347 -6.86288,1.49604 -9.98692,2.45238 -3.12404,0.95634 -5.73797,1.97641 -8.54324,3.18778 -2.80527,1.21137 -5.80173,2.61396 -8.98954,4.36726 -3.18781,1.75329 -6.56679,3.85719 -9.26048,5.58657 -2.69368,1.72937 -4.70195,3.08416 -6.75809,4.5904 -2.05613,1.50625 -4.16002,3.16386 -6.23209,4.93309 -2.07207,1.76924 -4.11221,3.64999 -6.18429,5.56267 -2.07208,1.91268 -4.17597,3.85719 -5.85754,5.56266 -1.68156,1.70548 -2.94071,3.17182 -4.19988,4.6382 -0.19127,-0.8607 -0.38253,-1.7214 -0.73319,-2.86901 -0.35066,-1.14762 -0.8607,-2.58209 -1.75329,-4.49478 -0.89259,-1.91269 -2.16767,-4.30347 -3.65,-6.42336 -1.48234,-2.11989 -3.17182,-3.96876 -4.78781,-5.57905 -1.61599,-1.6103 -3.15837,-2.98191 -4.74107,-4.17492 -1.58271,-1.193 -3.20562,-2.20732 -4.72716,-3.07516 -1.52153,-0.86784 -2.94158,-1.58914 -4.47439,-2.26537 -1.5328,-0.67624 -3.17825,-1.30737 -4.77065,-1.82578 -1.59239,-0.51841 -3.13162,-0.92406 -4.82572,-1.30222 -1.69411,-0.37816 -3.54298,-0.72881 -5.39191,-1.03165 -1.84893,-0.30284 -3.6978,-0.55786 -5.11637,-0.74116 -1.41857,-0.18329 -2.40676,-0.29487 -3.55039,-0.38652 -1.14363,-0.0916 -2.44262,-0.16337 -3.913,-0.19923 -1.47038,-0.0359 -3.11205,-0.0359 -4.49874,0.012 -1.3867,0.0478 -2.51834,0.14344 -3.3392,0.2311 -0.82085,0.0877 -1.33089,0.16736 -1.99199,0.27732 -0.66111,0.10995 -1.47325,0.25016 -2.43723,0.43861 -0.96398,0.18844 -2.07973,0.42512 -3.02646,0.62235 -0.94673,0.19724 -1.72438,0.35502 -2.63166,0.61425 -0.90729,0.25922 -1.94416,0.61987 -2.68802,0.89036 -0.74385,0.27049 -1.19466,0.45082 -1.823,0.73259 -0.62834,0.28177 -1.43416,0.66495 -2.19774,1.04252 -0.76359,0.37757 -1.48488,0.74948 -2.15548,1.10451 -0.6706,0.35502 -1.29047,0.69313 -1.89345,1.04815 -0.60297,0.35502 -1.18903,0.72694 -1.89344,1.1665 -0.70442,0.43956 -1.52715,0.94672 -2.19013,1.35587 -0.66298,0.40915 -1.16619,0.72027 -1.77642,1.16273 -0.61024,0.44247 -1.32748,1.01626 -2.16827,1.66976 -0.84078,0.6535 -1.80507,1.38667 -2.70762,2.16569 -0.90254,0.77903 -1.7433,1.60385 -2.56217,2.36693 -0.81886,0.76308 -1.61579,1.46437 -2.49244,2.32508 -0.87665,0.86071 -1.83296,1.88078 -2.869,2.94869 -1.03604,1.06792 -2.15174,2.18362 -3.02838,3.17184 -0.87665,0.98822 -1.51419,1.8489 -2.47851,3.06824 -0.96432,1.21934 -2.25534,2.79726 -3.66594,4.68604 -1.41061,1.88877 -2.94071,4.08831 -4.42304,6.30383 -1.48233,2.21553 -2.9168,4.44692 -4.12816,6.4393 -1.21137,1.99238 -2.19956,3.74562 -3.08616,5.33471 -0.8866,1.58908 -1.67156,3.01391 -2.83046,5.30425 -1.1589,2.29034 -2.69165,5.446 -3.95682,8.15249 -1.26517,2.70649 -2.26268,4.96362 -3.35119,7.39921 -1.08851,2.4356 -2.26796,5.04953 -3.24564,7.43735 -0.97768,2.38783 -1.75353,4.54942 -2.56975,6.82493 -0.81622,2.27551 -1.67276,4.6648 -2.39408,6.69351 -0.72132,2.02871 -1.30737,3.69672 -1.90176,5.50958 -0.59438,1.81286 -1.19706,3.77045 -1.78531,5.86502 -0.58825,2.09456 -1.16204,4.32595 -1.73584,6.55739 -1.02009,-3.25153 -2.04018,-6.50306 -3.28343,-10.42407 -1.24324,-3.921 -2.709591,-8.51131 -4.399133,-13.1974 -1.689543,-4.68609 -3.602165,-9.46764 -5.339519,-13.62773 -1.737354,-4.16008 -3.299339,-7.69846 -5.451114,-12.04982 -2.151776,-4.35136 -4.89321,-9.51545 -6.678374,-12.79887 -1.785164,-3.28343 -2.613961,-4.68601 -4.207874,-7.07688 -1.593912,-2.39087 -3.952828,-5.76986 -6.630588,-9.18081 -2.677761,-3.41095 -5.67421,-6.85368 -8.638873,-10.00961 -2.964662,-3.15593 -5.897356,-6.02487 -9.085166,-8.60699 -3.187811,-2.58212 -6.630539,-4.87727 -9.021387,-6.34366 -2.390847,-1.46638 -3.729685,-2.10392 -5.690193,-2.90088 -1.960509,-0.79695 -4.542555,-1.75327 -6.789957,-2.48646 -2.247402,-0.73319 -4.16003,-1.24323 -6.455255,-1.59388 -2.295226,-0.35066 -4.972905,-0.54192 -7.395637,-0.60568 -2.422732,-0.0637 -4.590376,0 -7.0449909,0.19127 -2.4546151,0.19127 -5.1960481,0.51004 -7.5869009,0.8607 -2.3908528,0.35066 -4.4309896,0.73319 -6.7580928,1.33887 -2.3271032,0.60569 -4.9410264,1.43449 -6.8979634,2.13459 -1.956937,0.70011 -3.256782,1.27147 -4.695667,2.00799 -1.438884,0.73652 -3.01672,1.63814 -4.617145,2.6525 -1.600426,1.01435 -3.223346,2.14138 -4.643439,3.26844 -1.420093,1.12706 -2.637283,2.25409 -3.786885,3.44877 -1.149601,1.19469 -2.231548,2.45696 -3.178278,3.80943 -0.946731,1.35248 -1.758188,2.79507 -2.479505,4.19262 -0.721318,1.39756 -1.352452,2.74999 -1.893439,4.10246 -0.540987,1.35247 -0.9918,2.70491 -1.239751,3.7418 -0.247951,1.03689 -0.293033,1.75819 -0.338115,2.4795 -0.856557,-0.85656 -1.713112,-1.71311 -2.817634,-2.84018 -1.104523,-1.12706 -2.45696,-2.52458 -3.629099,-3.67417 -1.172139,-1.1496 -2.163922,-2.05122 -4.054008,-3.78127 -1.890087,-1.73006 -4.678342,-4.28842 -7.602662,-6.74713 -2.92432,-2.45871 -5.984527,-4.81762 -8.981067,-6.85781 -2.99654,-2.0402 -5.929232,-3.76156 -8.734501,-5.35546 -2.805269,-1.5939 -5.482948,-3.06025 -8.12883,-4.33537 -2.645883,-1.27513 -5.259807,-2.35895 -8.320107,-3.41092 -3.0603,-1.05198 -6.566783,-2.07205 -10.07337,-2.93276 -3.50659,-0.8607 -7.01307,-1.562 -9.7227,-1.94453 -2.70963,-0.38254 -4.62226,-0.44629 -6.7247,-0.45729 -2.10244,-0.011 -4.39456,0.0308 -6.9833,0.27708 -2.58873,0.2463 -5.47392,0.6971 -8.22395,1.26063 -2.75002,0.56353 -5.36473,1.23975 -7.34835,1.84836 -1.98362,0.60862 -3.33605,1.14959 -4.69184,1.77654 -1.35579,0.62695 -2.71486,1.33985 -4.30295,2.23824 -1.58808,0.89839 -3.40507,1.98221 -4.99898,3.11388 -1.5939,1.13168 -2.96461,2.31113 -4.09628,3.34716 -1.13167,1.03604 -2.02423,1.9286 -2.96464,3.01246 -0.9404,1.08386 -1.92859,2.35894 -2.85305,3.7297 -0.92447,1.37076 -1.78515,2.83711 -2.55022,4.25568 -0.76507,1.41857 -1.43449,2.78929 -1.94454,3.9369 -0.51005,1.14761 -0.86069,2.07204 -1.22729,3.25154 -0.3666,1.17949 -0.74913,2.61396 -1.05198,4.36725 -0.30284,1.7533 -0.52598,3.82532 -0.65348,6.15242 -0.12751,2.32711 -0.15937,4.90915 -0.15937,6.83777 0,1.92861 0.0319,3.20371 0.13191,4.39619 0.10005,1.19248 0.26827,2.3023 0.53272,3.7138 0.26444,1.4115 0.62509,3.12457 1.07592,4.88278 0.45082,1.75821 0.9918,3.56147 1.57787,5.40985 0.58607,1.84838 1.2172,3.74177 1.93347,5.53293 0.71628,1.79116 1.51767,3.48 2.28496,5.15325 0.76729,1.67325 1.50047,3.33086 2.26554,4.79725 0.76508,1.46639 1.56201,2.7415 2.67775,4.43104 1.11573,1.68953 2.5502,3.79342 3.84923,5.39529 1.29902,1.60187 2.46255,2.70163 4.00067,4.11224 1.53812,1.41061 3.45075,3.13197 5.36342,4.85337 -1.49826,-0.41441 -2.99651,-0.82881 -4.70199,-1.38668 -1.70548,-0.55787 -3.61811,-1.25917 -5.6105,-1.97642 -1.99238,-0.71726 -4.06439,-1.45044 -5.8655,-2.11987 -1.80111,-0.66944 -3.33122,-1.27511 -5.77787,-2.21552 -2.44665,-0.9404 -5.80968,-2.2155 -9.19673,-3.61813 -3.38704,-1.40264 -6.79789,-2.93274 -9.30032,-4.06441 -2.50242,-1.13167 -4.09627,-1.86483 -5.73799,-2.67773 -1.64173,-0.81289 -3.33121,-1.70545 -5.6105,-2.90088 -2.27929,-1.19544 -5.14823,-2.69366 -7.45938,-3.95284 -2.31116,-1.25919 -4.0644,-2.27926 -5.81769,-3.28342 -1.7533,-1.00416 -3.50654,-1.99235 -5.65832,-3.25154 -2.15177,-1.25918 -4.70194,-2.78928 -6.66244,-4.00064 -1.9605,-1.21137 -3.3312,-2.10392 -4.82744,-3.17025 -1.49623,-1.06633 -3.11789,-2.30636 -4.76277,-3.51246 -1.64487,-1.20611 -3.31287,-2.37821 -4.58644,-3.29113 -1.27357,-0.91291 -2.15266,-1.5666 -3.77529,-2.73541 -1.62263,-1.16882 -3.98871,-2.8527 -7.25981,-5.62329 -3.2711,-2.7706 -7.44701,-6.62774 -10.52323,-9.57646 -3.07623,-2.94871 -5.05261,-4.98885 -7.69849,-7.85789 -2.64589,-2.86903 -5.96111,-6.56678 -8.70262,-9.85021 -2.74151,-3.28344 -4.90915,-6.15238 -6.75808,-8.70263 -1.84893,-2.55024 -3.37904,-4.78164 -4.90918,-7.10874 -1.53015,-2.32709 -3.06025,-4.74976 -4.65415,-7.61879 -1.59391,-2.86904 -3.25152,-6.18426 -5.2439,-10.64719 -1.99238,-4.46294 -4.31942,-10.07333 -6.08865,-14.63188 -1.76922,-4.55856 -2.98055,-8.06504 -3.71374,-10.48777 -0.73319,-2.42272 -0.98821,-3.76156 -1.30699,-5.6105 -0.31878,-1.84893 -0.70131,-4.20784 -1.17948,-6.98123 -0.47817,-2.7734 -1.05197,-5.96111 -1.40262,-9.02141 -0.35066,-3.06029 -0.47817,-5.99299 -0.60576,-9.60916 -0.12759,-3.61617 -0.25525,-7.91559 -0.274,-11.64324 -0.0187,-3.72766 0.0714,-6.88333 0.34191,-9.90385 0.2705,-3.02052 0.72132,-5.90571 1.44264,-9.19673 0.72132,-3.29102 1.71309,-6.98767 2.68592,-10.21724 0.97282,-3.22958 1.92664,-5.9919 3.32803,-9.38143 1.40139,-3.389517 3.25027,-7.406027 5.13108,-11.135763 1.88081,-3.729735 3.79344,-7.172462 5.80175,-10.519661 2.00832,-3.347198 4.11221,-6.598663 6.64593,-10.166097 2.53371,-3.567434 5.4971,-7.450619 8.46655,-10.925064 2.96946,-3.474445 5.94481,-6.539954 9.37108,-9.921141 3.42628,-3.381187 7.30324,-7.077829 11.22541,-10.594256 3.92217,-3.516427 7.88931,-6.852429 12.89346,-10.706979 5.00416,-3.854551 11.04503,-8.227417 17.22132,-12.44262 6.17629,-4.215203 12.48764,-8.2724987 18.7541,-12.0143361 6.26645,-3.74183737 12.48764,-7.1680002 20.28691,-11.1352589 7.79928,-3.967259 17.17614,-8.475364 25.94467,-12.42007 8.76852,-3.944706 16.92819,-7.325784 24.93032,-10.549176 8.00213,-3.223393 15.84623,-6.288905 22.293,-8.633184 6.44677,-2.344278 11.49585,-3.967196 16.454916,-5.54508 4.959066,-1.577884 9.827823,-3.110641 14.245895,-4.418029 4.418072,-1.307388 8.385205,-2.389332 12.352418,-3.471299 -1.081967,1.442623 -2.163933,2.885245 -3.471326,4.59838 -1.307392,1.713134 -2.840149,3.696701 -4.463117,6.086073 -1.622968,2.389372 -3.336049,5.184398 -4.878716,7.840619 -1.542668,2.656222 -2.914833,5.173482 -4.366011,8.344841 -1.451178,3.171359 -2.981281,6.996615 -4.320159,10.566958 -1.338877,3.570343 -2.486453,6.8855636 -3.31528,10.0733708 -0.828827,3.1878073 -1.338862,6.2480116 -1.658163,8.9703 -0.319301,2.7222883 -0.447853,5.1065043 -0.557213,7.4257072 -0.10936,2.319204 -0.199522,4.573257 -0.06427,7.052792 0.13525,2.479536 0.495898,5.1844 1.036888,7.618848 0.54099,2.434447 1.262288,4.598339 2.209021,7.122958 0.946733,2.524618 2.118841,5.409806 3.516399,8.11475 1.397557,2.704944 3.020475,5.229481 4.457386,7.273669 1.436911,2.044188 2.687731,3.60791 4.301385,5.34614 1.613654,1.738229 3.590036,3.650856 5.980896,5.754812 2.39086,2.103955 5.196048,4.399109 8.224467,6.598696 3.02842,2.199587 6.279887,4.303477 9.403937,6.056768 3.124051,1.75329 6.120503,3.155885 9.658975,4.431007 3.538472,1.275122 7.618744,2.422699 11.125328,3.283404 3.506584,0.860706 6.439278,1.434493 9.722724,1.880785 3.283447,0.446292 6.917439,0.765064 10.36027,0.956331 3.442831,0.191268 6.694298,0.255022 9.9777411,0.09563 3.2834431,-0.159392 6.5986641,-0.541918 10.07340103,-1.147608 3.47473697,-0.605689 7.10873037,-1.43449 10.90222387,-2.613981 3.793494,-1.179491 7.746258,-2.709593 11.220964,-4.239741 3.474706,-1.530148 6.471156,-3.060251 8.702614,-4.494763 2.231458,-1.434513 3.697807,-2.773353 4.972928,-4.239746 1.275122,-1.466394 2.358943,-3.060249 3.283406,-4.845424 0.924462,-1.785174 1.689514,-3.761556 2.534284,-6.519018 0.84477,-2.757462 1.769206,-6.295822 2.518339,-9.531445 0.749134,-3.235623 1.322922,-6.16832 1.992363,-10.057456 0.669441,-3.889135 1.434492,-8.734457 2.072053,-13.069871 0.63756,-4.335415 1.147595,-8.16067 1.689522,-13.1655409 0.541927,-5.004871 1.115715,-11.1890336 1.721399,-17.7878009 0.605684,-6.5987672 1.243227,-13.6117352 1.755195,-21.0227162 0.511968,-7.410981 0.898333,-15.219523 1.215498,-23.03481 0.317164,-7.815288 0.56511,-15.636852 0.813061,-23.458574 1.127049,1.893443 2.254098,3.786886 3.493866,6.018469 1.239767,2.231583 2.592199,4.801203 4.125003,7.731564 1.532804,2.93036 3.245884,6.221278 5.418693,10.354542 2.172809,4.133263 4.805207,9.108607 7.587838,14.146602 2.782632,5.037994 5.715328,10.138336 7.439322,13.302777 1.723995,3.164441 2.23921,4.392834 2.754436,5.621251 z"
       id="path4"
       inkscape:path-effect="#path-effect5"
       inkscape:original-d="m 87.217564,-18.744126 c 0,0 34.427986,0 34.427986,0 0,0 32.13278,-58.910108 32.13278,-58.910108 0,0 0.51005,18.361591 0.76507,27.542389 1.02011,15.811688 2.04018,31.622742 3.06027,47.4341127 1.78519,12.7513603 3.57031,25.5022113 5.35546,38.2533183 0.76508,4.590489 1.53013,9.180796 2.2952,13.771192 1.78519,4.335465 3.57031,8.670753 5.35546,13.006128 0.82884,1.147622 1.65765,2.2952 2.48647,3.442801 1.02011,1.020109 2.04018,2.040175 3.06027,3.060263 3.44286,1.912705 6.88559,3.825333 10.32839,5.737998 2.8053,1.147622 5.61049,2.295199 8.41573,3.4428 3.82541,1.020109 7.65067,2.040176 11.476,3.060264 3.82541,0.510055 7.65066,1.02009 11.47599,1.530133 3.6979,0.06376 7.39564,0.12751 11.09346,0.191267 3.31536,-0.318783 6.63058,-0.637556 9.94587,-0.956334 2.19315,-0.350898 4.38622,-0.701781 6.57934,-1.052674 3.47138,-0.81149 6.94262,-1.622949 10.41393,-2.434426 2.56973,-0.991822 5.13935,-1.983605 7.70902,-2.975409 2.16398,-1.081989 4.32787,-2.163934 6.49179,-3.245903 3.11074,-1.89348 6.22131,-3.786883 9.33199,-5.680326 2.34429,-1.89348 4.68852,-3.786886 7.03278,-5.680329 1.21725,-1.081987 2.43444,-2.163934 3.65163,-3.2459 1.67401,-1.745276 3.34793,-3.490481 5.02189,-5.235721 1.84894,-2.550271 3.69782,-5.100441 5.54673,-7.650662 1.40266,-2.741544 2.80524,-5.482976 4.20788,-8.224464 1.0201,-3.124084 2.04017,-6.24804 3.06025,-9.372063 0.31879,-1.97646 0.63756,-3.952842 0.95633,-5.929263 0.12751,-2.167732 0.25504,-4.335376 0.38254,-6.503064 0.0319,-1.657677 0.0638,-3.315288 0.0956,-4.9729313 -0.1913,-2.3590017 -0.38254,-4.7179092 -0.57381,-7.0768638 -0.63756,-2.61402894 -1.27513,-5.2279534 -1.91267,-7.84193 -0.70133,-2.6140291 -1.40263,-5.2279529 -2.10394,-7.8419299 -0.72356,-1.809012 -1.44706,-3.617952 -2.17059,-5.426927 -1.35249,-2.930387 -2.70494,-5.860656 -4.05738,-8.790983 -1.30742,-2.434476 -2.61475,-4.868854 -3.92213,-7.30328 -1.46209,-2.5331 -2.9241,-5.066099 -4.38616,-7.599148 -1.43452,-1.944582 -2.86898,-3.889087 -4.3035,-5.833631 -1.17949,-1.514224 -3.53843,-4.542581 -3.53843,-4.542581 0,0 3.18778,0.892577 4.78168,1.338865 2.23147,0.541933 4.46289,1.083845 6.69433,1.625767 1.24325,0.41442 2.48645,0.828821 3.7297,1.243232 1.78003,0.531799 3.55999,1.063577 5.34,1.595366 0.99182,0.360662 1.98361,0.72131 2.9754,1.081966 3.92221,1.307404 7.84426,2.614755 11.76639,3.922133 3.02057,1.059447 6.041,2.118852 9.06148,3.178278 4.51956,1.645523 9.03893,3.290983 13.55841,4.936474 3.40376,1.397569 6.80736,2.795082 10.21107,4.192625 4.03936,1.571559 8.07857,3.143054 12.11789,4.714582 5.16429,2.295245 10.32838,4.590398 15.49257,6.885597 6.94727,3.436621 13.89425,6.873104 20.84139,10.3096557 4.50828,2.6148064 9.01639,5.229508 13.52457,7.84426209 4.50829,2.61480631 9.01639,5.22950821 13.5246,7.84426231 2.93039,1.8033147 5.86065,3.6065569 8.79097,5.4098359 3.60664,2.524641 7.21312,5.04918 10.81968,7.573771 3.4263,2.614806 6.85247,5.229508 10.27869,7.844261 3.42631,2.885305 6.85245,5.770491 10.2787,8.655738 3.78695,3.606631 7.57375,7.213116 11.36065,10.819672 3.51647,3.606631 7.03278,7.213116 10.54917,10.819673 1.50157,1.803503 3.0031,3.606935 4.50464,5.410401 2.29524,3.251596 4.59039,6.503064 6.8856,9.754597 1.59393,2.550271 3.18778,5.100442 4.78165,7.650662 1.59393,2.805301 3.18778,5.610487 4.78169,8.415729 1.27513,2.805301 2.55021,5.610487 3.82531,8.415732 0.8926,2.231484 1.78517,4.462884 2.67775,6.694324 0.41441,1.05199 0.8288,2.10394 1.24322,3.1559 0.51006,2.23149 1.0201,4.46289 1.53014,6.69434 0.51006,2.16773 1.0201,4.33537 1.53014,6.50306 0.23907,1.57798 0.47815,3.1559 0.71723,4.73385 0.19129,1.35483 0.38253,2.70961 0.5738,4.06441 0.2309,3.36476 0.46181,6.72939 0.69268,10.09408 0,1.10453 0,2.20902 0,3.31353 -0.11271,3.21215 -0.2254,6.42418 -0.33811,9.63627 -0.0451,1.66806 -0.0902,3.33606 -0.13526,5.0041 -0.31556,2.6148 -0.63113,5.2295 -0.9467,7.84426 -0.40574,2.11889 -0.81148,4.2377 -1.21722,6.35656 -0.58608,2.8853 -1.17213,5.77049 -1.75821,8.65573 -0.45082,1.71315 -0.90162,3.42623 -1.35244,5.13935 -0.8115,2.47956 -1.62295,4.95901 -2.43443,7.43852 -1.26233,3.1558 -2.5246,6.31148 -3.78688,9.46721 -0.87937,2.0783 -1.75871,4.15651 -2.63805,6.23476 -1.49831,2.90093 -2.99651,5.80175 -4.49477,8.70263 -2.23149,3.47474 -4.46288,6.94935 -6.69433,10.42403 -1.43454,2.13585 -2.86901,4.27162 -4.3035,6.40743 -2.74156,3.44286 -5.48299,6.88559 -8.22447,10.32839 -2.74156,3.06033 -5.48298,6.12053 -8.22446,9.1808 -2.42277,2.29524 -4.84542,4.5904 -7.26813,6.8856 -2.61403,2.359 -5.22796,4.7179 -7.84194,7.07687 -3.04749,2.37207 -6.09488,4.74403 -9.14233,7.11605 -6.13127,4.28289 -12.2623,8.56557 -18.39343,12.84838 -4.14764,2.47954 -8.29509,4.959 -12.44262,7.43852 -1.51302,0.90718 -3.02593,1.81435 -4.5389,2.72153 -3.15597,1.59393 -6.31182,3.18778 -9.46772,4.78165 -1.76662,0.9252 -3.53316,1.85034 -5.29973,2.77548 -3.06565,1.3525 -6.13117,2.70494 -9.19673,4.05739 -1.98364,0.85659 -3.96722,1.71312 -5.95083,2.56969 -2.85919,1.08963 -5.71828,2.17924 -8.57739,3.26887 -3.41101,1.30701 -6.82186,2.61398 -10.23276,3.92097 -3.46774,1.07471 -10.40297,3.22408 -10.40297,3.22408 0,0 2.11886,-1.75819 3.17828,-2.63729 1.44267,-1.39758 2.88526,-2.79509 4.32787,-4.19264 0.94676,-1.2623 1.89347,-2.52458 2.84017,-3.78688 0.69879,-1.08198 1.39756,-2.16392 2.09632,-3.24591 0.42828,-0.60862 0.85656,-1.21721 1.28484,-1.82581 0.90014,-1.6629 1.80026,-3.32576 2.70037,-4.98864 1.17951,-2.51838 2.35897,-5.03668 3.53843,-7.55504 0.79698,-2.29523 1.5939,-4.59039 2.39083,-6.8856 0.35068,-1.27513 0.70133,-2.55021 1.05198,-3.82532 0.31877,-1.4664 0.63754,-2.93274 0.95634,-4.39912 0.31877,-2.04022 0.63754,-4.08037 0.95631,-6.12055 0,-1.97644 0,-3.95282 0,-5.92926 -0.0637,-1.4664 -0.12751,-2.93275 -0.19127,-4.39913 -0.0479,-0.80732 -0.0959,-1.61462 -0.14377,-2.42193 -0.31557,-1.80331 -0.63114,-3.60655 -0.94674,-5.40983 -0.45082,-1.44265 -0.90162,-2.88525 -1.35244,-4.32787 -0.63116,-1.39757 -1.2623,-2.79508 -1.89344,-4.19262 -1.08199,-1.89348 -2.16395,-3.78689 -3.24591,-5.68033 -1.12707,-1.3074 -2.25409,-2.61475 -3.38116,-3.92213 -1.01436,-1.03691 -2.02867,-2.07377 -3.04303,-3.11066 -1.62298,-1.17215 -3.2459,-2.34426 -4.86883,-3.51639 -1.89349,-1.03691 -3.7869,-2.07377 -5.68034,-3.11066 -1.44264,-0.67624 -2.88526,-1.35246 -4.32787,-2.02868 -1.48773,-0.45083 -2.9754,-0.90165 -4.46312,-1.35246 -1.62298,-0.45083 -3.24589,-0.90164 -4.86884,-1.35246 -2.34431,-0.40575 -4.68852,-0.81148 -7.03278,-1.21722 -2.02875,-0.0902 -4.05739,-0.18032 -6.08608,-0.27049 -2.02872,0.0451 -4.05739,0.0902 -6.08605,0.13525 -2.82372,0.31436 -5.6473,0.62871 -8.47093,0.94307 -3.63413,0.89259 -7.26813,1.78515 -10.90218,2.67773 -2.61403,1.02011 -5.22796,2.04018 -7.84193,3.06027 -2.99657,1.40265 -5.99303,2.80524 -8.98954,4.20786 -3.3791,2.10398 -6.75809,4.20787 -10.13714,6.3118 -2.00832,1.35483 -4.01659,2.70961 -6.02488,4.06441 -2.10399,1.65768 -4.20788,3.31529 -6.31179,4.97294 -2.04023,1.88082 -4.08037,3.76157 -6.12054,5.64236 -2.10398,1.94458 -4.20787,3.88909 -6.3118,5.83363 -1.2592,1.46641 -3.77752,4.39913 -3.77752,4.39913 0,0 -0.38253,-1.7214 -0.5738,-2.5821 -0.51005,-1.43453 -1.02009,-2.869 -1.53013,-4.3035 -1.27514,-2.39088 -2.55022,-4.78166 -3.82533,-7.17249 -1.68956,-1.84895 -3.37904,-3.69782 -5.06857,-5.54673 -1.54245,-1.37168 -3.08483,-2.74329 -4.62725,-4.11494 -1.62299,-1.01436 -3.2459,-2.02869 -4.86886,-3.04303 -1.42011,-0.72133 -2.84016,-1.44263 -4.26024,-2.16394 -1.64553,-0.63116 -3.29098,-1.26229 -4.93648,-1.89344 -1.53929,-0.40567 -3.07852,-0.81132 -4.61778,-1.21698 -1.84895,-0.35066 -3.69782,-0.70131 -5.54673,-1.05197 -1.84895,-0.25502 -3.69782,-0.51004 -5.54674,-0.76506 -0.98822,-0.11158 -1.97641,-0.22315 -2.96462,-0.33472 -1.29905,-0.0717 -2.59804,-0.14345 -3.89706,-0.21517 -1.64174,0 -3.28341,0 -4.92512,0 -1.13168,0.0956 -2.26332,0.19126 -3.39498,0.28689 -0.51005,0.0797 -1.02009,0.15939 -1.53013,0.23909 -0.81217,0.14021 -1.62431,0.28042 -2.43647,0.42063 -1.1158,0.23668 -2.23155,0.47336 -3.34733,0.71004 -0.77768,0.15779 -1.55533,0.31557 -2.33299,0.47336 -1.03691,0.36066 -2.07378,0.72131 -3.11066,1.08196 -0.45083,0.18034 -0.90164,0.36066 -1.35246,0.54099 -0.80586,0.3832 -1.61168,0.76639 -2.41752,1.14959 -0.72133,0.37193 -1.44262,0.74385 -2.16393,1.11578 -0.61989,0.33812 -1.23976,0.67623 -1.85964,1.01434 -0.58607,0.37193 -1.17213,0.74385 -1.75819,1.11578 -0.82277,0.50718 -1.6455,1.01434 -2.46824,1.52152 -0.50322,0.31113 -1.00643,0.62224 -1.50964,0.93337 -0.71726,0.57381 -1.4345,1.1476 -2.15175,1.72139 -0.96432,0.73321 -1.92861,1.46638 -2.89291,2.19957 -0.84079,0.82486 -1.68155,1.64968 -2.52232,2.47451 -0.79696,0.70133 -1.59389,1.40262 -2.39084,2.10394 -0.95635,1.0201 -1.91266,2.04017 -2.869,3.06026 -1.11574,1.11574 -2.23144,2.23144 -3.34716,3.34717 -0.63757,0.86071 -1.27511,1.72139 -1.91267,2.58209 -1.29107,1.57799 -2.5821,3.1559 -3.87315,4.73385 -1.53016,2.1996 -3.06026,4.39914 -4.59039,6.5987 -1.43453,2.23149 -2.869,4.46288 -4.3035,6.69433 -0.98823,1.75331 -1.97642,3.50655 -2.96463,5.25983 -0.785,1.42489 -1.56995,2.84972 -2.35493,4.27459 -1.53282,3.15581 -3.06557,6.31147 -4.59836,9.46721 -0.99755,2.25724 -1.99505,4.51437 -2.99258,6.77153 -1.1795,2.61403 -2.35895,5.22796 -3.53843,7.84194 -0.77588,2.16167 -1.55173,4.32326 -2.3276,6.48491 -0.85657,2.38937 -1.71311,4.77866 -2.56967,7.16801 -0.58608,1.66807 -1.17213,3.33608 -1.7582,5.00412 -0.6027,1.95768 -1.20538,3.91527 -1.80807,5.8729 -0.57382,2.2315 -1.7214,6.69433 -1.7214,6.69433 0,0 -2.04018,-6.50306 -3.06027,-9.75458 -1.46641,-4.59049 -2.932753,-9.1808 -4.399132,-13.77122 -1.912702,-4.78176 -3.82533,-9.56331 -5.737998,-14.34499 -1.562042,-3.53849 -3.12402,-7.07687 -4.68603,-10.6153 -2.741544,-5.16429 -5.482976,-10.32838 -8.224464,-15.49257 -0.828837,-1.40266 -1.657644,-2.80524 -2.486464,-4.20788 -2.359002,-3.3791 -4.71791,-6.75809 -7.076864,-10.13712 -2.99657,-3.44287 -5.993021,-6.8856 -8.98953,-10.3284 -2.932814,-2.86906 -5.865509,-5.738 -8.798264,-8.607 -3.442867,-2.29524 -6.885596,-4.59039 -10.328394,-6.88559 -1.338895,-0.63757 -2.677734,-1.27511 -4.0166,-1.91267 -2.582151,-0.95635 -5.164198,-1.91266 -7.746296,-2.869 -1.912705,-0.51005 -3.825331,-1.02009 -5.737997,-1.53013 -2.677786,-0.19127 -5.355465,-0.38253 -8.033197,-0.5738 -2.167731,0.0638 -4.335376,0.12751 -6.503064,0.19127 -2.7415423,0.31878 -5.4829754,0.63755 -8.22446307,0.95633 -2.04021773,0.38254 -4.08035373,0.76507 -6.12053073,1.1476 -2.614029,0.82884 -5.2279532,1.65764 -7.8419302,2.48646 -1.299896,0.57139 -2.59974,1.14276 -3.89961,1.71413 -1.5779,0.90166 -3.155737,1.80328 -4.733606,2.70492 -1.622983,1.12707 -3.245902,2.2541 -4.868852,3.38115 -1.217237,1.12707 -2.434426,2.2541 -3.651639,3.38115 -1.08199,1.26232 -2.163935,2.52459 -3.245903,3.78688 -0.811491,1.44266 -1.622949,2.88525 -2.434426,4.32787 -0.631158,1.35249 -1.262296,2.70492 -1.893443,4.05738 -0.450829,1.35248 -0.901639,2.70492 -1.352458,4.05738 -0.04508,0.72132 -0.135247,2.16393 -0.135247,2.16393 0,0 -1.713113,-1.71311 -2.56967,-2.56967 -1.352486,-1.39757 -2.70492,-2.79509 -4.057377,-4.19262 -0.991825,-0.90166 -1.983608,-1.80328 -2.975412,-2.70492 -2.788367,-2.55847 -5.576625,-5.11683 -8.364939,-7.67525 -3.060325,-2.359 -6.12053,-4.71791 -9.180796,-7.07686 -2.932814,-1.72144 -5.865508,-3.4428 -8.798264,-5.1642 -2.677784,-1.4664 -5.355462,-2.93275 -8.033194,-4.39913 -2.61403,-1.08387 -5.227955,-2.16769 -7.841932,-3.25153 -3.506624,-1.02011 -7.013107,-2.04018 -10.519664,-3.06027 -3.50662,-0.70132 -7.0131,-1.40262 -10.51966,-2.10393 -1.9127,-0.0638 -3.82533,-0.12751 -5.738,-0.19127 -2.29221,0.0418 -4.58433,0.0835 -6.8765,0.12531 -2.8853,0.45083 -5.77049,0.90164 -8.65574,1.35245 -2.6148,0.67625 -5.22951,1.35246 -7.84426,2.02869 -1.35249,0.541 -2.70492,1.08197 -4.05738,1.62295 -1.35912,0.71293 -2.71819,1.42582 -4.07729,2.13873 -1.81707,1.08387 -3.63406,2.16769 -5.45109,3.25153 -1.37078,1.17951 -2.74149,2.35896 -4.11224,3.53844 -0.89259,0.89259 -1.78515,1.78515 -2.67773,2.67773 -0.98823,1.27514 -1.97642,2.55022 -2.96463,3.82533 -0.86072,1.46641 -1.7214,2.93276 -2.5821,4.39913 -0.66944,1.37077 -1.33886,2.74149 -2.0083,4.11224 -0.35066,0.92447 -0.70131,1.8489 -1.05196,2.77336 -0.38254,1.43453 -0.76507,2.869 -1.14761,4.3035 -0.22314,2.07209 -0.44628,4.14411 -0.66943,6.21616 -0.0319,2.58216 -0.0637,5.1642 -0.0956,7.74629 0.0319,1.27514 0.0637,2.55024 0.0956,3.82535 0.16823,1.10985 0.33645,2.21967 0.50468,3.32952 0.36066,1.71315 0.72131,3.42622 1.08197,5.13934 0.54099,1.8033 1.08196,3.60656 1.62295,5.40983 0.63116,1.89349 1.26229,3.78688 1.89344,5.68034 0.80141,1.68886 1.60278,3.3777 2.40417,5.06653 0.73321,1.65767 1.46638,3.31528 2.19957,4.97293 0.79696,1.27513 1.59389,2.55024 2.39083,3.82534 1.43453,2.10397 2.869,4.20786 4.3035,6.3118 1.16356,1.09979 2.32708,2.19956 3.49062,3.29935 1.9127,1.72143 5.738,5.16419 5.738,5.16419 0,0 -2.99651,-0.82883 -4.49477,-1.24322 -1.9127,-0.70134 -3.82533,-1.40264 -5.738,-2.10394 -2.07209,-0.73322 -4.14411,-1.46638 -6.21616,-2.19956 -1.53017,-0.60569 -3.06027,-1.21137 -4.5904,-1.81703 -3.36317,-1.27516 -6.72621,-2.55024 -10.08931,-3.82535 -3.41099,-1.53016 -6.82184,-3.06027 -10.23276,-4.59039 -1.59393,-0.73321 -3.18778,-1.46637 -4.78167,-2.19956 -1.68956,-0.89259 -3.37904,-1.78517 -5.06856,-2.67774 -2.86906,-1.49828 -5.738,-2.99651 -8.607,-4.49477 -1.75331,-1.0201 -3.50655,-2.04017 -5.25983,-3.06027 -1.75331,-0.98822 -3.50656,-1.97641 -5.25983,-2.96463 -2.55027,-1.53017 -5.10044,-3.06025 -7.65066,-4.59039 -1.37078,-0.8926 -2.74149,-1.78514 -4.11224,-2.67774 -1.62171,-1.24008 -3.24337,-2.4801 -4.86505,-3.72015 -1.66807,-1.17216 -3.33607,-2.34426 -5.0041,-3.51639 -0.87911,-0.65371 -1.7582,-1.30739 -2.63729,-1.96107 -2.36618,-1.68394 -4.73225,-3.36783 -7.09838,-5.05174 -4.17607,-3.85728 -8.35198,-7.71442 -12.52796,-11.57163 -1.97647,-2.04022 -3.95285,-4.08036 -5.92926,-6.12053 -3.31536,-3.6979 -6.63059,-7.39564 -9.94587,-11.09347 -2.16773,-2.86905 -4.33538,-5.73799 -6.50306,-8.60699 -1.53016,-2.23149 -3.06028,-4.46289 -4.59041,-6.69433 -1.53014,-2.42276 -3.06025,-4.84542 -4.59039,-7.26813 -1.65767,-3.31536 -3.31528,-6.63058 -4.97293,-9.94586 -2.32711,-5.6106 -4.65415,-11.22098 -6.98124,-16.83146 -1.21137,-3.50663 -2.42271,-7.01311 -3.63405,-10.51967 -0.25503,-1.33889 -0.51006,-2.67773 -0.76507,-4.0166 -0.38253,-2.359 -0.76507,-4.71791 -1.1476,-7.07686 -0.57381,-3.18784 -1.14761,-6.37555 -1.72141,-9.56333 -0.1275,-2.93281 -0.255,-5.86551 -0.38253,-8.79826 -0.12767,-4.29959 -0.25533,-8.59901 -0.38299,-12.89852 0.0901,-3.1558 0.18032,-6.31147 0.27049,-9.46721 0.45082,-2.8853 0.90164,-5.77049 1.35247,-8.65574 0.99181,-3.69679 1.98358,-7.39344 2.97539,-11.09016 0.95385,-2.76243 1.90768,-5.52475 2.8615,-8.28712 1.84896,-4.016674 3.69782,-8.033192 5.54675,-12.049792 1.9127,-3.442867 3.82532,-6.885596 5.73799,-10.328394 2.10397,-3.251599 4.20786,-6.503064 6.3118,-9.754597 2.96349,-3.883335 5.92688,-7.766513 8.89031,-11.649771 2.97548,-3.065634 5.95083,-6.131147 8.92625,-9.196721 3.87713,-3.696795 7.75409,-7.393442 11.63114,-11.090163 3.96729,-3.336132 7.93443,-6.672131 11.90164,-10.008198 6.0411,-4.373037 12.08197,-8.745901 18.12295,-13.118851 6.3116,-4.057458 12.62295,-8.1147544 18.93443,-12.1721313 6.22143,-3.42629809 12.44262,-6.852459 18.66393,-10.2786885 9.37724,-4.5082872 18.7541,-9.0163932 28.13115,-13.5245902 8.16,-3.381215 16.31967,-6.762294 24.47951,-10.143441 7.84442,-3.065637 15.68852,-6.13115 23.53278,-9.196724 5.04928,-1.622983 10.09836,-3.2459 15.147542,-4.868851 4.86895,-1.532816 9.737707,-3.065574 14.606558,-4.598361 3.967293,-1.08199 11.901639,-3.2459 11.901639,-3.2459 0,0 -2.163935,2.885244 -3.245901,4.327869 -1.532818,1.983644 -3.065573,3.967212 -4.59836,5.950817 -1.713151,2.795138 -3.42623,5.590165 -5.139346,8.385247 -1.372219,2.517362 -2.744385,5.034621 -4.116578,7.551932 -1.530162,3.825408 -3.060266,7.650663 -4.590399,11.475995 -1.147622,3.315354 -2.295197,6.6305751 -3.442798,9.9458627 -0.510053,3.0603266 -1.020088,6.1205308 -1.530133,9.1807963 -0.128556,2.3843112 -0.257109,4.7685272 -0.385665,7.15279 -0.09016,2.254144 -0.180326,4.508197 -0.270491,6.762296 0.360661,2.704972 0.721312,5.409836 1.081966,8.114754 0.721325,2.163977 1.442624,4.327869 2.163934,6.491803 1.172155,2.885303 2.344264,5.770491 3.516395,8.655738 1.622983,2.524641 3.2459,5.049179 4.868852,7.573769 1.25087,1.563786 2.50169,3.127508 3.752537,4.691261 1.976462,1.912705 3.952843,3.825333 5.929265,5.737998 2.805298,2.295247 5.610487,4.590399 8.415729,6.885598 3.251597,2.103975 6.503064,4.207865 9.754595,6.311797 2.99657,1.402649 5.993021,2.805245 8.989531,4.207865 4.080435,1.147622 8.160707,2.295199 12.241061,3.4428 2.932814,0.57381 5.865508,1.147599 8.798264,1.721398 3.634137,0.318783 7.268129,0.637556 10.902194,0.956334 3.251597,0.06376 6.503064,0.12751 9.7545962,0.191267 3.3153538,-0.382543 6.630575,-0.765067 9.94586255,-1.147601 C 4.2079375,81.128893 7.84193,80.300088 11.475995,79.471268 c 3.952922,-1.530165 7.905686,-3.060266 11.858529,-4.590399 2.996569,-1.530163 5.993019,-3.060266 8.989529,-4.590399 1.466405,-1.338893 2.932755,-2.677732 4.399132,-4.016598 1.083865,-1.593921 2.167688,-3.187776 3.25153,-4.781663 0.765083,-1.976462 1.530133,-3.952844 2.2952,-5.929265 0.924475,-3.538503 1.848911,-7.076863 2.773365,-10.615295 0.573812,-2.932814 1.147601,-5.865511 1.7214,-8.798264 0.765083,-4.845518 1.530133,-9.69084 2.2952,-14.536261 0.510053,-3.825408 1.020088,-7.650663 1.530133,-11.475995 0.57381,-6.1844099 1.147598,-12.3685725 1.721397,-18.5528588 0.63757,-7.0132482 1.275112,-14.0262162 1.912668,-21.0393242 0.386379,-7.808854 0.772745,-15.617396 1.159118,-23.426092 0.247955,-7.821879 0.743853,-23.465165 0.743853,-23.465165 0,0 2.254099,3.786886 3.381147,5.680329 1.352487,2.569723 2.704918,5.139343 4.057378,7.709016 1.713147,3.291049 3.426229,6.581966 5.139343,9.872951 2.632503,4.975542 5.264901,9.950886 7.897352,14.926331 2.932811,5.100545 5.865508,10.200886 8.798261,15.301327 0.515236,1.228441 1.545677,3.685251 1.545677,3.685251 z"
       transform="translate(-562.54832,325.0142)" /></g></svg>
