<?xml version="1.0" encoding="UTF-8" standalone="no"?>
<!-- Created with Inkscape (http://www.inkscape.org/) -->

<svg
   version="1.1"
   id="svg1"
   width="420.89276"
   height="517.66803"
   viewBox="0 0 420.89276 517.66803"
   sodipodi:docname="logoApple1.svg"
   inkscape:version="1.3.2 (091e20e, 2023-11-25, custom)"
   xmlns:inkscape="http://www.inkscape.org/namespaces/inkscape"
   xmlns:sodipodi="http://sodipodi.sourceforge.net/DTD/sodipodi-0.dtd"
   xmlns="http://www.w3.org/2000/svg"
   xmlns:svg="http://www.w3.org/2000/svg">
  <sodipodi:namedview
     id="namedview1"
     pagecolor="#ffffff"
     bordercolor="#000000"
     borderopacity="0.25"
     inkscape:showpageshadow="2"
     inkscape:pageopacity="0.0"
     inkscape:pagecheckerboard="0"
     inkscape:deskcolor="#d1d1d1"
     inkscape:zoom="1.4142136"
     inkscape:cx="304.76302"
     inkscape:cy="261.98306"
     inkscape:window-width="1366"
     inkscape:window-height="745"
     inkscape:window-x="-8"
     inkscape:window-y="-8"
     inkscape:window-maximized="1"
     inkscape:current-layer="svg1" />
  <defs
     id="defs1" />
  <g
     id="g1"
     transform="translate(-676.15198,-321.35662)">
    <path
       style="fill:#000000"
       d="m 790.06876,447.84648 c 1.17469,-0.19575 2.46872,-0.38014 4.16981,-0.53903 1.98794,-0.18568 3.3031,-0.11715 5.73237,-0.11715 4.50802,0 9.53109,0.51519 14.3611,1.0948 4.83001,0.5796 9.46668,1.22358 13.71709,2.06079 4.25041,0.8372 8.1143,1.86758 12.10711,3.09118 3.99281,1.2236 8.1143,2.64036 12.23591,4.12157 4.12161,1.4812 8.2431,3.02676 12.68672,4.82997 4.44361,1.80321 9.20908,3.86395 12.81548,5.15194 3.60639,1.288 6.05353,1.80318 8.11433,2.06078 2.0608,0.2576 3.73515,0.2576 6.36698,0.0443 2.63183,-0.21328 6.22094,-0.63984 9.17676,-1.12635 2.95583,-0.48651 5.27818,-1.03295 7.62338,-1.82986 2.3452,-0.79692 4.71309,-1.84425 7.90075,-3.25593 3.18765,-1.41167 7.19485,-3.18759 10.95172,-4.71311 3.75687,-1.52551 7.26317,-2.80053 10.70127,-4.03005 3.43811,-1.22952 6.8078,-2.41347 10.15483,-3.34699 3.34703,-0.93352 6.67119,-1.61657 10.20037,-2.41348 3.52918,-0.79692 7.26317,-1.70764 10.45081,-2.16302 3.18764,-0.45537 6.77168,-0.6911 9.23072,-0.6911 1.75184,0 3.67507,-10e-6 6.34841,-0.0724 2.73165,-0.074 4.44793,-0.0334 7.04214,0.0643 2.77244,0.10443 4.54032,0.10443 6.52925,0.29064 1.74693,0.16356 5.90793,0.73532 7.84333,1.07685 1.9353,0.34153 3.1245,0.65224 6.4488,1.563 3.3243,0.91077 7.6047,2.18578 11.6575,3.64299 4.0529,1.45721 7.878,3.09654 11.4755,4.78142 3.5974,1.68489 6.9671,3.41528 9.5628,4.78141 2.5956,1.36612 4.4171,2.36794 6.5346,3.52915 2.1175,1.16121 5.2381,3.18896 7.6288,4.85111 2.3908,1.66214 4.0515,2.95855 6.2373,4.96221 2.1858,2.00365 4.1894,4.00724 6.4208,6.51182 2.2313,2.50458 4.7774,5.43907 6.8761,8.10566 1.9501,2.47778 5.1297,6.8735 3.7356,6.86731 1.4641,-0.8018 -3.4722,2.77531 -6.228,5.23276 -2.254,1.77039 -4.1544,3.30504 -6.1083,5.46184 -1.9044,2.10218 -4.3148,3.99275 -6.44,6.15016 -2.1252,2.1574 -4.2503,4.28253 -6.4795,6.7915 -2.2291,2.50896 -4.5621,5.40157 -6.8215,8.71496 -2.2594,3.31338 -4.4452,7.04738 -6.2667,10.46271 -1.8215,3.41533 -3.7502,6.39394 -5.2985,9.53606 -1.5483,3.14211 -2.7161,6.44753 -3.9,9.08871 -1.184,2.64118 -1.9126,4.73586 -2.5957,6.83059 -0.683,2.09474 -1.3206,4.1894 -1.7853,7.10327 -0.4648,2.91388 -0.7569,6.64674 -1.0317,10.38083 -0.2748,3.73409 -0.5324,7.46919 -0.5968,10.52819 -0.064,3.059 0.064,5.44173 0.2482,7.94632 0.1837,2.50459 0.4224,5.13088 0.6784,7.94681 0.2559,2.81594 0.5292,5.82133 1.1212,8.96344 0.5919,3.14211 1.5027,6.42073 2.459,9.92714 0.9563,3.50642 1.9581,7.2404 3.6885,11.11112 1.7304,3.87071 3.6893,8.54468 6.0573,12.27877 2.3679,3.7341 3.8536,5.431 5.6702,8.41879 1.4447,2.37612 3.2998,4.21135 4.3244,5.69133 1.0246,1.47997 2.2996,3.11926 3.8935,4.89524 1.5938,1.77599 3.5063,3.6885 5.1457,5.28232 1.6393,1.59383 3.0054,2.86886 5.0546,4.55376 2.0492,1.68491 4.7814,3.7796 7.9235,6.01094 3.1421,2.23135 6.694,4.59926 9.6539,6.32968 2.96,1.73043 5.3279,2.82335 7.3315,3.7796 1.2401,0.59187 2.3406,1.13149 3.1073,1.79136 0.2699,0.23233 0.4985,0.47959 0.6771,0.74932 0.1338,0.20199 0.2396,0.41658 0.3139,0.64694 0.4553,1.4117 -0.2732,3.41528 -1.0018,5.41892 -1.0018,2.55009 -2.0036,5.10018 -3.4153,8.37892 -1.4116,3.27874 -3.2331,7.28592 -5.1002,11.24771 -1.867,3.96179 -3.7795,7.87791 -5.6011,11.65755 -1.8215,3.77965 -3.5519,7.42253 -5.1912,10.79234 -1.6394,3.3698 -3.1876,6.46627 -5.6922,10.61022 -2.5046,4.14396 -5.9654,9.33513 -9.1985,14.25319 -3.2332,4.91807 -6.2386,9.56278 -9.153,13.84335 -2.9145,4.28057 -5.7377,8.19668 -8.9481,12.11292 -3.2104,3.91624 -6.8078,7.83238 -9.7678,11.08832 -2.9599,3.25595 -5.2823,5.85154 -7.8096,8.19674 -2.5274,2.34519 -5.2596,4.43988 -7.7186,6.28414 -2.459,1.84426 -4.6448,3.43806 -7.5365,4.91803 -2.8916,1.47998 -6.489,2.84609 -9.32,3.80878 -2.83095,0.96269 -4.89537,1.52193 -7.11902,2.02696 -2.22365,0.50503 -4.60638,0.95581 -7.6976,1.34222 -3.09121,0.3864 -6.89071,0.70839 -10.04631,0.74059 -3.1556,0.0322 -5.66713,-0.2254 -8.72615,-0.6762 -3.05901,-0.45081 -6.66531,-1.09479 -10.59373,-2.31839 -3.92841,-1.22361 -8.17869,-3.02676 -13.07311,-4.87827 -4.89442,-1.8515 -10.43267,-3.75125 -15.16607,-5.44176 -4.73341,-1.6905 -8.6617,-3.17166 -12.75112,-4.23426 -4.08941,-1.0626 -8.33969,-1.70658 -12.4291,-1.86757 -4.08941,-0.161 -7.8409,-0.13368 -11.2219,0.0917 -3.38101,0.2254 -6.39133,0.64887 -9.32154,1.09967 -2.93021,0.45081 -5.95692,1.22359 -9.46673,2.28619 -3.50982,1.06261 -7.50251,2.41497 -11.46312,3.73517 -3.96061,1.32021 -7.8889,2.60817 -11.12987,3.80274 -3.24097,1.19456 -5.79444,2.29567 -8.73334,3.48377 -2.93891,1.18809 -6.26306,2.46311 -9.04086,3.37386 -2.7778,0.91076 -5.00909,1.45719 -7.4909,1.93534 -2.48181,0.47814 -5.214,0.88797 -7.58334,1.26205 -2.36933,0.37409 -4.37569,0.7124 -6.4737,0.88156 -2.09801,0.16916 -4.28755,0.16916 -6.54155,0.0404 -2.25401,-0.12881 -4.57235,-0.3864 -7.27716,-1.22361 -2.70481,-0.8372 -5.79593,-2.25397 -8.91933,-3.76737 -3.12341,-1.5134 -6.27893,-3.12336 -9.24133,-4.95877 -2.96241,-1.83541 -5.73153,-3.89615 -10.11076,-7.85678 -4.37923,-3.96063 -10.36826,-9.82086 -15.97108,-15.87448 -5.60281,-6.05362 -10.81906,-12.30025 -16.1113,-19.5375 -5.29225,-7.23725 -10.66015,-15.46466 -15.30231,-22.99382 -4.64215,-7.52916 -8.55828,-14.35962 -13.24868,-23.99089 -4.6904,-9.63128 -10.15477,-22.06272 -13.57008,-30.37333 -3.41532,-8.3106 -4.78141,-12.49996 -6.0205,-16.73863 -1.2391,-4.23867 -2.35112,-8.52641 -3.35795,-12.79555 -1.00683,-4.26914 -1.90841,-8.51943 -2.74561,-12.44783 -0.8372,-3.92841 -1.60998,-7.53471 -2.42467,-12.37314 -0.81468,-4.83843 -1.67122,-10.90868 -2.32718,-16.35739 -0.65597,-5.44872 -1.11134,-10.27558 -1.52118,-15.64904 -0.40983,-5.37347 -0.77412,-12.12664 -0.95627,-16.54379 -0.0984,-2.38753 -0.14369,-5.26684 -0.11414,-7.22533 0.0251,-1.66492 0.10429,-2.43325 0.25076,-4.12811 0.31877,-3.68857 0.60273,-8.22176 1.24025,-13.00323 0.63753,-4.78147 1.62859,-8.64411 2.53935,-14.06311 0.91076,-5.419 2.09471,-11.15659 3.50638,-16.25682 1.41168,-5.10023 3.05099,-9.5628 4.64481,-13.75227 1.59382,-4.18947 3.14206,-8.10561 4.68409,-11.68698 1.54202,-3.58137 3.07775,-6.82777 5.32684,-10.67284 2.2491,-3.84506 5.21142,-8.28854 7.98063,-12.15254 2.7692,-3.864 5.34513,-7.14831 7.37373,-9.85312 2.0286,-2.7048 3.91055,-4.84015 5.25774,-6.37826 1.50214,-1.71502 2.25486,-2.20067 3.97476,-3.9012 1.63862,-1.62014 4.06339,-3.5062 6.59074,-5.53263 2.52735,-2.02644 5.21401,-4.12111 7.58197,-5.87432 2.36796,-1.7532 4.4171,-3.16483 6.62568,-4.55373 2.20859,-1.38891 4.57648,-2.755 7.01275,-4.12113 2.43628,-1.36614 4.94078,-2.73223 7.49089,-3.91621 2.55012,-1.18398 5.00652,-2.32042 7.72394,-3.38919 2.46038,-0.96768 5.96404,-2.1369 8.9923,-3.15012 3.02827,-1.01322 4.6382,-1.45786 6.76331,-2.15286 1.06657,-0.34882 2.21102,-0.63731 3.32051,-0.89183 1.10114,-0.25261 2.16651,-0.47176 3.43543,-0.68321 z"
       id="path2"
       sodipodi:nodetypes="sssssssssssssssssssssssssssssssssccsssssscccsccccsssssssssssssscssssssssssssssssssssssssssssssssssssssssssssssssssssssssssssssssssssssss" />
    <path
       style="fill:#000000"
       d="m 888.32705,438.91496 c -0.3864,-2.54378 -0.3864,-7.82454 -0.2576,-12.07494 0.1288,-4.2504 0.38639,-7.47031 0.9016,-10.43271 0.5152,-2.96241 1.28798,-5.66714 2.25399,-9.01595 0.966,-3.34882 2.12517,-7.34151 3.67078,-11.26992 1.5456,-3.92841 3.47755,-7.79231 5.47396,-11.78512 1.9964,-3.99281 4.05715,-8.1143 6.50436,-11.97831 2.44721,-3.864 5.28073,-7.4703 7.56922,-10.19745 2.2885,-2.72714 4.03184,-4.57498 6.08753,-6.63737 2.05568,-2.0624 4.42357,-4.33922 7.24692,-6.66165 2.82335,-2.32242 6.10197,-4.69032 9.42623,-6.96721 3.32426,-2.27689 6.69396,-4.46264 9.5173,-6.19307 2.82333,-1.73043 5.10016,-3.00545 7.37705,-4.09835 2.27689,-1.09291 4.55371,-2.00364 6.73952,-2.82332 2.18581,-0.81967 4.28049,-1.54826 6.32969,-2.23133 2.0492,-0.68306 4.0528,-1.32057 5.87431,-1.82149 1.82151,-0.50091 3.46082,-0.8652 5.32787,-1.27504 1.86706,-0.40984 3.96173,-0.86521 5.72632,-1.20674 1.76459,-0.34153 3.19898,-0.56921 4.5082,-0.75136 1.30921,-0.18216 2.49315,-0.31877 3.19898,0.52369 0.70583,0.84246 0.93351,2.66392 1.1612,4.48541 0,1.95811 0,3.91621 -0.0455,5.57834 -0.0455,1.66213 -0.13661,3.02822 -0.27322,4.73589 -0.13661,1.70767 -0.31876,3.75681 -0.47814,5.57832 -0.15938,1.82151 -0.29599,3.41529 -0.53506,5.14573 -0.23908,1.73043 -0.5806,3.59742 -1.02459,5.46447 -0.444,1.86705 -0.99044,3.73405 -1.58243,5.78325 -0.59199,2.0492 -1.22951,4.28049 -1.86704,6.48907 -0.63752,2.20858 -1.46254,4.39433 -2.19114,6.28414 -0.7286,1.88982 -1.54826,3.4836 -2.39042,5.15013 -0.84217,1.66652 -1.51929,3.4057 -2.56342,5.43452 -1.04413,2.02882 -2.26769,4.34716 -3.55569,6.63337 -1.28801,2.2862 -2.64037,4.54014 -3.79957,6.37554 -1.15921,1.8354 -2.12518,3.25216 -3.15558,4.63677 -1.03041,1.3846 -2.12518,2.73696 -3.72426,4.49666 -1.59908,1.7597 -3.70237,3.92662 -5.75588,5.8981 -2.05351,1.97147 -4.05711,3.7474 -6.15299,5.44921 -2.09588,1.70181 -4.28392,3.32942 -6.55328,4.96435 -2.26935,1.63493 -4.61988,3.27708 -6.66459,4.67778 -2.0447,1.40071 -3.78345,2.55987 -5.75571,3.67078 -1.97226,1.1109 -4.1779,2.17347 -6.82636,3.34877 -2.64846,1.17531 -5.73958,2.46327 -8.44438,3.55807 -1.3427,0.54348 -2.97442,1.2731 -4.19539,1.63236 -1.30629,0.38435 -1.98271,0.61117 -3.12595,0.88743 -0.95404,0.23055 -1.40573,0.37444 -2.62653,0.58024 -1.07804,0.18174 -2.74089,0.46043 -4.47763,0.73174 -2.68769,0.41987 -6.17472,0.79739 -8.75072,1.02279 -1.44596,0.12652 -2.61022,0.22663 -3.59261,0.26944 -0.76777,0.0335 -1.08072,0.0701 -2.01774,0.0924 -1.36575,0.0324 -2.12518,0.38639 -2.51157,-2.15739 z"
       id="path3"
       sodipodi:nodetypes="sssssssssssssssssssscssssssssssssssssssssssssssssss" />
  </g>
</svg>
