<?xml version="1.0" encoding="UTF-8" standalone="no"?>
<!-- Created with Inkscape (http://www.inkscape.org/) -->

<svg
   version="1.1"
   id="svg1"
   width="1600"
   height="1198"
   viewBox="0 0 1600 1198"
   sodipodi:docname="x_logo_nike.jpg"
   xmlns:inkscape="http://www.inkscape.org/namespaces/inkscape"
   xmlns:sodipodi="http://sodipodi.sourceforge.net/DTD/sodipodi-0.dtd"
   xmlns="http://www.w3.org/2000/svg"
   xmlns:svg="http://www.w3.org/2000/svg">
  <defs
     id="defs1">
    <inkscape:path-effect
       effect="bspline"
       id="path-effect5"
       is_visible="true"
       lpeversion="1.3"
       weight="33.333333"
       steps="2"
       helper_size="0"
       apply_no_weight="true"
       apply_with_weight="true"
       only_selected="false"
       uniform="false" />
    <inkscape:path-effect
       effect="bspline"
       id="path-effect3"
       is_visible="true"
       lpeversion="1.3"
       weight="33.333333"
       steps="2"
       helper_size="0"
       apply_no_weight="true"
       apply_with_weight="true"
       only_selected="false"
       uniform="false" />
    <inkscape:path-effect
       effect="bspline"
       id="path-effect2"
       is_visible="true"
       lpeversion="1.3"
       weight="33.333333"
       steps="2"
       helper_size="0"
       apply_no_weight="true"
       apply_with_weight="true"
       only_selected="false"
       uniform="false" />
  </defs>
  <sodipodi:namedview
     id="namedview1"
     pagecolor="#ffffff"
     bordercolor="#000000"
     borderopacity="0.25"
     inkscape:showpageshadow="2"
     inkscape:pageopacity="0.0"
     inkscape:pagecheckerboard="0"
     inkscape:deskcolor="#d1d1d1" />
  <g
     inkscape:groupmode="layer"
     inkscape:label="Image"
     id="g1">
    <path
       id="path1-3"
       style="fill:#000000;fill-opacity:1;stroke-width:1.007"
       d="m 377.37194,700.32334 a 17.779682,17.247488 0 0 0 -17.7793,17.24804 17.779682,17.247488 0 0 0 17.7793,17.24805 17.779682,17.247488 0 0 0 17.7793,-17.24805 17.779682,17.247488 0 0 0 -17.7793,-17.24804 z m 0.022,4.18359 a 12.834627,12.920565 0 0 1 12.834,12.91992 12.834627,12.920565 0 0 1 -12.834,12.91992 12.834627,12.920565 0 0 1 -12.834,-12.91992 12.834627,12.920565 0 0 1 12.834,-12.91992 z" />
    <text
       xml:space="preserve"
       style="font-style:normal;font-variant:normal;font-weight:normal;font-stretch:normal;font-size:23.4315px;font-family:Arial;-inkscape-font-specification:Arial;fill:#000000;fill-opacity:1;stroke-width:1.95263"
       x="385.29471"
       y="695.65515"
       id="text2"
       transform="scale(0.95743822,1.0444538)"><tspan
         sodipodi:role="line"
         id="tspan2"
         x="385.29471"
         y="695.65515"
         style="font-style:normal;font-variant:normal;font-weight:bold;font-stretch:normal;font-family:Arial;-inkscape-font-specification:'Arial Bold';fill:#000000;fill-opacity:1;stroke-width:1.95263">R</tspan></text>
    <path
       style="fill:#000000;fill-opacity:1"
       d="m 459.23089,314.31285 c 0,0 -121.99535,326.35698 -121.99535,326.35698 0,0 79.25813,0 79.25813,0 0,0 55.16986,-149.19176 55.16986,-149.19176 0,0 -8.54744,149.19176 -8.54744,149.19176 0,0 84.69741,0 84.69741,0 0,0 126.65758,-338.01259 126.65758,-338.01259 0,0 -79.25812,0 -79.25812,0 0,0 -56.72395,152.29993 -56.72395,152.29993 0,0 9.32449,-151.52289 9.32449,-151.52289 0,0 -84.69741,0 -84.69741,0 z m 226.20867,-10.87878 c 26.4652,0 52.93041,0 79.39561,0"
       id="path2"
       inkscape:path-effect="#path-effect2"
       inkscape:original-d="m 459.23089,314.31285 c 0,0 -121.99535,326.35698 -121.99535,326.35698 0,0 79.25813,0 79.25813,0 0,0 55.16986,-149.19176 55.16986,-149.19176 0,0 -8.54744,149.19176 -8.54744,149.19176 0,0 84.69741,0 84.69741,0 0,0 126.65758,-338.01259 126.65758,-338.01259 0,0 -79.25812,0 -79.25812,0 0,0 -56.72395,152.29993 -56.72395,152.29993 0,0 9.32449,-151.52289 9.32449,-151.52289 0,0 -84.69741,0 -84.69741,0 z m 226.20867,-10.87878 c 26.4652,0 79.39561,0 79.39561,0"
       transform="translate(2)" />
    <path
       style="fill:#000000;fill-opacity:1"
       d="m 685.15539,303.8228 c 0,0 80.03516,-0.38852 80.03516,-0.38852 0,0 -126.72901,337.49979 -126.72901,337.49979 0,0 -79.67033,0 -79.67033,0 z"
       id="path3"
       inkscape:path-effect="#path-effect3"
       inkscape:original-d="m 685.15539,303.8228 c 0,0 80.03516,-0.38852 80.03516,-0.38852 0,0 -126.72901,337.49979 -126.72901,337.49979 0,0 -79.67033,0 -79.67033,0 z"
       transform="translate(2)" />
    <path
       id="path3-8"
       style="fill:#000000;fill-opacity:1"
       d="M 907.36524,303.39258 822.5918,405.2207 860.44727,303.54687 780.41211,303.93554 654.04688,641.04687 h 79.66992 l 54.25977,-140.875 4.44726,141.33985 116.40039,-0.2168 141.59958,-39.47266 10.3028,-26.24609 -94.32621,-0.17773 31.4004,-82.33985 76.89061,0.54492 23.5254,-62.99218 -77.3535,-0.0586 26.5898,-71.51562 81.5898,-0.41797 20.2774,-54.40625 z m 79.72851,6.25781 L 871.50782,619.30078 865.875,441.74804 Z" />
    <path
       style="fill:#000000;fill-opacity:1"
       d="m 1405.6319,505.63187 c 1.1905,-0.27473 2.3809,-0.54945 3.4798,-0.64103 1.0989,-0.0916 2.1063,1e-5 2.8217,0.18887 0.7154,0.18887 1.1389,0.47502 1.4308,0.76692 0.292,0.2919 0.4522,0.58953 0.498,0.88719 0.046,0.29767 -0.023,0.59521 -0.1832,0.91572 -0.1602,0.3205 -0.4121,0.66394 -0.7211,1.03023 -0.3091,0.3663 -0.6754,0.75549 -1.0532,1.11034 -0.3777,0.35486 -0.7669,0.67537 -1.2591,0.93864 -0.4922,0.26327 -1.0874,0.46931 -150.043,64.77348 -148.9556,64.30418 -446.25965,192.70134 -597.58738,258.03464 -151.32774,65.33329 -156.67302,67.60006 -162.32443,70.02856 -5.65141,2.42851 -11.6086,5.01859 -17.63073,7.47924 -6.02212,2.46065 -12.10881,4.79173 -17.67765,6.92861 -5.56884,2.13688 -10.6195,4.07944 -15.79983,6.02206 -5.18032,1.94262 -10.48999,3.88518 -15.47604,5.63354 -4.98606,1.74835 -9.64821,3.30241 -14.37525,4.8565 -4.72705,1.5541 -9.5187,3.10815 -14.44,4.59749 -4.92131,1.48934 -9.97198,2.91389 -14.95804,4.20896 -4.98605,1.29508 -9.90721,2.46062 -15.08754,3.49668 -5.18032,1.03606 -10.61949,1.94259 -15.21702,2.59013 -4.59753,0.64754 -8.35315,1.03605 -13.27446,1.48933 -4.92132,0.45328 -11.00802,0.9713 -17.28916,1.29507 -6.28114,0.32377 -12.75635,0.45327 -19.55553,0.0647 -6.79917,-0.38853 -13.92189,-1.29506 -20.07351,-2.26637 -6.15163,-0.97132 -11.33179,-2.00735 -16.00068,-3.19597 -4.6689,-1.18862 -8.82626,-2.52976 -12.71363,-3.88717 -3.88736,-1.35742 -7.5045,-2.73101 -11.12175,-4.28781 -3.61726,-1.55679 -7.2344,-3.29668 -10.59982,-4.94505 -3.36541,-1.64837 -6.4789,-3.20511 -9.72985,-5.174 -3.25095,-1.96889 -6.63916,-4.3498 -9.95879,-6.79945 -3.31963,-2.44966 -6.57048,-4.96793 -8.90566,-6.7422 -2.33518,-1.77428 -3.75457,-2.80448 -5.38004,-4.21247 -1.62548,-1.40798 -3.45694,-3.19366 -5.24268,-4.9336 -1.78573,-1.73995 -3.52562,-3.43405 -5.21978,-5.31136 -1.69415,-1.87731 -3.34247,-3.93771 -5.05952,-6.22711 -1.71705,-2.28941 -3.50273,-4.80767 -4.87636,-6.9826 -1.37364,-2.17493 -2.33516,-4.00639 -3.45697,-6.13554 -1.12181,-2.12914 -2.40383,-4.55583 -3.50274,-7.02838 -1.09891,-2.47256 -2.01465,-4.99082 -2.67857,-6.82233 -0.66392,-1.83152 -1.076,-2.97618 -1.4827,-4.17381 -0.40669,-1.19764 -0.80797,-2.44817 -1.26763,-4.40092 -0.45967,-1.95275 -0.97768,-4.60758 -1.43096,-7.10061 -0.45328,-2.49303 -0.84179,-4.8241 -1.23031,-7.60853 -0.38853,-2.78443 -0.77704,-6.02203 -0.9713,-10.61958 -0.19426,-4.59755 -0.19426,-10.55474 0,-15.02275 0.19427,-4.46801 0.58278,-7.44661 1.03606,-10.74907 0.45328,-3.30245 0.97129,-6.92857 1.58646,-10.58717 0.61516,-3.6586 1.32743,-7.34947 2.10448,-10.9757 0.77705,-3.62622 1.61883,-7.18758 2.42826,-10.13388 0.80943,-2.94631 1.58645,-5.27738 2.42825,-7.98086 0.8418,-2.70349 1.74833,-5.77921 2.91391,-9.38925 1.16557,-3.61005 2.59012,-7.75418 4.07946,-11.80131 1.48934,-4.04712 3.04339,-7.997 4.66224,-11.97937 1.61885,-3.98237 3.30241,-7.997 5.34216,-12.46503 2.03976,-4.46803 4.43558,-9.38919 6.47533,-13.37155 2.03975,-3.98237 3.7233,-7.02571 5.40348,-10.20359 1.68018,-3.17789 3.35688,-6.49011 5.66048,-10.75619 2.3036,-4.26609 5.23395,-9.48577 8.57647,-15.30085 3.34253,-5.81508 7.09704,-12.22521 11.03481,-18.63553 3.93777,-6.41032 8.05856,-12.82045 12.72894,-19.9176 4.67039,-7.09715 9.89006,-14.88087 16.39197,-24.01559 6.50191,-9.13472 14.28564,-19.61986 19.6886,-26.78565 5.40296,-7.16579 8.42488,-11.01187 12.51147,-16.03711 4.08659,-5.02525 9.23764,-11.2294 12.96932,-15.80816 3.73168,-4.57875 6.0439,-7.53198 9.07737,-11.43542 3.03346,-3.90344 6.78796,-8.75682 10.54254,-13.6103 0,0 -6.86813,15.10989 -6.86813,15.10989 -1.0989,2.65568 -2.1978,5.31136 -3.3425,7.96706 -1.1447,2.6557 -2.33515,5.31133 -3.66301,8.69965 -1.32785,3.38832 -2.79302,7.50911 -4.0293,11.03478 -1.23628,3.52568 -2.24358,6.45602 -3.25091,9.84434 -1.00734,3.38831 -2.01464,7.23439 -3.06777,11.17216 -1.05313,3.93777 -2.15201,7.96699 -3.02198,11.81318 -0.86996,3.84619 -1.51098,7.50912 -2.1978,11.4469 -0.68682,3.93777 -1.4194,8.15014 -1.83149,12.36264 -0.41209,4.21249 -0.50366,8.42486 -0.52656,12.70604 -0.0229,4.28118 0.0229,8.63091 0.13736,12.01921 0.11447,3.3883 0.29762,5.81499 0.52656,8.40201 0.22894,2.58703 0.50366,5.33423 1.07602,8.15019 0.57235,2.81596 1.4423,5.70052 2.1978,8.4478 0.7555,2.74728 1.39651,5.35712 1.99826,7.50321 0.60175,2.1461 1.16419,3.82832 1.88251,5.83504 0.71833,2.00672 1.59248,4.33779 2.45047,6.44229 0.85799,2.10451 1.69977,3.98232 2.98676,6.34585 1.28699,2.36352 3.01911,5.21261 4.92126,8.11036 1.90215,2.89774 3.97422,5.84396 6.43488,8.8874 2.46065,3.04344 5.30974,6.18391 7.42524,8.33052 2.11549,2.14661 3.49728,3.29924 5.53894,4.9745 2.04167,1.67525 4.74308,3.873 7.7193,6.04793 2.97623,2.17494 6.22708,4.32691 9.29487,6.16987 3.0678,1.84297 5.95235,3.37682 9.29488,4.91644 3.34253,1.53962 7.14282,3.08492 10.55402,4.37271 3.41121,1.28778 6.43313,2.31798 9.66118,3.29098 3.22806,0.97299 6.66205,1.88872 9.9359,2.66711 3.27384,0.7784 6.38733,1.41941 9.70696,1.99176 3.31963,0.57235 6.8452,1.076 10.75436,1.45947 3.90915,0.38348 8.20165,0.64675 14.14839,0.70971 5.94673,0.063 13.54731,-0.0744 20.23234,-0.53229 6.68504,-0.45788 12.45416,-1.23625 17.92582,-2.24359 5.47167,-1.00734 10.64556,-2.24358 21.72632,-5.21982 11.08075,-2.97623 28.06759,-7.69226 171.56689,-46.71792 143.4993,-39.02566 413.49991,-112.35792 683.50591,-185.69165 z"
       id="path4"
       inkscape:path-effect="#path-effect5"
       inkscape:original-d="m 1405.6319,505.63187 c 0,0 2.3809,-0.54945 3.5714,-0.82418 1.0073,0.0916 2.0147,0.18315 3.022,0.27473 0.4235,0.28618 0.847,0.57234 1.2706,0.85852 0.1602,0.29762 0.3205,0.59523 0.4808,0.89285 -0.069,0.29763 -0.1374,0.59524 -0.2061,0.89286 -0.2518,0.34341 -0.5037,0.68681 -0.7555,1.03022 -0.3663,0.3892 -0.7326,0.77839 -1.0989,1.16758 -0.3892,0.32052 -0.7784,0.64103 -1.1676,0.96154 -0.5952,0.20605 -1.1904,0.41209 -1.7857,0.61813 -297.3159,128.4023 -594.61995,256.79945 -891.92993,385.19918 -5.34549,2.26686 -10.69077,4.53363 -16.03616,6.80045 -5.95743,2.59019 -11.91462,5.18027 -17.87193,7.7704 -6.08694,2.33117 -12.17363,4.66225 -18.26045,6.99337 -5.05086,1.94264 -10.10152,3.8852 -15.15229,5.8278 -5.30988,1.94264 -10.61955,3.8852 -15.92933,5.8278 -4.66233,1.55411 -9.32448,3.10816 -13.98672,4.66225 -4.79185,1.55411 -9.5835,3.10816 -14.37525,4.66224 -5.05086,1.4246 -10.10153,2.84915 -15.15229,4.27372 -4.92135,1.16558 -9.84251,2.33112 -14.76377,3.49668 -5.43939,0.90657 -10.87856,1.8131 -16.31785,2.71964 -3.75577,0.38853 -7.51139,0.77704 -11.26708,1.16556 -6.08694,0.51804 -12.17364,1.03606 -18.26045,1.55409 -6.47547,0.1295 -12.95068,0.25901 -19.42601,0.38852 -7.12302,-0.90657 -14.24574,-1.8131 -21.36861,-2.71965 -5.18038,-1.03607 -10.36054,-2.0721 -15.54081,-3.10816 -4.15752,-1.34119 -8.31488,-2.68233 -12.47232,-4.0235 -3.61729,-1.37366 -7.23443,-2.74725 -10.85165,-4.12088 -3.61729,-1.73996 -7.23443,-3.47985 -10.85165,-5.21978 -3.11361,-1.55681 -6.2271,-3.11355 -9.34066,-4.67033 -3.38834,-2.381 -6.77655,-4.76191 -10.16483,-7.14286 -3.25098,-2.51836 -6.50183,-5.03663 -9.75275,-7.55494 -1.41944,-1.03024 -2.83883,-2.06044 -4.25824,-3.09066 -1.83154,-1.78575 -3.663,-3.57143 -5.49451,-5.35715 -1.73996,-1.69417 -3.47985,-3.38827 -5.21978,-5.08241 -1.64838,-2.06048 -3.2967,-4.12088 -4.94505,-6.18132 -1.78575,-2.51837 -3.57143,-5.03663 -5.35714,-7.55495 -0.96156,-1.83154 -1.92308,-3.663 -2.88462,-5.4945 -1.28208,-2.42679 -2.5641,-4.85348 -3.84615,-7.28022 -0.91577,-2.51837 -1.83151,-5.03663 -2.74726,-7.55495 -0.41209,-1.14471 -0.82417,-2.28937 -1.23626,-3.43406 -0.4013,-1.25058 -0.80258,-2.50111 -1.20387,-3.75166 -0.51803,-2.65495 -1.03605,-5.30978 -1.55408,-7.96467 -0.38853,-2.33117 -0.77704,-4.66224 -1.16556,-6.99336 -0.38853,-3.23774 -0.77704,-6.47534 -1.16556,-9.71301 0,-5.95743 0,-11.91462 0,-17.87193 0.38853,-2.97871 0.77704,-5.95731 1.16556,-8.93596 0.51804,-3.62626 1.03606,-7.25238 1.55408,-10.87857 0.7123,-3.69101 1.42458,-7.38188 2.13686,-11.07282 0.84181,-3.56151 1.68359,-7.12287 2.52539,-10.68431 0.77705,-2.33117 1.55408,-4.66224 2.33112,-6.99336 0.90656,-3.07585 1.81309,-6.15157 2.71964,-9.22736 1.4246,-4.1443 2.84915,-8.28843 4.27372,-12.43265 1.55411,-3.95003 3.10816,-7.89991 4.66224,-11.84986 1.68362,-4.01479 3.36718,-8.02942 5.05077,-12.04413 2.39592,-4.92135 4.79174,-9.84251 7.18762,-14.76377 1.68362,-3.04347 3.36717,-6.08681 5.05076,-9.13022 1.67677,-3.31236 3.35347,-6.62458 5.03021,-9.93687 2.93046,-5.21988 5.86081,-10.43956 8.79121,-15.65934 3.75465,-6.41038 7.50916,-12.82051 11.26374,-19.23077 4.12096,-6.41038 8.24175,-12.82051 12.36263,-19.23077 5.21989,-7.78404 10.43956,-15.56776 15.65934,-23.35165 7.78404,-10.48555 15.56777,-20.97069 23.35165,-31.45604 3.02204,-3.84623 6.04396,-7.69231 9.06594,-11.53846 5.1512,-6.20434 10.30225,-12.40849 15.45329,-18.61264 2.31232,-2.95336 4.62454,-5.90659 6.93682,-8.85989 3.75465,-4.85358 11.26373,-14.56044 11.26373,-14.56044 0,0 -6.86813,15.10989 -6.86813,15.10989 0,0 -2.1978,5.31136 -3.2967,7.96703 -1.1905,2.65573 -2.38096,5.31136 -3.57143,7.96704 -1.46523,4.12096 -2.9304,8.24175 -4.39561,12.36263 -1.00734,2.93047 -2.01465,5.86081 -3.02197,8.79121 -1.00735,3.84623 -2.01466,7.69231 -3.02198,11.53846 -1.09892,4.02939 -2.1978,8.05861 -3.29671,12.08792 -0.64103,3.66307 -1.28205,7.326 -1.92307,10.98901 -0.73262,4.21254 -1.4652,8.42491 -2.1978,12.63736 -0.0916,4.21254 -0.18315,8.42491 -0.27473,12.63736 0.0458,4.34991 0.0916,8.69964 0.13736,13.04945 0.18316,2.42679 0.3663,4.85348 0.54945,7.28022 0.27473,2.74731 0.54945,5.49451 0.82418,8.24176 0.86998,2.88467 1.73993,5.76923 2.60989,8.65385 0.64104,2.60994 1.28205,5.21978 1.92308,7.82967 0.56247,1.6823 1.12491,3.36452 1.68737,5.04679 0.87419,2.33117 1.74834,4.66224 2.62251,6.99336 0.84181,1.87789 1.68359,3.7557 2.52538,5.63355 1.73219,2.8492 3.46431,5.69829 5.19646,8.54744 2.07215,2.94634 4.14422,5.89256 6.21632,8.83883 2.84921,3.14061 5.6983,6.28108 8.54745,9.42162 1.38184,1.15268 2.76363,2.30531 4.14544,3.45797 2.70152,2.19785 5.40293,4.3956 8.1044,6.59341 3.25098,2.15205 6.50183,4.30402 9.75274,6.45604 2.88468,1.53391 5.76923,3.06777 8.65385,4.60165 3.80044,1.54536 7.60073,3.09066 11.4011,4.63599 3.02204,1.03024 6.04396,2.06044 9.06593,3.09066 3.43414,0.91577 6.86813,1.8315 10.3022,2.74725 3.11362,0.64104 6.22711,1.28205 9.34066,1.92308 3.52571,0.50367 7.05128,1.00732 10.57692,1.51098 4.29267,0.26329 8.58517,0.52656 12.87775,0.78984 7.60089,-0.13737 15.20147,-0.27473 22.8022,-0.41209 5.76934,-0.7784 11.53846,-1.55677 17.30769,-2.33516 5.1741,-1.23629 10.34799,-2.47253 15.52198,-3.70879 16.98752,-4.71622 33.97436,-9.43224 50.96154,-14.14836 270.01142,-73.33519 810.01803,-220.00119 810.01803,-220.00119 z" />
    <path
       id="path1-3-5"
       style="fill:#000000;fill-opacity:1;stroke-width:1.007"
       d="m 1180.201,302.12047 a 17.779682,17.247488 0 0 0 -17.7793,17.24804 17.779682,17.247488 0 0 0 17.7793,17.24805 17.779682,17.247488 0 0 0 17.7793,-17.24805 17.779682,17.247488 0 0 0 -17.7793,-17.24804 z m 0.022,4.18359 a 12.834627,12.920565 0 0 1 12.834,12.91992 12.834627,12.920565 0 0 1 -12.834,12.91992 12.834627,12.920565 0 0 1 -12.834,-12.91992 12.834627,12.920565 0 0 1 12.834,-12.91992 z" />
    <text
       xml:space="preserve"
       style="font-style:normal;font-variant:normal;font-weight:normal;font-stretch:normal;font-size:23.4315px;font-family:Arial;-inkscape-font-specification:Arial;fill:#000000;fill-opacity:1;stroke-width:1.95263"
       x="1223.8126"
       y="314.40051"
       id="text2-6"
       transform="scale(0.95743823,1.0444538)"><tspan
         sodipodi:role="line"
         id="tspan2-6"
         x="1223.8126"
         y="314.40051"
         style="font-style:normal;font-variant:normal;font-weight:bold;font-stretch:normal;font-family:Arial;-inkscape-font-specification:'Arial Bold';fill:#000000;fill-opacity:1;stroke-width:1.95263">R</tspan></text>
  </g>
</svg>
