<?xml version="1.0" encoding="UTF-8" standalone="no"?>
<!-- Created with Inkscape (http://www.inkscape.org/) -->

<svg
   version="1.1"
   id="svg1"
   width="1024"
   height="1024"
   viewBox="0 0 1024 1024"
   sodipodi:docname="DALL·E 2024-11-20 21.15.06 - A modern and sleek logo design for a company that sells mechanical keyboards. The logo features a stylized keyboard key, with a futuristic and tech-in.jpg"
   inkscape:version="0.0"
   inkscape:dataloss="true"
   xmlns:inkscape="http://www.inkscape.org/namespaces/inkscape"
   xmlns:sodipodi="http://sodipodi.sourceforge.net/DTD/sodipodi-0.dtd"
   xmlns="http://www.w3.org/2000/svg"
   xmlns:svg="http://www.w3.org/2000/svg">
  <defs
     id="defs1" />
  <sodipodi:namedview
     id="namedview1"
     pagecolor="#ffffff"
     bordercolor="#000000"
     borderopacity="0.25"
     inkscape:showpageshadow="2"
     inkscape:pageopacity="0.0"
     inkscape:pagecheckerboard="0"
     inkscape:deskcolor="#d1d1d1"
     inkscape:zoom="0.26806641"
     inkscape:cx="320.81603"
     inkscape:cy="419.67213"
     inkscape:window-width="1366"
     inkscape:window-height="745"
     inkscape:window-x="-8"
     inkscape:window-y="-8"
     inkscape:window-maximized="1"
     inkscape:current-layer="g1" />
  <g
     inkscape:groupmode="layer"
     inkscape:label="Image"
     id="g1">
    <path
       style="fill:#000000"
       d="M -5.0385995e-6,512.37493 V 0.37492257 H 512.00004 1024 V 512.37493 1024.3748 H 512.00004 -5.0385994e-6 Z M 273.79999,817.17493 l 1.2,-1.2 0.0168,-5.05 0.0168,-5.05 2.08136,3.25 2.08135,3.25 h 1.329 1.32899 l 3.07281,-3.72784 3.0728,-3.72785 v 6.16883 6.16883 l 0.82646,0.51078 0.82646,0.51077 2.17354,-0.56839 2.17363,-0.56839 V 806.8234 796.50513 l -0.97525,-2.5651 -0.97525,-2.5651 h -1.49402 -1.49402 l -3.51831,5.5 -3.51831,5.5 h -0.94547 -0.94547 l -3.81695,-4.75 -3.81695,-4.75 -1,-0.73374 -1,-0.73375 -1,0.3173 -1,0.3173 -0.0935,12.41645 -0.0935,12.41644 1.09349,0.73469 1.09348,0.73468 1.05,0.0153 1.05,0.0153 z m 44.01336,-2.05 -0.31336,-3.25 -4.75,-0.30479 -4.75,-0.30479 v -1.33167 -1.33166 l 4.5,-0.67482 4.5,-0.67482 v -2.43872 -2.43873 h -4.5 -4.5 v -1.5 -1.5 h 2.375 2.375 l 3.125,-0.625 3.125,-0.625 v -3.5 -3.5 l -3.125,0.625 -3.125,0.625 h -4.875 -4.875 v 12.42668 12.42667 l 1.75,0.45732 1.75,0.45733 5.81336,0.116 5.81336,0.116 z m 26.21166,1 3.32079,-2.25 0.38786,-1.1823 0.38786,-1.18229 -2.18726,-1.17059 -2.18726,-1.17058 -2.42056,1.10288 -2.42056,1.10288 h -1.6242 -1.62421 l -1.82874,-1.65499 -1.82874,-1.65499 v -3.01627 -3.01627 l 1.65499,-1.82874 1.65499,-1.82874 h 2.72256 2.72257 l 1.24489,1.5 1.24489,1.5 h 1.22257 1.22256 l 1.89563,-2.09464 1.89562,-2.09464 -2.7881,-2.39822 -2.7881,-2.39822 -2.63152,-0.66047 -2.63152,-0.66047 -4.46747,2.36998 -4.46747,2.36999 -1.84981,3.03335 -1.8498,3.03334 -0.004,2.79966 -0.004,2.79966 1.51085,2.92166 1.51085,2.92166 3.72128,2.52868 3.72129,2.52868 h 2.11998 2.11998 z m 18.17272,-3 0.30226,-5.25 5.37041,-0.53911 5.37042,-0.53911 -0.60508,5.78911 -0.60509,5.78911 h 2.37768 2.37768 l 0.60699,-1.58179 0.60699,-1.58178 v -10.71822 -10.71821 l -1.2,-1.2 -1.2,-1.2 h -1.8 -1.8 v 5.5 5.5 h -3.80887 -3.80887 l -1.64011,-1.25 -1.64012,-1.25 -0.30101,-3.99168 -0.30102,-3.99169 -1.62071,-0.30674 -1.6207,-0.30674 -0.46148,1.79843 -0.46148,1.79842 0.45802,11.75 0.45802,11.75 h 2.32191 2.3219 z m 46.11765,2.02665 -0.18462,-2.72334 -4.7449,-10.08754 -4.7449,-10.08755 -1.82993,-0.97935 -1.82994,-0.97935 -0.88021,2.29024 -0.8802,2.29024 -4.17457,10 -4.17456,10 -0.54277,1.25 -0.54277,1.25 h 3.54057 3.54057 l 0.31642,-2.75 0.31642,-2.75 5,0.35459 5,0.35459 0.75,0.45443 0.75,0.45442 v 2.50741 2.5074 l 2.75,-0.31642 2.75,-0.31642 z m 29.26366,-10.75935 -0.6867,-11.5173 -0.8789,-0.88278 -0.879,-0.88279 -1.5672,0.6014 -1.5672,0.6014 v 6.03139 6.03138 h -1 -1 v -0.815 -0.81499 l -4.9091,-4.87928 -4.909,-4.87927 -2.0416,-0.75523 -2.04153,-0.75522 0.0731,12.94949 0.0731,12.9495 h 3.01563 3.0155 l -0.6756,-6.59484 -0.6757,-6.59485 3.0477,2.17014 3.0477,2.17013 1.7399,2.54632 1.7399,2.54632 2.292,2.46592 2.2921,2.46591 1.5908,-1.32022 1.5907,-1.32022 z m 40.0327,11.64028 2.7232,-2.34241 -0.679,-1.7694 -0.679,-1.7694 -4.5922,0.68865 -4.5923,0.68865 -2.3962,-2.25115 -2.3962,-2.25115 v -2.10318 -2.10318 l 1.5567,-2.2225 1.5567,-2.22251 h 2.8842 2.8843 l 0.6181,1 0.618,1 h 1.9058 1.9058 l 1.1698,-2.18582 1.1698,-2.18582 -2.6904,-2.31418 -2.6904,-2.31418 h -3.01 -3.0099 l -1.9657,1.05198 -1.9656,1.05198 -2.9686,4.09806 -2.9686,4.09806 v 3.27323 3.27324 l 2.7073,3.21754 2.7074,3.21754 3.0426,1.85545 3.0427,1.85544 1.6942,0.004 1.6942,0.004 z m 33.2866,0.77742 0.4024,-0.40242 -5.8585,-12.06661 -5.8586,-12.0666 -1.1068,-0.91856 -1.1068,-0.91855 -3.6716,7.71887 -3.6717,7.71887 -1.9377,5.75 -1.9377,5.75 h 2.8159 2.8159 l 0.6275,-2.5 0.6275,-2.5 h 5.4809 5.481 v 2.33333 2.33334 l 0.7198,0.71988 0.7199,0.71989 2.5281,-0.6345 2.5281,-0.63451 z m 50.087,-8.435 h 0.8808 l 3.6874,4.5 3.6874,4.5 h 2.8795 2.8796 v -1.40733 -1.40733 l -5,-4.49543 -5,-4.49543 v -0.51559 -0.51558 l 4.5,-5.27189 4.5,-5.27188 v -1.24238 -1.24238 l -2.1466,-0.68128 -2.1465,-0.68128 -0.9798,1.75085 -0.9798,1.75084 -3.49,3.86305 -3.4901,3.86304 h -0.7368 -0.7369 l 0.4805,-5 0.4804,-5 h -2.6272 -2.6272 v 12.93045 12.93045 l 2.25,0.31955 2.25,0.31955 0.3022,-4.75 0.3023,-4.75 z m 88.9505,7.55808 1.8843,-1.70527 0.6111,-2.43504 0.6112,-2.43503 -1.4008,-2.74137 -1.4009,-2.74137 0.875,-2.32448 0.8749,-2.32447 -1.0031,-1.87424 -1.003,-1.87424 -2.2148,-1.55129 -2.2148,-1.55128 h -5.7775 -5.7774 v 13.13437 13.13436 l 7.0257,-0.50269 7.0258,-0.50269 z m 28.9935,-0.37481 2.4294,-1.79363 1.2445,-3.44482 1.2446,-3.44482 0.076,-3.57 0.076,-3.57 -3.4811,-4.06684 -3.481,-4.06684 -2.5574,-0.64185 -2.5573,-0.64185 -3.4555,1.63974 -3.4555,1.63975 -3.0061,3.42374 -3.0061,3.42374 0.01,3.71521 0.01,3.7152 1.9394,2.94207 1.9394,2.94207 3.804,2.34525 3.804,2.34525 3,-0.54887 3,-0.54886 z m -12.0063,-6.10635 -2.923,-2.92307 v -1.90261 -1.90261 l 2.4475,-2.29932 2.4475,-2.29931 h 2.605 2.6049 l 2.4475,2.29931 2.4476,2.29932 v 1.74896 1.74896 l -2.5889,3.07672 -2.5889,3.07673 h -1.9881 -1.988 z m 30.077,6.42308 v -2.5 h 5.9326 5.9326 l 0.6348,2 0.6347,2 h 2.9326 2.9327 v -0.94098 -0.94099 l -0.9445,-0.58369 -0.9444,-0.5837 -5.5172,-11.47532 -5.5173,-11.47532 h -0.9567 -0.9568 l -2.0079,3.25 -2.0079,3.25 -2.6393,7 -2.6392,7 -0.5472,1.73506 -0.5471,1.73505 0.5813,1.51495 0.5814,1.51494 h 2.5314 2.5314 z m -244.8975,-10.99022 -0.2619,-11.99022 -1.1703,-0.74447 -1.1703,-0.74446 -1.25,-0.0153 -1.25,-0.0153 v 11.41821 11.41822 l 0.6272,1.63465 0.6273,1.63466 2.055,-0.30287 2.0549,-0.30287 z m 81.8975,9.49022 v -3 h -5.5 -5.5 v -9.39301 -9.39301 l -1.5818,-0.60699 -1.5818,-0.60699 h -0.9182 -0.9182 v 12.33333 12.33334 l 0.6666,0.66666 0.6667,0.66667 h 7.3333 7.3334 z m 64.8164,0.25 -0.3164,-2.75 -5.4914,-0.5 -5.4913,-0.5 -0.332,-1.75 -0.332,-1.75 h 5.0733 5.0734 v -3 -3 h -5 -5 v -1.5 -1.5 h 4.9648 4.9648 l 1.0352,-1.93426 1.0352,-1.93426 3e-4,-1.31574 3e-4,-1.31574 h -8.4991 -8.499 l -10e-4,12.08333 -10e-4,12.08334 0.6667,0.66666 0.6666,0.66667 h 7.8998 7.8997 z m 20.2346,-2.75 0.5511,-5 3.2659,-6.35421 3.266,-6.35421 -0.5357,-1.39579 -0.5356,-1.39579 -1.7814,0.008 -1.7813,0.008 -2.2799,3.9923 -2.2799,3.9923 h -1.3182 -1.3183 l -1.8261,-4.04961 -1.8261,-4.04961 -2.5672,0.29961 -2.5672,0.29961 -0.2922,1.54369 -0.2921,1.54369 4.0621,6.04949 4.0621,6.0495 0.6168,5.20733 0.6167,5.20733 2.1047,-0.30052 2.1048,-0.30111 z m 109.7623,1.75 0.3134,-3.25 h 0.9337 0.9338 l 3.8741,3.5 3.8741,3.5 h 3.2323 3.2324 l -3.1036,-3.5348 -3.1035,-3.53479 v -0.78487 -0.78487 l 2.5,-2.17372 2.5,-2.17372 v -2.60662 -2.60661 l -3.4,-3.4 -3.4,-3.4 h -6.4931 -6.493 l -0.607,1.58179 -0.6069,1.58178 v 10.98464 10.98463 l 2.75,-0.31642 2.75,-0.31642 z m 41.7859,-0.50976 3.4008,-3.71087 v -3.97989 -3.97989 l -3.0928,-3.52244 -3.0927,-3.52244 -3.6573,-1.09152 -3.6572,-1.09151 -4,0.32916 -4,0.32916 -0.2817,12.3609 -0.2817,12.3609 7.6309,-0.38535 7.6309,-0.38534 z m -521.78888,-7.44327 -0.31037,-3.70304 -33.48949,0.29204 -33.4895,0.29203 -0.7605,0.47002 -0.76051,0.47001 v 2.27432 2.27432 l 0.66667,0.66666 0.66666,0.66667 h 33.8937 33.8937 z m 607.00738,-0.67138 0.3178,-3.87442 -5.8178,0.58838 -5.8177,0.58837 -26.25,0.036 -26.25,0.0361 v 2.83333 2.83334 l 0.6806,0.68066 0.6807,0.68066 31.0693,-0.264 31.0694,-0.26399 z m -219.6867,-34.06584 6.6311,-1.40553 5.3344,-2.70314 5.3344,-2.70314 3.7669,-3.02714 3.7668,-3.02714 3.9326,-6.09683 3.9325,-6.09683 1.7043,-4 1.7043,-4 0.4812,-10 0.4812,-10 -1.5909,-6.77132 -1.591,-6.77132 -2.1425,-4.22868 -2.1425,-4.22868 -2.9062,-3.69348 -2.9062,-3.69348 -6.0608,-4.04725 -6.0608,-4.04724 -6.6181,-2.04413 -6.6181,-2.04412 -8.0318,-0.009 -8.0318,-0.009 -5,1.50842 -5,1.50842 -4.6586,2.95499 -4.6585,2.95499 -4.2605,3.83002 -4.2605,3.83003 -3.372,7.27314 -3.3719,7.27314 -1.158,7.94542 -1.1581,7.94542 1.0333,8.34002 1.0333,8.34003 2.4157,4.92488 2.4158,4.92487 6.1587,6.19378 6.1587,6.19378 8.3413,4.02119 8.3413,4.02119 5,0.93973 5,0.93973 1,0.0945 1,0.0945 z m -17.631,-21.91883 -5,-2.33953 -4.0744,-4.09267 -4.0743,-4.09267 -1.1757,-3.92404 -1.1756,-3.92405 v -7.00825 -7.00826 l 1.5428,-4.37572 1.5429,-4.37573 3.7071,-3.86953 3.7072,-3.86953 5,-2.3707 5,-2.3707 4.667,-0.01 4.6671,-0.01 4.5026,1.93003 4.5026,1.93003 4.1451,3.74482 4.145,3.74482 1.603,3.07515 1.603,3.07515 0.011,9 0.011,9 -1.6027,3.68961 -1.6027,3.68962 -4.1219,4.4717 -4.1219,4.4717 -4.4434,2.08868 -4.4435,2.08869 -4.7609,-0.01 -4.7609,-0.01 z m -382.9246,18.95317 5.88723,-2.69526 8.26866,-8.61057 8.26866,-8.61057 v -0.84613 -0.84614 l -8.6118,-4.24271 -8.61179,-4.24271 -1.62552,2.5 -1.62551,2.5 -2.7933,2.6798 -2.79329,2.6798 -5.10017,1.694 -5.10017,1.69401 -4.97168,-0.58883 -4.97167,-0.58882 -4.21774,-2.47175 -4.21772,-2.47176 -2.62393,-3.81322 -2.62392,-3.81323 -1.18357,-3 -1.18357,-3 -0.0545,-9 -0.0545,-9 2.29527,-4.75624 2.29527,-4.75624 3.13694,-2.64838 3.13693,-2.64838 4,-1.82342 4,-1.82342 3.0685,-0.022 3.0685,-0.022 5.10468,1.51593 5.10468,1.51592 5.32682,3.58485 5.32682,3.58484 5.81752,-0.65806 5.81753,-0.65807 1.43247,-0.54969 1.43248,-0.5497 -0.009,-2.14301 -0.009,-2.14301 -2.95676,-5.15531 -2.95677,-5.15532 -4.28385,-3.49333 -4.28385,-3.49333 -4.09535,-2.12172 -4.09535,-2.12171 -5.64671,-1.18441 -5.6467,-1.18441 -7.94332,1.15775 -7.94331,1.15775 -5.85451,2.95535 -5.85452,2.95535 -5.19422,4.67006 -5.19423,4.67006 -3.51711,7.17161 -3.51709,7.17161 -0.99879,5.38649 -0.99879,5.38649 v 6.15341 6.15341 l 1.53291,5.88524 1.53291,5.88523 2.71709,5.02217 2.71709,5.02218 5.0515,5.18808 5.05149,5.18809 6.22302,3.14137 6.22301,3.14138 5.22549,1.46718 5.22549,1.46719 6.59412,-0.34928 6.59411,-0.34928 z m 95.5663,-0.3833 6.64175,-3.20963 5.76842,-6.23058 5.76842,-6.23059 2.89063,-6.17714 2.89064,-6.17713 0.58808,-10.3848 0.58809,-10.38479 -1.19714,-6.95807 -1.19713,-6.95806 -2.38764,-5.25264 -2.38764,-5.25265 -5.19463,-5.49255 -5.19464,-5.49256 -5.10948,-2.489 -5.10948,-2.48901 -8,-1.12538 -8,-1.12539 -8.24493,0.56055 -8.24494,0.56056 -4.47229,1.97831 -4.4723,1.97831 -5.15551,4.82072 -5.15552,4.82073 -2.86844,4.16736 -2.86844,4.16736 -1.50881,5.79274 -1.50882,5.79274 v 9.89555 9.89556 l 1.58213,6.14435 1.58212,6.14434 3.0714,5.39006 3.0714,5.39005 2.92753,3.33428 2.92753,3.33427 5.09212,3.73796 5.09213,3.73797 5.07682,1.80881 5.07682,1.80881 10.5,-0.3109 10.5,-0.31089 z m -27.64175,-18.01074 -4,-1.89081 -3.29916,-2.78488 -3.29916,-2.78488 -2.5845,-5.10026 -2.58449,-5.10025 -0.48485,-6.04017 -0.48485,-6.04017 1.20798,-5.81879 1.20797,-5.81878 3.86904,-3.86904 3.86904,-3.86904 4.00165,-2.04149 4.00165,-2.04149 6.28984,7.9e-4 6.28984,7.9e-4 6.5,3.06898 6.5,3.06899 2.26807,2.12151 2.26806,2.12151 1.48194,4.99022 1.48193,4.99021 v 7.77145 7.77144 l -1.20608,2.79706 -1.20607,2.79705 -2.88843,3.76323 -2.88844,3.76324 -4.33213,2.53879 -4.33214,2.5388 -6.82335,0.4934 -6.82336,0.4934 z m 88.73367,-4.72156 0.26633,-26.52151 5.56189,7.77151 5.56188,7.77151 4.64229,7 4.64228,7 2.94906,3.39412 2.94905,3.39412 1.5049,-0.57746 1.5048,-0.57745 5.2664,-6.31667 5.2664,-6.31666 5.738,-8.72612 5.738,-8.72613 2.3375,-4.98288 2.3376,-4.98289 0.7346,-0.041 0.7347,-0.041 0.2653,28.75 0.2654,28.75 8.6733,0.28781 8.6733,0.28782 0.624,-5.28782 0.6241,-5.28779 -0.2974,-41.5 -0.2973,-41.5 -6.9791,-0.30091 -6.9791,-0.30091 -2.0209,0.55566 -2.0209,0.55566 -5.7842,7.74525 -5.7842,7.74525 -4.832,7.5 -4.832,7.5 -3.5917,7 -3.5918,7 -0.8941,1.31965 -0.8942,1.31965 -6.31452,-9.81965 -6.31455,-9.81965 -9.4663,-14.25 -9.4663,-14.25 h -8.45093 -8.45094 l 0.60792,36.75 0.60793,36.75 0.57215,10.25 0.57215,10.25 h 8.88744 8.88743 z m 116.76638,14.66108 v -11.86043 l 0.617,-4.50195 0.6171,-4.50195 18.6329,-0.68372 18.633,-0.68371 4.5751,-1.47621 4.5752,-1.4762 4.315,-4.2277 4.315,-4.2277 2.006,-4.47475 2.0061,-4.47474 6e-4,-6.52526 7e-4,-6.52525 -2.2817,-5.91835 -2.2817,-5.91835 -4.2057,-4.08743 -4.2056,-4.08742 -5.9095,-2.99422 -5.9095,-2.99423 -27.25,-0.32155 -27.25,-0.32155 v 43.94655 43.94655 l 0.625,3.125 0.625,3.125 h 8.875 8.875 z m 0.3417,-43.61626 0.6583,-4.80245 v -7.36043 -7.36043 h 13.5321 13.5321 l 3.4686,1.44929 3.4687,1.44928 2.4992,2.69674 2.4993,2.69674 v 3.80692 3.80692 l -1.1379,2.49728 -1.1378,2.49728 -3.0209,1.05308 -3.0209,1.05308 -15.9995,0.65958 -15.9995,0.65957 z m 200.6583,27.47669 v -28 h 1.0097 1.0098 l 1.3926,1.75 1.3925,1.75 7.9129,9.5 7.9129,9.5 8.5545,11 8.5544,11 5.4822,5.16651 5.4822,5.16652 4.6358,0.69518 4.6359,0.69519 1.5123,-0.58031 1.5123,-0.58032 v -46.53139 -46.53138 h -10.1441 -10.1441 l 0.7281,27.61091 0.728,27.6109 -1.0126,-0.62582 -1.0126,-0.62582 -6.7727,-8.73509 -6.7727,-8.73508 -5.0487,-6 -5.0486,-6 -8,-8.53952 -8,-8.53952 -3.4809,-4.46048 -3.4808,-4.46048 1.7308,1.37244 1.7309,1.37245 v -0.82245 -0.82244 l 1.1218,1.12186 1.1219,1.12185 1.3781,-0.52884 1.3782,-0.52885 v -1.4955 -1.49551 l -2.8669,-8.64751 -2.8668,-8.6475 -1.0946,-8 -1.0946,-8 -0.5928,-11.2576 -0.5927,-11.25759 -1.3651,-3.26697 -1.365,-3.26696 -14.3308,-7.11909 -14.3307,-7.1191 -19.2277,-10.48434 -19.2277,-10.48435 -6.2723,-2.68179 -6.2723,-2.68178 -1.9463,-1.44396 -1.9463,-1.44396 1.1963,-1.19626 1.1963,-1.19625 v -0.8 -0.8 h -1.022 -1.022 l -6.228,2.93763 -6.228,2.93762 -7,3.92772 -7,3.92772 -12.6352,7.97744 -12.6351,7.97745 -12.8649,7.20993 -12.8648,7.20994 -7.831,5.53298 -7.831,5.53299 0.5162,0.51617 0.5162,0.51618 5.3148,-1.74107 5.3148,-1.74106 6,-2.96724 6,-2.96724 8.5,-5.27264 8.5,-5.27264 15,-8.25145 15,-8.25145 4,-2.73265 4,-2.73264 4.2282,-2.14605 4.2281,-2.14604 8.7719,3.90063 8.7718,3.90063 4.6204,1.99505 4.6205,1.99506 18.6784,10.6942 18.6784,10.69421 9.381,4.354 9.381,4.35401 1.0098,1.88678 1.0097,1.88678 1.0091,6.42853 1.009,6.42852 0.5801,13 0.5802,13 0.9499,6 0.9499,6 0.2713,1.96614 0.2713,1.96613 -5.0906,0.83476 -5.0906,0.83476 -0.6594,27.11157 -0.6594,27.11157 v 16.71254 16.71253 l 0.625,3.125 0.625,3.125 h 9.375 9.375 z m 147.7862,17.25 -0.2862,-9.75 -23.25,0.16913 -23.25,0.16912 v -9.41912 -9.41913 h 19.5 19.5 l -0.011,-5.75 -0.011,-5.75 -0.6288,-3.80495 -0.6288,-3.80494 -18.6102,0.17736 -18.6102,0.17736 -0.086,-8.62241 -0.086,-8.62242 h 23.8361 23.8362 v -4.86043 -4.86043 l -0.6165,-4.49723 -0.6164,-4.49724 -30.6574,-0.71814 -30.6575,-0.71814 -2.7261,0.68421 -2.7261,0.68422 v 46.39159 46.39159 h 33.5362 33.5362 z m -642.28625,-109.03108 10,-5.9313 12.5,-7.29998 12.5,-7.29998 5.5,-3.66902 5.5,-3.66901 15.5,-8.41388 15.5,-8.41387 9.68883,-6.01094 9.68883,-6.01094 8.94902,-6.13115 8.94901,-6.13114 6.74021,-2.243 6.74022,-2.243 3.25837,1.55381 3.25836,1.5538 39.86358,23.36529 39.86362,23.36529 4.8529,2.25855 4.8529,2.25856 1.5667,-0.30351 1.5667,-0.3035 -3.9196,-3.28956 -3.9196,-3.28955 -13.5,-8.8065 -13.50005,-8.8065 -11,-7.01353 -11,-7.01353 -3.5,-1.76518 -3.5,-1.76519 -13,-8.23592 -13,-8.23593 -12.26547,-6.22658 -12.26546,-6.22657 -5.23454,-4.2151 -5.23453,-4.21509 -4.56813,-1.71089 -4.56812,-1.71088 -6.36163,-4.62902 -6.36164,-4.62902 -16.07024,-9.66324 -16.07024,-9.66323 -16.90171,-8.71373 -16.90172,-8.71373 -1.88793,0.5992 -1.88793,0.59921 4.28965,3.12434 4.28964,3.12434 11,6.9589 11,6.9589 17.68161,10.58679 17.68161,10.58679 8.16163,4.5 8.16163,4.5 0.10676,1 0.10677,1 -10.71723,7 -10.71722,7 -9.23278,5.43255 -9.23278,5.43255 -14,7.69291 -14,7.69291 -10.5,5.94256 -10.5,5.94256 -7.26023,4.68198 -7.26023,4.68198 h -0.51121 -0.5112 l -3.96216,2.62203 -3.96215,2.62203 0.53553,0.86652 0.53554,0.86651 -1.38713,-0.53229 -1.38713,-0.53229 -2.41481,2.12745 -2.41481,2.12745 1.87071,-0.59864 1.87071,-0.59864 -4.77978,4.51493 -4.7798,4.51494 h 0.69427 0.69426 l 2.45623,-1.60938 2.45623,-1.60939 -0.65546,-1.06055 -0.65546,-1.06056 1.5414,0.59149 1.5414,0.59149 11.37264,-6.22109 11.37264,-6.2211 19.5,-10.83322 19.5,-10.83323 12.5,-7.19489 12.5,-7.19489 8,-4.31971 8,-4.3197 8,-4.75585 8,-4.75585 4.64356,-2.24434 4.64357,-2.24434 7.10643,4.72435 7.10644,4.72435 v 0.43895 0.43895 l -9.75,6.40681 -9.75,6.40681 -10.21745,6.82745 -10.21745,6.82744 -14.02532,7.5 -14.02533,7.5 -16.29382,10.5 -16.29383,10.5 -5.79454,3.5 -5.79454,3.5 -10.34326,7.22316 -10.34324,7.22316 -0.76756,1.27684 -0.76757,1.27684 1.64392,-1.33258 1.64392,-1.33257 1.79803,0.41272 1.79804,0.41273 -2.74999,1.33037 -2.75,1.33036 v 0.96146 0.96145 l 2.25,-1.54686 2.24999,-1.54686 z m 92.4165,-17.17632 3.83683,-1.95741 0.62334,-1.62438 0.62333,-1.62438 v -2.96367 -2.96367 l -2.45455,-2.45454 -2.45454,-2.45455 h -4.32295 -4.32295 l -2.4725,1.70411 -2.47251,1.70411 -1.2182,1.54589 -1.21819,1.54589 -0.0318,3.16111 -0.0318,3.1611 3.07673,2.5889 3.07672,2.58889 h 2.96311 2.96312 z m 436.09365,-5.55177 1.9899,-1.80081 v -3.67069 -3.6707 l -2.25,-2.04935 -2.25,-2.04935 -2.0771,-1.06758 -2.077,-1.06757 -5.0933,-0.67566 -5.0933,-0.67565 -1.0741,3.86827 -1.0741,3.86826 0.03,2 0.03,2 1.3246,2.38993 1.3247,2.38993 2.3899,1.38228 2.3899,1.38229 4.7602,-0.3764 4.7601,-0.37639 z m -149.6487,-12.70192 6.9821,-4.07778 7.4604,-3.44689 7.4603,-3.44688 2.1179,0.52398 2.1179,0.52398 9.9901,3.43003 9.9902,3.43002 1.1418,-1.56157 1.1419,-1.56157 -2.1644,-1.70251 -2.1644,-1.7025 -9.4676,-3.69753 -9.4676,-3.69754 -3.5,-0.0566 -3.5,-0.0566 -4.5,2.13389 -4.5,2.13388 -10.4225,5.82146 -10.4224,5.82146 -0.9867,1.56429 -0.9867,1.56429 0.6684,1.742 0.6685,1.74199 2.6803,-0.67272 2.6804,-0.67272 z m -110.3614,-4.00954 3.5,-1.04363 11,-6.01434 11,-6.01434 7,-4.51421 7,-4.51421 25,-15.19011 25,-15.19012 14,-8.56289 14,-8.5629 11.1597,-6.33631 11.1598,-6.33631 17.3402,-10.4664 17.3403,-10.46641 16,-10.12225 16,-10.12225 12,-7.51164 12,-7.51164 37.5,-22.31274 37.5,-22.31274 6.5,-6.56305 6.5,-6.56305 -1.7888,-0.35469 -1.7887,-0.3547 -4.2113,2.16972 -4.2112,2.16973 -11.5,6.77083 -11.5,6.77083 -20.5,11.79119 -20.5,11.79118 -9.5,5.66364 -9.5,5.66365 -11,7.07525 -11,7.07525 -16,9.78919 -16,9.78919 -14,8.13407 -14,8.13408 -7.5,4.58557 -7.5,4.58557 -17,10.24233 -17,10.24233 -7.519,4.22359 -7.5189,4.22359 -5.9811,3.76847 -5.981,3.76847 -8,5.22911 -8,5.22911 -2.5,1.27896 -2.5,1.27896 -10,6.70089 -10,6.70088 -12.5,6.58712 -12.5,6.58712 -5.2701,0.93799 -5.2702,0.93798 -4.5509,-0.85022 -4.551,-0.85021 -4.9395,-2.48097 -4.9395,-2.48097 -4.2394,-2.41288 -4.2394,-2.41288 -20.5,-11.67183 -20.50005,-11.67183 -13.5,-8.09036 -13.5,-8.09036 -11.5,-6.73562 -11.5,-6.73561 -13,-7.78373 -13,-7.78372 -7.5,-4.51502 -7.5,-4.51502 -19.5,-11.16017 -19.5,-11.16016 -11.99585,-7.28747 -11.99585,-7.28747 -4.00415,-2.73477 -4.00415,-2.73476 -7,-4.27999 -7,-4.27998 -3.25,-1.96292 -3.25,-1.96291 v 1.50898 1.50897 l 3.99821,5.05812 3.99821,5.05812 7.25179,4.8704 7.25179,4.8704 16,10.01203 16,10.01203 12.5,7.30778 12.5,7.30778 25.5,15.22235 25.5,15.22234 3.5,2.00945 3.5,2.00945 9,5.20322 9,5.20323 8.5,5.26313 8.5,5.26312 19.5,11.54725 19.50005,11.54726 15,7.6578 15,7.6578 4.5,0.76302 4.5,0.76302 4,-0.41326 4,-0.41325 z m -126.00005,-2.07903 v -1.29966 l -8.25,-5.44719 -8.25,-5.44719 -4.19446,-0.003 -4.19446,-0.003 -3.55227,3.443 -3.55228,3.443 1.24674,0.79169 1.24673,0.79168 -1.41667,0.0153 -1.41666,0.0153 0.61447,0.61447 0.61447,0.61448 4.34593,-2.10383 4.34592,-2.10382 2.95627,0.88468 2.95627,0.88469 7,3.06881 7,3.06882 1.25,0.0358 1.25,0.0356 z m 375.18315,-3.16842 -0.3169,-1.73262 1.3169,0.63762 1.3169,0.63762 -1.8346,-1.28727 -1.8346,-1.28727 -2.1654,-1.88302 -2.1654,-1.88302 -5.5,-3.57821 -5.5,-3.5782 -24,-12.1786 -24,-12.1786 -15.3405,-8.2359 -15.3405,-8.23589 -3.2759,-0.73883 -3.2758,-0.73882 -1.6337,0.91423 -1.6336,0.91424 v 1.9789 1.97889 l 6.25,2.66141 6.25,2.6614 23.5,11.96889 23.5,11.96889 16.1799,8.19719 16.1799,8.19718 4.8201,3.5442 4.8201,3.5442 2,-0.26799 2,-0.268 z m 25.6301,-14.3119 0.3132,-2.12332 -2.6261,-2.29835 -2.6261,-2.29835 -16.6871,-8.5773 -16.6871,-8.5773 -12,-6.31101 -12,-6.31101 -5.5,-3.26634 -5.5,-3.26633 -8.5,-4.09155 -8.5,-4.09154 -1.927,-1.49348 -1.927,-1.49348 0.427,-0.26033 0.427,-0.26033 3.5991,-1.82622 3.5991,-1.82622 3.9009,-3.37668 3.9009,-3.37668 2.5,0.5473 2.5,0.54731 14.3204,6.88764 14.3204,6.88765 2.6796,1.89963 2.6796,1.89963 11.7125,5.20049 11.7125,5.20049 1.0375,-0.64119 1.0375,-0.64118 v 2.30901 2.30902 l 1.9188,3.14691 1.9189,3.1469 3.6426,1.20216 3.6425,1.20216 3.3915,-0.63625 3.3915,-0.63625 2.0433,-2.59767 2.0429,-2.59768 v -2.44206 -2.44207 l -2.8719,-2.87186 -2.8719,-2.87187 -2.8409,-0.71302 -2.8409,-0.71302 -5.2322,1.09748 -5.2323,1.09748 -9.8642,-5.2876 -9.8641,-5.2876 -2.7808,-1.82203 -2.7808,-1.82203 -3.16,-1.85181 -3.16,-1.85181 -9.0067,-4.32852 -9.0066,-4.32852 -1.3658,-1.64571 -1.3658,-1.64571 h 1.7966 1.7967 l 15.5758,-9.19454 15.5758,-9.19454 18.5,-11.46925 18.5,-11.46925 11.6799,-7.9371 11.6799,-7.9371 -0.5369,-1.39911 -0.5369,-1.39911 h -1.2052 -1.2052 l -4.4378,2.12321 -4.4378,2.12322 -10.5,6.74857 -10.5,6.74858 -19,11.28627 -19,11.28628 -6.5,4.2227 -6.5,4.22269 -7.5102,4.51611 -7.5101,4.51611 -4.0438,1.08888 -4.0438,1.08887 -3.4461,3.08874 -3.446,3.08873 -5.864,3.92552 -5.864,3.92552 h -3.2636 -3.2636 l -1.2448,1.5 -1.2449,1.5 1.2128,1.46137 1.2128,1.46137 30.6596,15.65145 30.6597,15.65145 8.2648,4.96326 8.2648,4.96327 6.2352,2.49578 6.2352,2.49577 4.5,2.10671 4.5,2.10671 0.8311,1.3777 0.8312,1.37771 1.1688,-0.38461 1.1689,-0.3846 z m -276.6352,-18.19329 6.3887,-1.97327 13.4666,-8.17291 13.4667,-8.17292 8,-4.72056 8,-4.72057 15.5,-9.27666 15.5,-9.27666 27.5,-16.52012 27.5,-16.52012 12.5,-7.51831 12.5,-7.51831 15.5,-9.62184 15.5,-9.62184 6,-3.37879 6,-3.37878 10,-6.61882 10,-6.61881 25,-14.85122 25,-14.85123 7,-4.18849 7,-4.1885 9.5,-5.84786 9.5,-5.84786 3.7801,-2.91901 3.7801,-2.91901 1.4699,-2.84247 1.4699,-2.84247 v -4.18158 -4.18159 l -3.5712,-3.36807 -3.5712,-3.36808 h -2.5177 -2.5177 l 2.5892,3.07707 2.5891,3.07707 0.6245,2.48801 0.6244,2.48801 -2.8747,3.01207 -2.8747,3.01206 -7.5,4.57574 -7.5,4.57574 -11,6.74784 -11,6.74783 -17,9.73448 -17,9.73447 -14.5,9.00047 -14.5,9.00047 -13,8.01564 -13,8.01565 -7,4.2358 -7,4.23581 -28.5,17.06781 -28.5,17.06781 -7.5,4.73546 -7.5,4.73545 -15.5,9.1974 -15.5,9.19739 -5,2.93822 -5,2.93822 -13,7.81763 -13,7.81762 -10.0251,6.22127 -10.025,6.22128 -4.2218,2.15379 -4.2217,2.1538 -4.4159,0.60526 -4.4158,0.60525 -6.9299,-2.10489 -6.9299,-2.10489 -7.6803,-5.01381 -7.6804,-5.0138 -5.2271,-2.61646 -5.2271,-2.61646 -8.5,-5.05968 -8.50005,-5.05969 -7,-4.18344 -7,-4.18343 -20.5,-12.48402 -20.5,-12.48402 -23.5,-13.83986 -23.5,-13.83986 -9.5,-5.17278 -9.5,-5.17279 -16.78303,-10.13482 -16.78303,-10.13482 -15.21697,-9.68966 -15.21697,-9.68965 -2.37888,-2.07453 -2.37888,-2.07453 -1.37112,-3.21788 -1.37112,-3.21788 -0.0318,-2.78212 -0.0318,-2.78212 -1.54491,2 -1.54491,2 0.3581,6.72683 0.35809,6.72684 3.46862,3.60179 3.46862,3.60179 9,5.58714 9,5.58715 13,7.98256 13,7.98256 23,13.43508 23,13.43508 12,7.04415 12,7.04415 8,5.04777 8,5.04776 5.5,2.98435 5.5,2.98435 16,9.73642 16,9.73642 19.50004,11.44234 19.5,11.44235 10,5.46579 10,5.46578 3.5,1.63182 3.5,1.63182 5.1446,0.064 5.1447,0.0639 z m 7.822,-25.16221 10.5,-6.40257 3,-1.44067 3,-1.44067 4.75,-3.37547 4.75,-3.37548 v -1.83304 -1.83305 l -0.607,-1.58178 -0.607,-1.58179 h -1.7693 -1.7692 l -8.8738,5.04709 -8.8737,5.04709 -9.0096,4.40265 -9.0097,4.40265 -4.1782,0.66813 -4.1783,0.66813 -4.3121,-3.43505 -4.3121,-3.43505 -7.5,-4.3705 -7.5,-4.37049 -10.5,-6.7387 -10.5,-6.7387 -1.8773,-1.36294 -1.8772,-1.36295 1.5825,-13.83265 1.5826,-13.83265 0.4409,-0.44089 0.4408,-0.44089 15.3538,8.71904 15.3539,8.71904 5.0647,2.2493 5.0648,2.24929 0.168,15.74394 0.168,15.74394 0.5111,0.51112 0.5111,0.51112 1.8349,-1.66053 1.8348,-1.66054 1.9213,-0.01 1.9213,-0.01 5,-2.35345 5,-2.35345 8.5,-5.30252 8.5,-5.30252 6.8378,-4.01445 6.8379,-4.01445 -0.4624,-3.56981 -0.4623,-3.56935 -2.1255,-10.49802 -2.1255,-10.49802 v -3.16309 -3.16308 l -3.1491,-2.64972 -3.149,-2.64972 -5.8656,-2.96096 -5.8656,-2.96095 -5.2354,-3.30503 -5.2353,-3.30503 -6.8623,-3.17319 -6.8623,-3.17319 h -2.179 -2.1791 l -18.4587,11.07571 -18.4586,11.07571 -1.7305,1.56158 -1.7304,1.56158 -0.5857,3.61271 -0.5857,3.61271 -3.06595,14.5 -3.06592,14.5 -0.45811,4.1177 -0.45811,4.1177 2.84017,2.00405 2.84022,2.00405 5.5,2.74756 5.5,2.74755 13,7.73094 13,7.73095 2.4649,1.29996 2.4649,1.29997 5.0351,1.86791 5.0351,1.86792 4.5,-0.38458 4.5,-0.38458 z m -22.4205,-16.30858 -0.5522,-2.05594 -0.01,-11.5 -0.01,-11.5 3.2431,-2.14637 3.2432,-2.14638 11,-6.75957 11,-6.75957 4.9017,-2.90757 4.9018,-2.90757 0.6979,1.12932 0.698,1.12932 1.7713,10.33393 1.7713,10.33394 -0.5929,0.95923 -0.5928,0.95922 -17.1594,9.89104 -17.1594,9.89103 -3.3029,3.05594 -3.3028,3.05594 z m -9.0795,-30.71947 -4,-2.07514 -8.25,-4.94779 -8.25,-4.94778 v -0.46807 -0.46806 l 1.9305,1.0332 1.9306,1.0332 1.3194,-1.31423 1.3195,-1.31423 8.5,-1.68456 8.5,-1.68456 5.1909,7.7e-4 5.191,7.8e-4 0.556,-0.89952 0.5559,-0.89952 5.1465,-1.23463 5.1465,-1.23462 5.1066,0.011 5.1066,0.011 1.809,0.12312 1.809,0.12312 -0.618,1 -0.6181,1 h 0.952 0.9521 l 0.5756,-1.5 0.5756,-1.5 1.7814,0.0416 1.7814,0.0416 -3.9917,3.52325 -3.9916,3.52324 -5.5084,3.12202 -5.5083,3.12203 -8.2849,5.3131 -8.2848,5.31311 -2.2152,-0.0442 -2.2151,-0.0442 z m 339.5,39.23671 2.5,-1.77312 0.3019,-4.03658 0.302,-4.03658 -2.802,-2.21098 -2.8019,-2.21097 -4.2906,0.47926 -4.2906,0.47926 -1.8543,1.67811 -1.8543,1.6781 -0.5045,2.63954 -0.5046,2.63955 0.8533,2.24454 0.8534,2.24454 2.7961,1.52844 2.7961,1.52845 3,-0.54922 3,-0.54922 z m -42.3728,-11.07318 h 1.4637 l 2.4545,-2.45455 2.4546,-2.45454 v -2.95656 -2.95656 l -3.0768,-2.5889 -3.0767,-2.58889 h -3.9687 -3.9688 l -2.4545,2.45455 -2.4545,2.45454 0.015,3.29546 0.015,3.29545 0.7669,1.20673 0.767,1.20672 3.4677,1.50681 3.4677,1.50681 1.3318,-0.46353 1.3318,-0.46354 z m -219.344,-8.62532 5.2168,-2.62531 6.5,-4.26852 6.5,-4.26852 13.25,-8.16305 13.25,-8.16304 v -1.61438 -1.61438 l -1.655,-1.82874 -1.655,-1.82874 h -1.6084 -1.6083 l -4.9965,3.36484 -4.9965,3.36484 -11.4902,6.73779 -11.4901,6.7378 -4.1635,2.89737 -4.1635,2.89736 h -5.0032 -5.0032 l -0.4397,1.25 -0.4398,1.25 0.926,2.49817 0.9261,2.49817 1.5853,1.75183 1.5854,1.75183 h 1.8783 1.8782 z m -134.05652,-9.12468 1.53671,-1.75 0.73557,-2.40723 0.73557,-2.40722 -2.36729,-1.78354 -2.36729,-1.78354 -0.24633,-15.80924 -0.24633,-15.80923 18.58061,-11 18.5807,-11 3.9157,-1.45665 3.9157,-1.45666 v -1.89213 -1.89214 l -2.8845,-2.65121 -2.8845,-2.65121 -17.9658,-9.25 -17.96588,-9.25 h -1.69829 -1.69828 l -8.7014,5.15121 -8.7014,5.15121 -12.4776,7.73606 -12.4776,7.73605 -1.01728,1.61274 -1.01729,1.61273 1.09994,1.75 1.09993,1.75 16.39495,8.7453 16.39495,8.7453 3.75,1.16299 3.75,1.16299 v 15.84171 15.84171 h -1.2816 -1.2816 l -7.7184,-4.5 -7.7184,-4.5 -7.75,-4.46469 -7.75,-4.46469 -5.793,-3.56559 -5.79301,-3.56558 -0.59617,-1.55361 -0.59617,-1.5536 2.23786,-9.87007 2.23786,-9.87006 -0.40606,-1.21819 -0.40607,-1.21819 -1.11273,2.92213 -1.11274,2.92214 -3.57988,11.65747 -3.57989,11.65747 v 2.01155 2.01154 l 8.75,4.72065 8.75,4.72065 11,6.73433 11,6.73432 5.5,3.11663 5.5,3.11662 2.09501,0.009 2.09501,0.009 z m -17.72248,-51.52801 -11.99575,-6.22199 0.21952,-0.9459 0.21951,-0.9459 2.69917,-0.36147 2.69918,-0.36147 1.79344,-0.95982 1.79345,-0.95983 3.95911,0.63309 3.95911,0.63309 6.9173,-2.64325 6.9173,-2.64325 3.24728,-2.39576 3.24728,-2.39577 7.47254,-0.70024 7.47256,-0.70023 6.1874,1.26897 6.1874,1.26897 1.3967,0.72624 1.3967,0.72625 -4.8967,2.79456 -4.8967,2.79455 -10,6.00456 -10.00005,6.00456 -6.22804,2.82902 -6.22805,2.82903 -0.77195,-0.028 -0.77196,-0.028 z m 148.5763,39.94872 4.4195,-2.3293 12,-7.3045 12,-7.30451 2.5,-1.74886 2.5,-1.74886 10,-5.72079 10,-5.7208 10.5,-6.77159 10.5,-6.77159 4.1339,-2.08609 4.134,-2.08609 9.4851,-6.28886 9.485,-6.28887 7.881,-4.84122 7.881,-4.84121 24.4156,-14.90395 24.4156,-14.90394 7.4295,-3.67101 7.4296,-3.671 0.5314,-1.38488 0.5314,-1.38489 -2.2559,-10.19895 -2.256,-10.19895 -0.9773,-6.22508 -0.9774,-6.22507 -6.6433,-3.82792 -6.6432,-3.82792 -13.7042,-6.69701 -13.7042,-6.697 h -3.6895 -3.6895 l -8.6063,5.10809 -8.6063,5.10809 -6.5,3.77182 -6.5,3.77183 -17,10.07203 -17,10.07204 -9.4358,5.79805 -9.4357,5.79805 -11.2839,6.5 -11.2839,6.5 -13.2804,7.90161 -13.2803,7.90161 -14,8.33388 -14,8.33387 -6.999,4.82993 -6.9989,4.82992 -0.939,2.67008 -0.939,2.67009 2.3381,2.48882 2.3381,2.48883 12.5998,7.41375 12.5999,7.41375 4.75,1.74779 4.75,1.74779 v 16.7808 16.78081 l 1.25,0.50439 1.25,0.50439 1.0805,0.0789 1.0805,0.079 z m -6.5832,-17.72227 -0.7276,-14.05156 0.3651,-0.26049 0.3652,-0.26049 14,-7.85326 14,-7.85327 4,-2.70849 4,-2.7085 27.5,-16.50691 27.5,-16.50692 16,-9.79174 16,-9.79173 11.5,-6.64082 11.5,-6.64083 11.5,-6.87815 11.5,-6.87815 5.4968,-3.24309 5.4969,-3.2431 0.6531,1.18453 0.6531,1.18453 2.2135,11.3032 2.2135,11.3032 -0.6096,0.60954 -0.6095,0.60955 -6.5537,2.76495 -6.5537,2.76496 -4.7002,2.90955 -4.7002,2.90956 -7,4.06077 -7,4.06077 -24.5,14.73244 -24.5,14.73244 -9,5.51113 -9,5.51112 -7,4.00647 -7,4.00648 -8.5,5.02489 -8.5,5.0249 -9.5,6.1786 -9.5,6.17861 -6.5355,3.57741 -6.5355,3.5774 -8.1716,6.07103 -8.1717,6.07103 h -0.4304 -0.4305 z m -12.3109,-22.51507 -9.0509,-4.6261 -1.7228,-1.90363 -1.7227,-1.90364 2.905,-0.0318 2.905,-0.0318 1.9411,-1.46819 1.9411,-1.4682 h 3.7499 3.7498 l 0.5911,-0.95633 0.591,-0.95632 1.468,0.56331 1.468,0.56332 v -0.99036 -0.99036 l 1.75,-0.45763 1.75,-0.45764 0.5244,0.091 0.5244,0.091 2.827,-2.22372 2.827,-2.22372 3.3986,-0.63757 3.3986,-0.63757 v -0.88871 -0.88871 h 1.9077 1.9077 l 5.1113,-2.65186 5.1114,-2.65187 0.6132,-2.44315 0.6132,-2.44316 0.7654,1.23842 0.7653,1.23842 1.8524,-0.52995 1.8524,-0.52994 1.914,-0.7834 1.914,-0.78339 -0.6654,1.07668 -0.6654,1.07668 1.9901,-0.52043 1.9902,-0.52043 -0.5579,-0.90262 -0.5578,-0.90262 -0.9309,0.57533 -0.9309,0.57532 v -1.05901 -1.05902 l 1.25,-0.14806 1.25,-0.14806 2,-0.10194 2,-0.10194 -0.2459,-1.23747 -0.2458,-1.23747 1.7458,0.14591 1.7459,0.14592 1.809,-0.15845 1.809,-0.15844 -0.6228,-1.00767 -0.6228,-1.00767 1.4924,-1.49233 1.4923,-1.49233 h 0.6304 0.6305 l -0.6982,1.12973 -0.6982,1.12973 1.3892,-0.48347 1.3892,-0.48348 -0.2603,-1.50014 -0.2603,-1.50015 6.0417,-4.14611 6.0416,-4.14611 h 0.8853 0.8853 l 0.3333,0.89319 0.3334,0.89319 6.322,-1.31395 6.322,-1.31395 3.5301,-3.6348 3.5301,-3.63481 -0.5083,-1.94344 -0.5082,-1.94344 0.9061,-0.56001 0.9062,-0.56001 v 1.05901 1.05902 h 0.9686 0.9686 l -0.5261,-1.37096 -0.5261,-1.37096 1.5575,-0.59765 1.5575,-0.59766 v 0.96861 0.96862 h 2.4409 2.441 l 0.5366,-0.86819 0.5366,-0.86819 5.1138,-0.67838 5.1139,-0.67838 1.3196,1.09513 1.3195,1.09513 0.7171,-1.16037 0.7172,-1.16036 -1.3492,-0.83382 -1.3491,-0.83382 0.471,-0.38072 0.4711,-0.38072 3.7055,-2.22771 3.7055,-2.22771 1.7582,0.30405 1.7583,0.30406 0.4019,-2 0.4019,-2 1.1343,-0.73469 1.1344,-0.73468 2.1785,-0.0153 2.1786,-0.0153 1.6161,-1.61607 1.616,-1.61607 2.9554,0.59107 2.9554,0.59104 v -0.99405 -0.99405 l 2.25,0.37325 2.25,0.37325 -1.25,-0.42752 -1.25,-0.42753 v -0.92667 -0.92668 h 2.9182 2.9182 l 1.576,-0.60478 1.5761,-0.60479 -0.527,-0.85263 -0.5269,-0.85262 2.9059,-1.50271 2.9059,-1.50271 0.6268,0.62679 0.6268,0.62678 v -1.02977 -1.02978 l 5.75,-1.77484 5.75,-1.77483 1,-0.50876 1,-0.50876 -1,0.96842 -1,0.96842 -15,8.84124 -15,8.84124 -7,4.18818 -7,4.18817 -12,7.33115 -12,7.33114 -17.5,10.6511 -17.5,10.6511 -16.5,9.97592 -16.5,9.97592 -9.5,5.58037 -9.5,5.58037 -6,2.97992 -6,2.97993 -2.1314,0.66014 -2.1314,0.66015 z m -302.73924,28.65204 0.56525,-0.91459 -1.25623,-0.4589 -1.25623,-0.45891 2.5,-0.0873 2.5,-0.0873 1.75,-0.20587 1.75,-0.20586 v -0.63335 -0.63333 l -0.98794,-0.98794 -0.98793,-0.98793 1.89047,-1.36258 1.89047,-1.36257 -1.29511,-3.67074 -1.29511,-3.67074 -2.69422,-5.3168 -2.69423,-5.3168 -1.07353,-23.75051 -1.07353,-23.75051 2.55618,-4.36144 2.55619,-4.36144 5.58948,-4 5.58948,-4 1.5136,-4 1.5136,-4 1.48698,-7.2484 1.48697,-7.2484 1.45584,-3.48431 1.45584,-3.48432 12.92845,-8.52372 12.92844,-8.52372 6.70247,-3.49357 6.70247,-3.49356 h 2.49307 2.49308 l 1.86182,0.99641 1.86182,0.99642 1.3357,-0.51256 1.33569,-0.51255 2.18042,-4.75285 2.18041,-4.75285 9.80633,-6.3527 9.80633,-6.35271 9,-5.03428 9,-5.03429 4.8259,-0.47854 4.82589,-0.47854 0.84282,-2.21679 0.84282,-2.21678 8.33128,-5.53791 8.33129,-5.5379 13.63976,-7.64485 13.63976,-7.64485 4.93578,-0.58457 4.93578,-0.58457 1.0198,-2.70176 1.0198,-2.70175 6.90466,-4.5644 6.90466,-4.56439 14.00915,-7.59205 14.0091,-7.59205 3.4909,-0.6494 3.4909,-0.64939 4.5,-4.28623 4.5,-4.28622 10,-5.77743 10,-5.77743 8.5,-4.80784 8.5,-4.80783 5.2365,-0.002 5.2366,-0.002 1.4137,-3.38331 1.4136,-3.3833 4.3498,-2.99134 4.3498,-2.99134 8.5,-4.69176 8.5,-4.69176 6.5,-3.09708 6.5,-3.09708 6.5,-0.0542 6.5,-0.0542 4.5,2.36268 4.5,2.36268 12.5,7.5312 12.5,7.5312 6,4.20083 6,4.20082 5.6725,0.44883 5.6726,0.44883 7.3274,4.33948 7.3275,4.33948 11.5,6.21559 11.5,6.2156 7.2913,4.61907 7.2913,4.61907 h 3.8917 3.8916 l 10.6209,5.47025 10.6209,5.47026 2.6961,1.90309 2.6962,1.90308 6.5,3.24457 6.5,3.24456 6.5,4.57174 6.5,4.57174 0.5,0.66611 0.5,0.66611 3.549,0.65186 3.5491,0.65186 14.9509,8.79518 14.951,8.79517 7,4.62641 7,4.6264 2.714,2.83799 2.714,2.838 1.5424,10.26852 1.5423,10.26853 2.1759,9.03979 2.1759,9.03979 5.0677,2.53635 5.0678,2.53636 3.3561,2.51996 3.3561,2.51996 1.3939,3.33606 1.3939,3.33606 v 22.88385 22.88385 l -4.5,6.85138 -4.5,6.85137 v 1.7969 1.79689 h 1.059 1.059 l -0.6236,1.00895 -0.6235,1.00895 0.6365,2.00557 0.6365,2.00557 0.9281,-0.57354 0.928,-0.57353 v 1.05901 1.05846 h -1 -1 v 0.98095 0.98095 l 2.595,0.6513 2.595,0.65131 -1.345,0.88604 -1.345,0.88604 1.8699,1.09854 1.87,1.09854 -1.3616,0.84152 -1.3616,0.84153 1.1945,1.19454 1.1946,1.19454 5.1578,-2.14349 5.1578,-2.14349 0.9299,0.57475 0.93,0.57474 -0.5924,2.16585 -0.5925,2.16584 1.5517,-1.94103 1.5517,-1.94103 -1.2499,-0.77249 -1.2499,-0.7725 v -1.07295 -1.07295 l -1.2974,-0.8018 -1.2973,-0.80179 1.5702,-1.30317 1.5702,-1.30318 -0.6018,1.56848 -0.6019,1.56848 2.0694,-0.54116 2.0694,-0.54116 -0.5715,-2.27678 -0.5714,-2.27678 1.0696,-0.66103 1.0695,-0.66104 -0.5998,1.56328 -0.5999,1.56328 1.6544,-0.63488 1.6545,-0.63488 -0.4517,-0.45173 -0.4518,-0.45174 0.8579,-2.99114 0.8578,-2.99114 -1.1992,0.44142 -1.1992,0.44141 0.238,1.08901 0.238,1.08901 -1.488,-0.571 -1.488,-0.571 v -0.98864 -0.98864 l 2.0075,-2.81937 2.0076,-2.81936 -0.9646,-2.53714 -0.9646,-2.53714 1.3559,0.52031 1.3559,0.52031 0.6601,-1.06818 0.6602,-1.06817 -1.809,-0.0703 -1.809,-0.0703 2,-0.81618 2,-0.81617 0.95,0.88646 0.95,0.88649 h 0.9186 0.9187 l -3.1187,-3.18984 -3.1186,-3.18984 0.032,-1.06016 0.032,-1.06016 1.317,1.73446 1.3171,1.73445 0.6511,-0.65112 0.6512,-0.65112 v -0.76191 -0.7619 l -1.4721,-1.47208 -1.4721,-1.47207 1.8228,-2.34935 1.8227,-2.34936 -0.434,-1.25 -0.434,-1.25 h 1.6423 1.6424 l -0.6203,-1.00367 -0.6203,-1.00367 -2.6887,0.6224 -2.6887,0.6224 1.6102,-1.36873 1.6103,-1.36873 0.5616,-1.62814 0.5616,-1.62815 -1.1719,-1.26903 -1.1718,-1.26904 1.602,0.55901 1.602,0.55901 -0.102,-2.75083 -0.102,-2.75083 -1.75,0.45563 -1.75,0.45563 v -1.17565 -1.17564 l -0.9886,0.61095 -0.9885,0.61096 0.5531,-1.44143 0.5531,-1.44143 1.8677,0.4884 1.8676,0.48841 -0.5636,-2.15547 -0.5637,-2.15548 -1.3686,0.52518 -1.3685,0.52517 v -0.96861 -0.96862 h 2.059 2.059 l -0.6281,-1.01631 -0.6281,-1.01631 -0.8618,0.53262 -0.8618,0.53262 -0.6282,-1.01631 -0.6281,-1.01631 h 1.5 1.5 l 0.6162,-0.99698 0.6162,-0.99697 -2.5218,0.95876 -2.5217,0.95877 -0.5945,-0.96179 -0.5944,-0.96179 h 1.1264 1.1264 l -0.7116,-2.24216 -0.7116,-2.24216 1.5274,1.26769 1.5275,1.26768 0.5731,-1.4935 0.5731,-1.4935 -0.8661,-0.53527 -0.8661,-0.53527 -1.5902,0.61023 -1.5902,0.61024 v -0.57505 -0.57506 l 2.75,-1.56847 2.75,-1.56847 -2.3488,0.63526 -2.3487,0.63525 0.6661,-2.09872 0.6661,-2.09872 -1.3174,-0.11842 -1.3173,-0.11842 -0.9193,0.17484 -0.9193,0.17485 1.302,-1.56876 1.3019,-1.56875 1.2783,1.06089 1.2783,1.06089 0.648,-1.04856 0.6481,-1.04856 h -1.559 -1.559 v -1 -1 l -1.25,0.25 -1.25,0.25 0.2616,-2.38208 0.2616,-2.38209 -1.4226,1.18065 -1.4226,1.18064 -0.6751,-1.09237 -0.6751,-1.09236 0.9637,-1.20619 0.9637,-1.2062 0.6741,-2.5 0.6742,-2.5 -1.5518,1.94113 -1.5517,1.94113 -0.1185,-0.94113 -0.1184,-0.94113 0.1343,-0.79747 0.1342,-0.79747 -1.7296,0.29747 -1.7295,0.29747 -0.34,-2 -0.3401,-2 1.0385,1.5 1.0384,1.5 0.015,-1.63337 0.015,-1.63337 -2.1006,-0.54932 -2.1006,-0.54932 0.7287,-1.17912 0.7288,-1.17911 -1.2336,-0.7624 -1.2336,-0.7624 1.7205,-2.6258 1.7205,-2.62579 h -0.915 -0.915 l -1.2,1.2 -1.2,1.2 v -1.7 -1.7 l -1.25,-0.0318 -1.25,-0.0318 1.75,-1.32844 1.75,-1.32844 v -0.54613 -0.54614 l -2.25,0.49313 -2.25,0.49312 1.5,-1.07143 1.5,-1.07143 -1.7814,-0.0153 -1.7814,-0.0153 -0.5756,1.5 -0.5756,1.5 h -0.8759 -0.876 l 1.9013,-3.38503 1.9012,-3.38502 -1.9183,0.50166 -1.9183,0.50161 v -1.68402 -1.68402 l -2.25,0.61514 -2.25,0.61514 1.7367,-1.09003 1.7368,-1.09002 1.9132,1.02396 1.9133,1.02396 0.5308,-1.38304 0.5307,-1.38304 -1.6808,0.27293 -1.6807,0.27293 -1.239,-0.98488 -1.239,-0.98488 0.5581,-0.90301 0.5581,-0.903 1.0854,0.67082 1.0854,0.67082 -0.7152,-1.15722 -0.7152,-1.15721 -2.06,1.10247 -2.06,1.10248 0.717,-1.16013 0.717,-1.16012 -1.2407,-2.99528 -1.2407,-2.99528 1.1444,-1.14436 1.1444,-1.14437 -0.068,-1.55 -0.068,-1.55 -1.0591,2.19166 -1.0592,2.19167 -1.2746,0.48914 -1.2747,0.48914 -0.496,-1.89662 -0.496,-1.89662 1.0146,0.21582 1.0146,0.21581 0.2951,-1.75476 0.295,-1.75477 -0.914,0.56494 -0.9141,0.56494 -0.9962,-2.62035 -0.9963,-2.62035 -1.1316,0.69937 -1.1316,0.69937 0.5047,-1.38919 0.5048,-1.3892 1.375,0.32143 1.375,0.32143 -1.2917,-1.31307 -1.2916,-1.31307 -0.7084,1.06458 -0.7083,1.06458 -1.6991,0.62613 -1.6991,0.62613 0.5214,-1.35873 0.5214,-1.35873 -1.9696,-0.62513 -1.9696,-0.62512 0.5139,-1.96522 0.5139,-1.96521 h -1.6166 -1.6166 v -1.43826 -1.43827 l -2.7109,0.18827 -2.7108,0.18826 -0.3625,-1.75 -0.3625,-1.75 h 1.0419 1.042 l -0.5756,1.5 -0.5756,1.5 h 1.0495 1.0496 l -0.4112,-2.13531 -0.4112,-2.1353 -0.5572,-0.55713 -0.5571,-0.55713 -1.9383,-0.29581 -1.9384,-0.29582 0.5585,1.73825 0.5584,1.73825 -0.8443,-1.1003 -0.8443,-1.10029 -2.25,-1.18489 -2.25,-1.18489 v -1.5718 -1.57181 l -1.4269,0.54755 -1.4269,0.54755 -1.1592,-1.39676 -1.1592,-1.39675 0.6451,-1.04381 0.6451,-1.0438 h -1.059 -1.059 v 1.2 1.2 l -1.1834,-1.18333 -1.1833,-1.18334 0.4333,-0.27916 0.4334,-0.27916 8.5,-5.66955 8.5,-5.66955 2.2081,-2.06796 2.2082,-2.06795 h 0.8704 0.8704 l 4.672,-3.0946 4.672,-3.0946 -0.5596,-0.9054 -0.5596,-0.9054 h 2.059 2.0591 l -0.015,-0.75 -0.015,-0.75 -0.9694,-1.5 -0.9694,-1.5 -0.015,1.65638 -0.015,1.65638 -1.8509,-0.48403 -1.851,-0.48402 -1.399,1.33585 -1.3991,1.33586 -6.9482,3.34866 -6.9481,3.34866 -5.0385,3.39313 -5.0385,3.39313 h -0.6756 -0.6755 l -6.9379,4 -6.9379,4 h -0.6185 -0.6186 l 0.5635,-1.46838 0.5635,-1.46838 0.6551,0.0868 0.6552,0.0868 1.143,-0.11842 1.143,-0.11842 0.5845,-1.52314 0.5844,-1.52314 -1.9117,1.02314 -1.9118,1.02314 h -1.0343 -1.0344 l 0.5514,-1.43686 0.5514,-1.43686 1.1672,0.27297 1.1673,0.27296 -0.7563,-0.42152 -0.7562,-0.42151 0.5652,-0.91459 0.5653,-0.91459 h -1 -1 l -0.618,1 -0.6181,1 h -1.0959 -1.096 l 1.81,-2 1.8099,-2 h -1.155 -1.1549 v 0.96862 0.96861 l -1.6641,-0.63855 -1.664,-0.63856 0.6574,1.06374 0.6574,1.06374 -2.4927,-0.1438 -2.4926,-0.1438 -7e-4,-0.58648 -7e-4,-0.58648 5.2643,-2.66352 5.2644,-2.66352 h 0.7465 0.7466 l 4.5304,-2.12954 4.5304,-2.12955 1.553,-3.00316 1.553,-3.00315 -1.3443,-0.85199 -1.3443,-0.85198 1,-0.115 1,-0.11499 -2.5,-0.7188 -2.5,-0.71881 -3.5,1.41434 -3.5,1.41433 -2.0742,1.9133 -2.0742,1.91329 -0.7592,-0.75914 -0.7591,-0.75915 0.3333,1.46141 0.3334,1.46141 -4.5142,1.53859 -4.5141,1.53859 -1.2359,0.80902 -1.2358,0.80901 v -1.18401 -1.18402 l -2.907,0.5814 -2.907,0.58139 -1.6492,-2.20639 -1.6493,-2.2064 0.6155,2 0.6154,2 -1.2168,-1.20762 -1.2169,-1.20762 0.9971,-1.29238 0.997,-1.29238 -1.6872,-1.59784 -1.6873,-1.59785 -1.6366,1.19672 -1.6367,1.19672 0.7345,0.81145 0.7345,0.81145 -1.25,-0.71934 -1.25,-0.71934 v -0.84221 -0.84221 l 3.25,-1.97657 3.25,-1.97658 9,-5.71486 9,-5.71486 9.5,-5.26398 9.5,-5.26397 6.9032,-4.22638 6.9032,-4.22637 2.0968,-0.8997 2.0968,-0.89969 4,-2.46717 4,-2.46716 4.2921,-2.24842 4.2921,-2.24843 0.9702,-1.16902 0.9702,-1.16903 -1.5123,-1.25513 -1.5123,-1.25512 v 1.18146 1.18146 l -1.0032,-0.61997 -1.0031,-0.61997 -11.2469,5.90139 -11.2468,5.90138 -3.5086,2.00689 -3.5086,2.0069 -8.9914,4.7634 -8.9914,4.7634 -12.2239,6.96447 -12.2238,6.96447 -1.1807,-0.7297 -1.1807,-0.72971 0.6232,1.00828 0.6231,1.00828 -2.5157,1.14623 -2.5157,1.14623 h -0.5119 -0.512 l 0.6714,-1.08629 0.6713,-1.08629 -2.3623,0.19698 -2.3623,0.19698 -2,-0.126 -2,-0.12601 1.5,-0.96937 1.5,-0.96937 h -1 -1 l -1.3782,0.87288 -1.3781,0.87288 0.7826,1.26632 0.7827,1.26631 -1.2227,-0.75566 -1.2227,-0.75566 0.5368,-1.39885 0.5368,-1.39885 h -1.3853 -1.3853 l -0.5072,-1.25 -0.5072,-1.25 -1.0608,1.5 -1.0608,1.5 -0.015,-0.72525 -0.015,-0.72525 -2.7022,1.02735 -2.7021,1.02736 1.7021,-1.88085 1.7022,-1.88084 v -1.79371 -1.7937 l -1.342,1.11377 -1.342,1.11377 -0.658,-0.65799 -0.658,-0.65799 v 1.60765 1.60765 l -0.9886,0.61095 -0.9885,0.61096 0.6437,-1.80194 0.6438,-1.80194 1.0948,-1.43723 1.0948,-1.43723 -1.6991,0.6363 -1.6991,0.6363 0.5091,-1.32675 0.5092,-1.32676 -3.3101,-0.50928 -3.31,-0.50927 -1.6508,1.4521 -1.6507,1.45211 -0.6055,-0.97974 -0.6055,-0.97973 0.7562,-0.33541 0.7563,-0.33541 2.8008,-3.75 2.8009,-3.75 h -2.0195 -2.0195 l 0.628,1.75 0.6279,1.75 -0.8104,-0.73446 -0.8105,-0.73445 -1.0989,1.46885 -1.0988,1.46885 -2.261,-0.60389 -2.2609,-0.60388 -0.5975,-2.38051 -0.5975,-2.38051 h -0.8325 -0.8326 l -0.684,1.10676 -0.684,1.10677 -0.625,-1.00682 -0.625,-1.00681 -2,-0.34995 -2,-0.34995 -1.3215,-1.25 -1.3214,-1.25 h -0.8696 -0.8695 l -0.618,1 -0.6181,1 h -1.5 -1.5 l 0.6281,-1.01631 0.6282,-1.01631 0.9309,0.57533 0.9309,0.57532 v -0.97568 -0.97568 l -1.25,-0.50439 -1.25,-0.50439 2.05,-0.0789 2.05,-0.0789 0.95,0.94784 0.95,0.94784 3.5833,1.49594 3.5833,1.49594 v -1.51682 -1.51683 l -1.9123,0.50008 -1.9123,0.50008 0.6019,-1.56848 0.6018,-1.56848 -1.4421,1.1969 -1.4422,1.19689 -0.8597,-1.53625 -0.8598,-1.53625 -3.221,-0.6442 -3.2209,-0.64429 v 1.125 1.125 h -1.6886 -1.6886 l 2.2114,-2.06016 2.2113,-2.06017 2.0691,0.65673 2.0692,0.65672 -0.3419,-1.76369 -0.3419,-1.7637 -1.3892,-0.4626 -1.3892,-0.46259 0.6322,1.02305 0.6323,1.02306 -2.6169,0.65682 -2.617,0.65682 -3.6799,-2.55014 -3.6798,-2.55015 h -1.1963 -1.1962 v 1.10699 1.10699 l 1.5,-0.57561 1.5,-0.5756 v 0.9096 0.9096 l -0.9734,0.60156 -0.9734,0.60157 -1.705,-1.99132 -1.705,-1.99133 -0.9514,0.58797 -0.9513,0.58797 0.4727,-1.38919 0.4727,-1.3892 2.0684,0.29785 2.0685,0.29785 0.5798,-0.9382 0.5799,-0.9382 -3.6721,-0.68888 -3.6721,-0.68889 1.2876,-0.79576 1.2876,-0.79577 -1.0348,-0.63952 -1.0348,-0.63952 -0.7701,2.26452 -0.7701,2.26452 0.1981,0.75 0.1982,0.75 h -0.883 -0.883 l 0.1514,-2.75 0.1514,-2.75 0.7906,-1.25 0.7906,-1.25 h -0.6008 -0.6009 l -2.1382,1.99206 -2.1382,1.99205 -1.757,-1.59001 -1.7569,-1.59002 -1.063,0.65698 -1.063,0.65697 v -2.05901 -2.05902 h -1.3931 -1.393 l -0.5756,1.5 -0.5756,1.5 h 1.4373 1.4372 l -0.5922,1.54317 -0.5922,1.54317 -1.7051,-1.54317 -1.7052,-1.54317 h -1.338 -1.3379 l 0.75,-0.75 0.75,-0.75 h 1.0834 1.0833 l 0.4167,-1.25 0.4166,-1.25 h -2.0833 -2.0833 v 1.05902 1.05901 l -1.1118,-0.68713 -1.1119,-0.68713 -0.7158,1.15824 -0.7158,1.15823 -2.9224,-1.53724 -2.9223,-1.53724 -2.5,0.35214 -2.5,0.35214 1.25,-0.41834 1.25,-0.41835 v -1.54912 -1.54912 l 1.5423,1.28006 1.5424,1.28007 1.1576,-1.15762 1.1577,-1.15762 h 1.8 1.8 v 0.93045 0.93045 l -2.25,0.39361 -2.25,0.39361 1.6987,0.76326 1.6987,0.76325 1.4139,-1.3208 1.414,-1.3208 -0.984,-1.57553 -0.9839,-1.57552 -2.8685,0.42101 -2.8685,0.42101 0.5488,0.888 0.5488,0.888 h -1.059 -1.059 v -1 -1 h -2.5 -2.5 v -1.10841 -1.10841 l -2.4734,0.62078 -2.4734,0.62077 0.5804,-1.51236 0.5803,-1.51237 h -1.3844 -1.3845 l -2.1569,1.51072 -2.1569,1.51073 -0.6347,-1.02704 -0.6347,-1.02703 -1.1809,0.67663 -1.1809,0.67664 0.8403,-0.91032 0.8404,-0.91033 h 2.0713 2.0713 l 0.4715,-1.39953 0.4715,-1.39953 -4.3312,0.58093 -4.3312,0.58094 1.448,-0.91609 1.4481,-0.91609 -1.25,-0.0153 -1.25,-0.0153 v -1.5 -1.5 h -1.107 -1.107 l 0.6094,-1.75 0.6095,-1.75 -1.4138,1.81977 -1.4137,1.81978 -1.1365,-1.81978 -1.1364,-1.81977 0.692,2.49216 0.6919,2.49216 -1.6442,-1.36461 -1.6442,-1.3646 v 1.12245 1.12244 h -1.0352 -1.0352 l 1.0352,-1.93426 1.0352,-1.93426 v -0.47212 -0.47212 l -1.9308,0.50492 -1.9309,0.50491 0.5447,1.65147 0.5447,1.65146 -2.3866,-2.83388 -2.3866,-2.83388 -3.2273,-0.22343 -3.2272,-0.22343 -0.081,1.55731 -0.081,1.55731 -1.1688,-2.61637 -1.1688,-2.61636 -2.25,0.83414 -2.25,0.83414 v -1.26777 -1.26778 l 1.25,-1.3467 1.25,-1.34671 -1.2779,0.72299 -1.278,0.72299 -2.0314,-2.32629 -2.0314,-2.32628 1.6948,2.78121 1.6948,2.78121 -0.5601,0.56009 -0.5601,0.5601 -2.0243,-0.6425 -2.0243,-0.64249 0.5559,-1.44881 0.556,-1.44881 h -1.107 -1.107 l 0.1184,0.75 0.1184,0.75 -0.1184,1.25 -0.1184,1.25 -1.2464,-0.25 -1.2464,-0.25 -1.3164,-1.5 -1.3165,-1.5 0.3918,1.5 0.3918,1.5 2.3916,1.20217 2.3915,1.20216 0.6677,-1.08028 0.6676,-1.08028 1.1119,0.68713 1.1118,0.68713 v 0.86301 0.86301 l -3.25,-0.33526 -3.25,-0.33527 -0.5,-0.20518 -0.5,-0.20518 -0.75,0.11842 -0.75,0.11842 v -1.00847 -1.00848 l -2.2301,1.25848 -2.23,1.25847 -1.2758,1.5 -1.2758,1.5 0.9328,-2.62303 0.9328,-2.62302 -1.127,-1.12698 -1.1269,-1.12697 h -1.4085 -1.4084 l 0.6485,-2.58379 0.6485,-2.58379 -1.0401,0.64281 -1.04,0.6428 v 1.44099 1.44098 h -1.607 -1.607 l 0.65,-1.69393 0.65,-1.69394 -2.043,1.84892 -2.043,1.84893 -0.015,-2.40499 -0.015,-2.40499 -0.9693,1.5 -0.9694,1.5 -0.015,1.25 -0.015,1.25 2.25,0.116 2.25,0.116 -1.6886,0.44548 -1.6885,0.44549 -0.4455,1.68851 -0.4454,1.68852 -0.116,-2.12756 -0.116,-2.12755 -1.3653,-1.13305 -1.3652,-1.13306 -2.8848,1.50445 -2.8847,1.50445 1.25,0.006 1.25,0.006 v 1.44098 1.44099 l -0.9886,0.61095 -0.9885,0.61096 0.5567,-1.45079 0.5567,-1.45079 -1.0845,-0.67025 -1.0845,-0.67025 0.5444,-0.88073 0.5443,-0.88072 -1.9299,-1.03283 -1.9298,-1.03282 0.532,2.03437 0.532,2.03437 -2.3802,-0.40592 -2.3801,-0.40592 1.25,0.42752 1.25,0.42753 v 1.09334 1.09334 l -0.6315,-0.63148 -0.6315,-0.63148 -2.0202,1.08115 -2.0201,1.08115 0.6148,-1.60208 0.6147,-1.60209 -2.4631,0.20386 -2.4631,0.20386 v 0.42165 0.42164 l 1.75,1.32844 1.75,1.32844 -2.8091,0.0318 -2.809,0.0318 0.6181,-1 0.618,-1 h -0.9772 -0.9773 l -1.5818,0.60699 -1.5817,0.607 v 1.4604 1.4604 l -1.9202,-0.60943 -1.9201,-0.60942 -2.0008,-0.38531 -2.0007,-0.38531 -0.5478,1.42734 -0.5477,1.42735 h 0.7686 0.7687 l 1.2,-1.2 1.2,-1.2 v 1.80699 1.80699 l 1.4679,-0.56332 1.468,-0.56331 0.657,1.06309 0.6571,1.06309 0.8333,-1.34841 0.8334,-1.3484 1.2916,1.38834 1.2917,1.38835 -1.25,-0.70572 -1.25,-0.70572 v 1.1264 1.12641 l -2.004,-0.63603 -2.0039,-0.63603 -2.7461,-0.36246 -2.746,-0.36246 -0.75,-0.0689 -0.75,-0.0689 v -1.55902 -1.55901 l -1.0486,0.64804 -1.0486,0.64805 1.0658,1.28422 1.0659,1.28422 -0.5819,1.51624 -0.5818,1.51624 -1.7864,-0.46714 -1.7863,-0.46713 -1.6967,1.69669 -1.6967,1.6967 -0.4759,-0.47592 -0.4759,-0.47592 0.6305,-1.64313 0.6305,-1.64313 h 0.893 0.8931 v -1 -1 h -0.8787 -0.8787 l -1.2426,3 -1.2427,3 h -1.5011 -1.5011 l 1.2649,1.52417 1.265,1.52416 -0.6425,0.6425 -0.6425,0.6425 v -1.13528 -1.13528 l -1.3711,0.52613 -1.3711,0.52612 -1.6289,-1.62894 -1.6289,-1.62894 v 1.08122 1.08121 l 1.9788,1.6943 1.9788,1.6943 -1.2288,0.7806 -1.2288,0.7806 -1.0615,0.0153 -1.0614,0.0153 -2.2945,-2.13763 -2.2945,-2.13764 -0.8665,1.38764 -0.8665,1.38763 2.7224,0.54148 2.7225,0.54148 -2.25,1.2437 -2.25,1.24371 v -1.03516 -1.03518 h -2.0591 -2.059 l 0.6281,1.01631 0.6282,1.01631 0.9309,-0.57533 0.9309,-0.57532 v 0.47723 0.47723 l 0.558,1.4542 0.558,1.45421 -2.558,-0.489 -2.558,-0.48899 v -0.77644 -0.77643 l -1.6415,-0.62988 -1.6414,-0.62988 1.1052,1.33168 1.1052,1.33168 -1.7581,1.50528 -1.758,1.50528 -1.7697,0.67911 -1.7698,0.67911 0.314,2.16387 0.3141,2.16386 -1.2937,0.44083 -1.2936,0.44082 0.7095,-2.84787 0.7095,-2.84787 -1.6339,1.34591 -1.6339,1.34591 0.087,0.65409 0.086,0.65409 -0.1184,1.35699 -0.1184,1.35699 -1.468,-0.56332 -1.468,-0.56331 -0.6162,0.997 -0.6162,0.997 -1.9158,-0.60806 -1.9158,-0.60807 v 1.12641 1.1264 l 0.761,-0.47034 0.761,-0.47034 1.989,1.53006 1.989,1.53005 -2.8765,-0.66953 -2.8765,-0.66952 0.5951,1.55079 0.5951,1.5508 h -0.9686 -0.9686 l -0.1362,-2.25 -0.1362,-2.25 -0.4052,2.03532 -0.4053,2.03532 -1.9992,1.24856 -1.9993,1.24855 -0.9756,-0.60297 -0.9757,-0.60298 0.5106,-0.82611 0.5106,-0.82612 -1.5174,-0.58228 -1.5174,-0.58228 0.9879,1.84601 0.988,1.84601 -0.6315,0.63149 -0.6315,0.63148 h -0.8333 -0.8333 v -1.7 -1.7 l -1.2417,1.24164 -1.2416,1.24164 1.0904,0.70836 1.0903,0.70836 -0.015,1.75 -0.015,1.75 h -0.9403 -0.9403 l 0.5756,-1.5 0.5756,-1.5 h -0.9686 -0.9686 v 1.5 1.5 h -1.5591 -1.559 l 0.6181,1 0.618,1 h -2.166 -2.166 l 0.5756,1.5 0.5756,1.5 -1.2186,0.0689 -1.2186,0.0689 -2.8223,0.37058 -2.8222,0.37058 1.2147,-1.46365 1.2148,-1.46364 -0.5615,-0.56148 -0.5615,-0.56148 -1.2141,2.26864 -1.21419,2.26864 2.24389,1.81701 2.2439,1.817 h -0.9108 -0.9107 l -1.2,-1.2 -1.20005,-1.2 v 0.77258 0.77258 l -2.63486,-2.07258 -2.63486,-2.07258 -1.11514,0.0153 -1.11514,0.0153 1.5,0.98468 1.5,0.98469 -1.45225,0.93402 -1.45226,0.93401 -0.79774,-0.493 -0.79775,-0.49303 v 1.166 1.16601 l 1.5,-0.57561 1.5,-0.5756 v 1.5756 1.57561 l -1.34068,-0.51447 -1.34069,-0.51447 -1.40931,0.90748 -1.40932,0.90748 1.37812,0.8882 1.37811,0.88819 -0.77727,1.25765 -0.77727,1.25765 2.89916,-0.61927 2.89915,-0.61926 -2.5,1.20431 -2.5,1.20432 -1.2182,1.5191 -1.21819,1.51911 -0.0318,-1.05 -0.0318,-1.05 1.25,-1.34718 1.25,-1.34718 -1.75,0.6158 -1.75,0.61579 v -1.5756 -1.57561 l 1.64144,0.62988 1.64145,0.62988 -1.2639,-1.52289 -1.26389,-1.52289 h -0.87755 -0.87756 v 1.5 1.5 l -2.25,0.13618 -2.25,0.13618 2.14806,0.42001 2.14807,0.42002 0.45228,1.72952 0.45228,1.72952 h -1.85035 -1.85034 v -0.78572 -0.78571 h -2.12244 -2.12245 l 1.03677,1.25 1.03677,1.25 -2.47925,0.14826 -2.47924,0.14825 -0.45862,0.45862 -0.45862,0.45861 0.62833,1.63739 0.62832,1.63738 0.78191,-0.48324 0.78191,-0.48325 1.3633,1.68095 1.36331,1.68095 -1,-0.53777 -1,-0.53777 -2,-0.78642 -2,-0.78642 -2.49005,-0.32514 -2.49004,-0.32515 1.28738,0.79565 1.28738,0.79564 -1.60062,1.3284 -1.60062,1.32839 h -2.93084 -2.93084 l 1.04154,1.25498 1.04153,1.25497 -1.23931,1.98445 -1.23931,1.98445 -2.3181,-0.88134 -2.3181,-0.88134 v 0.85281 0.8528 l 1.34201,1.11377 1.34201,1.11377 0.66632,-0.48299 0.66633,-0.48299 -1.04998,1.2333 -1.04997,1.23331 -0.70836,-1.06458 -0.70836,-1.06458 -1.87617,-0.69409 -1.87617,-0.69409 1.54532,2.35845 1.54532,2.35845 -4.59479,-0.31659 -4.59478,-0.31659 -0.90266,-1.27483 -0.90265,-1.27483 0.44624,2.78461 0.44623,2.78461 -0.51907,-0.51907 -0.51907,-0.51906 -1.42303,1.73445 -1.42303,1.73446 0.65027,-1.27767 0.65028,-1.27768 -3.10553,0.54712 -3.10553,0.54712 -1.72059,-0.88432 -1.72059,-0.88431 -1.25623,0.45028 -1.25623,0.45028 0.58039,1.16459 0.58038,1.16459 -1.64473,-2 -1.64474,-2 -1.00375,0.27478 -1.00375,0.27477 0.5231,-0.84639 0.52311,-0.8464 -1.94878,-1.66859 -1.94877,-1.6686 v 0.55596 0.55595 l 1.03518,1.93426 1.03519,1.93426 h -0.34252 -0.34252 l -6.44266,-3.31759 -6.44267,-3.31759 -6,-3.32642 -6,-3.32641 -1.05997,-0.82073 -1.05997,-0.82073 -11.79745,-4.55961 -11.79745,-4.55961 -2.43487,-1.27576 -2.43488,-1.27576 4.65045,-3.3397 4.65045,-3.3397 -0.57343,-3.6102 -0.57342,-3.61019 -3.05051,-2.75 -3.0505,-2.75 h -3.3382 -3.3382 l -2.60558,2.41477 -2.60558,2.41477 -0.61853,2.4644 -0.61852,2.4644 0.32808,2.83853 0.32808,2.83853 3.5,2.35036 3.5,2.35037 1.06314,1.98418 1.06314,1.98417 4.43686,3.01004 4.43686,3.01003 14,6.76045 14,6.76044 9.44901,5.86094 9.44901,5.86095 -1.23263,0.41087 -1.23263,0.41088 -1.49055,-1.23704 -1.49054,-1.23704 -0.69688,0.69687 -0.69687,0.69688 1.15988,0.71684 1.15988,0.71685 -1.56374,3.22878 -1.56375,3.22878 h -0.87509 -0.8751 l -0.0153,-1.75 -0.0153,-1.75 -0.75261,1.18351 -0.75261,1.18351 -6.98208,-2.99446 -6.98207,-2.99447 -10,-4.00772 -10,-4.00772 -7.5,-3.1312 -7.5,-3.1312 -1.18347,-1.40026 -1.18346,-1.40027 -1.06654,0.65916 -1.06656,0.65915 v -1.05901 -1.05902 h -1.05902 -1.05901 l 0.61803,1 0.61803,1 h -0.77322 -0.77323 l -12.23151,-6 -12.23151,-6 h -3.47249 -3.4725 l -1.58178,0.60699 -1.58179,0.60699 v 2.70188 2.70188 l 1.25,1.57634 1.25,1.57634 6,0.50985 6,0.50986 17,6.22543 17,6.22543 13,6.00673 13,6.00673 7.25,3.37082 7.25,3.37083 v 0.60894 0.60894 l -1.5,-0.57561 -1.5,-0.5756 v 0.96861 0.96862 h -0.96862 -0.96861 l 0.5756,-1.5 0.57561,-1.5 h -1.0252 -1.02521 l -1.58178,-0.60699 -1.58179,-0.60699 v 1.03367 1.03366 l 1.75,0.45732 1.75,0.45733 -4.5,0.232 -4.5,0.232 1.75,0.45733 1.75,0.45732 v 1.03366 1.03367 l -1.5,-0.57561 -1.5,-0.5756 v 0.96861 0.96862 l 1.75,0.0153 1.75,0.0153 -1.45225,0.9187 -1.45226,0.9187 -0.78629,-0.48595 -0.78629,-0.48596 0.59553,1.55194 0.59554,1.55194 h -1.08416 -1.08416 l -6.77283,-2.54813 -6.77283,-2.54814 -7,-3.80895 -7,-3.80895 -4.28362,-0.66011 -4.28361,-0.66011 -2.09356,1.12044 -2.09356,1.12044 -0.74782,-1.21001 -0.74783,-1.21001 -0.64603,1.04531 -0.64603,1.0453 1.27103,0.81146 1.27103,0.81146 1.07733,1.94982 1.07733,1.94981 2.60034,1.94143 2.60034,1.94144 6.62734,0.44806 6.62733,0.44807 8.445,4.49248 8.44499,4.49248 v 0.43163 0.43162 l -3.65473,-1.52704 -3.65474,-1.52705 -2.47715,1.6231 -2.47716,1.62309 0.88189,0.64053 0.88189,0.64053 0.21838,1.15514 0.21838,1.15515 -1.46838,0.56347 -1.46838,0.5635 v -0.94386 -0.94387 l -2.25,0.83167 -2.25,0.83167 -1.5,-0.43255 -1.5,-0.43255 1.5,1.06082 1.5,1.06081 -0.87244,0.0153 -0.87245,0.0153 1.26495,1.52417 1.26494,1.52416 -0.45322,0.45322 -0.45322,0.45323 -1.93928,0.30154 -1.93928,0.30154 -1.40451,0.87558 -1.40451,0.87558 0.63317,-1.02449 0.63316,-1.02448 -3.45106,0.17571 -3.45106,0.17571 -0.77759,0.85459 -0.7776,0.85459 1.04775,-0.59434 1.04774,-0.59434 1.45226,1.02835 1.45225,1.02834 -1.75,-0.56294 -1.75,-0.56295 -0.0304,1.21861 -0.0304,1.21862 -1.01928,-1.75 -1.01928,-1.75 -1.20031,0.0153 -1.20031,0.0153 1.5,0.96937 1.5,0.96937 -0.81574,0.0153 -0.81574,0.0153 -1.81007,-0.96872 -1.81006,-0.96872 -4.69282,-0.43839 -4.69281,-0.4384 -1.68138,-1.42745 -1.68138,-1.42745 -4,-2.00722 -4,-2.00721 -4.49141,-0.70864 -4.49141,-0.70864 2.99141,2.88936 2.99141,2.88935 3,1.90126 3,1.90126 4.3266,3.25981 4.32659,3.2598 h -1.07661 -1.0766 v 1.05902 1.05901 l 0.89522,-0.55327 0.89521,-0.55327 0.54534,1.42114 0.54535,1.42114 -1.19056,0.91788 -1.19056,0.91788 -1.81338,0.64817 -1.81338,0.64817 0.71789,1.16158 0.71789,1.16157 -1.17082,-0.72361 -1.17082,-0.72361 0.57533,-0.9309 0.57532,-0.93081 h -1.05901 -1.05902 v 1.36573 1.36572 l -3.91675,-0.71623 -3.91676,-0.71623 -0.64233,3.42392 -0.64233,3.42391 -1.4299,-1.18672 -1.42991,-1.18671 0.445,-0.72003 0.445,-0.72003 h -1.41298 -1.41297 l -0.53158,1.38527 -0.53158,1.38528 0.87916,-0.54336 0.87916,-0.54335 1.63244,2.49142 1.63244,2.49141 h -0.82306 -0.82305 l -1.34718,-1.25 -1.34718,-1.25 0.67007,1.89144 0.67007,1.89145 -1.71012,-1.39145 -1.71012,-1.39144 0.6363,1.69907 0.6363,1.69907 -1.44907,-0.55606 -1.44907,-0.55606 -0.0153,1.85699 -0.0153,1.85699 -0.96937,-1.5 -0.96937,-1.5 -0.0153,1.26905 -0.0153,1.26905 -2.5113,-0.63029 -2.51131,-0.6303 0.61609,1.6055 0.61609,1.6055 0.82612,-0.51057 0.82611,-0.51056 0.5871,0.94994 0.58709,0.94994 -2.87388,-0.0817 -2.87389,-0.0817 -1.16042,0.71719 -1.16042,0.71718 0.70827,1.1809 0.70827,1.1809 -1.69196,-1.37244 -1.69199,-1.37248 v 0.54066 0.54066 l 0.60478,1.57604 0.60479,1.57604 0.82612,-0.51057 0.82611,-0.51056 0.52804,0.85439 0.52805,0.85438 -3.20895,-0.0881 -3.20894,-0.088 0.25,1.25 0.25,1.25 -1.25,0.11842 -1.25,0.11842 -0.87268,-0.15931 -0.87268,-0.15932 0.54786,1.42771 0.54786,1.42771 -2.17518,-0.47356 -2.17518,-0.47356 1.5,1.07143 1.5,1.07143 -1,0.13374 -1,0.13373 -0.75,-0.11842 -0.75,-0.11842 v 0.91667 0.91666 l 1.25,0.50439 1.25,0.50439 -2.85699,0.0789 -2.85699,0.079 0.53217,1.38682 0.53217,1.38681 -1.92518,-0.50345 -1.92518,-0.50345 v 1.72362 1.72362 l 1.5,-0.57561 1.5,-0.5756 v 0.96861 0.96862 h -1.60699 -1.60699 l 0.57561,1.5 0.5756,1.5 h -1.27749 -1.27748 l -1.94113,1.45026 -1.94113,1.45027 2.5,-0.43346 2.5,-0.43345 -2.71195,1.16285 -2.71196,1.16285 -0.52659,1.37228 -0.52659,1.37228 0.99613,-0.61565 0.99614,-0.61564 -1.15382,2.53235 -1.15382,2.53235 -0.74898,-0.4629 -0.74899,-0.4629 -0.53638,1.3978 -0.53639,1.39781 0.51835,2.34645 0.51834,2.34645 -0.97493,-1.37812 -0.97494,-1.37811 -1.21857,0.75311 -1.21857,0.75312 1.35677,0.85969 1.35676,0.85968 -1.75,0.0153 -1.75,0.0153 v 1.41667 1.41666 l 1.24734,0.41578 1.24733,0.41578 -2.24733,1.20274 -2.24734,1.20274 v 1.39339 1.39338 l 1.4743,1.4743 1.4743,1.47431 -1.52624,0.58567 -1.52624,0.58567 0.69114,-1.11828 0.69113,-1.11827 -1.38919,0.48094 -1.3892,0.48094 0.0795,2.14945 0.0795,2.14945 -1.82947,-1.65565 -1.82953,-1.65565 v 1.15499 1.15499 h 0.89301 0.89301 l 0.59554,1.55194 0.59553,1.55194 -0.93061,-0.57515 -0.93062,-0.57516 -1.68884,3.55897 -1.68884,3.55897 0.60737,0.60738 0.60737,0.60737 0.63053,-1.64313 0.63053,-1.64313 h 0.89301 0.89301 v 0.96104 0.96105 l -2.08621,1.9436 -2.08622,1.94361 1.07823,2.01468 1.07822,2.01468 -1.24201,0.55026 -1.24201,0.55026 1.69958,1.24349 1.69959,1.2435 -2.69959,1.89239 -2.69958,1.89239 1.75,-0.57409 1.75,-0.57409 v 0.96861 0.96862 h -1 -1 v 0.84699 0.84699 l 2.00634,2.31333 2.00635,2.31334 -0.56072,0.56071 -0.56072,0.56072 -0.93031,-1.47104 -0.93031,-1.47104 -0.0153,1.75 -0.0153,1.75 -0.75,-0.11842 -0.75,-0.11842 -0.82143,0.11842 -0.82143,0.11842 1.33929,1.33929 1.33928,1.33928 1.48215,0.58177 1.48214,0.58177 -1.75,0.0789 -1.75,0.079 v 0.91667 0.91666 l 1.25,0.50439 1.25,0.50439 -1.55,0.0789 -1.55,0.079 -1.35382,-1.25 -1.35381,-1.25 1.90381,2.64169 1.90382,2.64169 0.70836,-1.13333 0.70836,-1.13333 1.24164,1.24164 1.24164,1.24163 -1.25925,1.25 -1.25924,1.25 0.65358,-2 0.65357,-2 -1.03713,1.46646 -1.03713,1.46646 1.13449,1.36697 1.13448,1.36696 0.17928,1.66658 0.17929,1.66657 0.73602,1.75 0.73602,1.75 -1.85699,0.11842 -1.85699,0.11842 -1,-0.18985 -1,-0.18985 1.14264,1.16407 1.14264,1.16407 2.04667,-1.09534 2.04667,-1.09535 0.61971,1.00271 0.6197,1.0027 -0.59104,0.95633 -0.59104,0.95632 -1.69479,-0.65035 -1.6948,-0.65035 2.47682,2.5622 2.47682,2.56221 0.73855,-0.42012 0.73854,-0.42012 -0.65848,1.71599 -0.65849,1.71598 1.41994,-0.88592 1.41994,-0.88593 1.25476,-0.19033 1.25477,-0.19034 -0.57387,0.92853 -0.57386,0.92852 -0.90158,-0.55721 -0.90159,-0.55721 -0.64539,2.57145 -0.64539,2.57144 -2.13392,-0.59605 -2.13393,-0.59605 1.5,1.04267 1.5,1.04268 1.85628,-0.57829 1.85628,-0.57829 -0.98957,1.76826 -0.98957,1.76827 1.13329,1.43121 1.13329,1.43122 2.85698,2.7958 2.85697,2.7958 -2.85697,1.36931 -2.85698,1.36932 v 1.48652 1.48653 l 2,-0.29336 1.99999,-0.29335 3.90133,-0.4413 3.90132,-0.44131 -0.54113,0.54113 -0.54113,0.54113 -2.86019,0.37463 -2.8602,0.37463 -0.5,0.0836 -0.5,0.0836 2.5,1.38721 2.5,1.38721 0.69098,0.0981 0.69099,0.0981 z m 387.47064,-5.71834 8.5822,-4.63293 7.5,-4.71378 7.5,-4.71377 3.5,-2.07925 3.5,-2.07925 11.5,-6.76691 11.5,-6.76692 8,-5.23848 8,-5.23848 13,-8.05546 13,-8.05546 6,-3.14328 6,-3.14328 4.25,-3.03943 4.25,-3.03943 v -2.7953 -2.79529 l -1.9343,-1.03519 -1.9343,-1.03518 h -0.9334 -0.9335 l -8.0573,5.25 -8.0573,5.25 -10.325,5.96073 -10.3249,5.96072 -4.6431,4.3261 -4.6431,4.3261 -1.9691,0.37922 -1.9692,0.37922 -5.8877,3.08814 -5.8878,3.08814 -28.5,17.24582 -28.5,17.24581 -1.3399,2.82373 -1.34,2.82373 0.609,2.42627 0.609,2.42627 h 0.6487 0.6488 z m -262.89533,-9.18422 2.24409,-1.81715 0.84337,-18.42508 0.84336,-18.42507 0.77333,-0.2602 0.77333,-0.26019 8.5,-4.85148 8.5,-4.85148 9,-5.22778 9,-5.22777 1.78895,-1.73505 1.78894,-1.73505 -0.58744,-1.53085 -0.58745,-1.53085 -8.7015,-4.85756 -8.7015,-4.85756 -11,-5.75964 -11,-5.75965 -1.90174,-0.0352 -1.90173,-0.0352 -8.09827,4.65537 -8.09826,4.65537 -7,4.69746 -7,4.69746 -3.25,1.67285 -3.25,1.67285 v 1.80001 1.8 l 2.25,2.03222 2.25,2.03221 10,6.08135 10,6.08136 6.89903,3.22474 6.89904,3.22474 -0.64608,14.92672 -0.64608,14.92671 -0.49412,0.7995 -0.49412,0.79951 -7.75884,-4.9417 -7.75883,-4.94171 -11,-6.73099 -11,-6.731 0.0352,-4.96751 0.0352,-4.96752 1.38301,-7.59049 1.38301,-7.59049 -0.84414,-1.90951 -0.84414,-1.90951 -0.38752,2.5 -0.38751,2.5 -2.4901,12.28027 -2.4901,12.28027 0.30355,4.66074 0.30356,4.66074 15.59859,9.05899 15.59859,9.05899 3.40141,2.23315 3.40141,2.23316 1.13922,0.0168 1.13921,0.0168 z m -5.63816,-46.67708 -6.88436,-3.49422 -2.5,-2.03088 -2.5,-2.03088 1,0.14353 1,0.14352 1.75,-0.11842 1.75,-0.11842 v -2.5 -2.5 h 0.75589 0.75589 l 1.32793,-3 1.32793,-3 h 0.91618 0.91618 v 1.31144 1.31144 l 2.03896,2.18856 2.03895,2.18856 0.71105,-0.009 0.71104,-0.009 5.5,-3.19037 5.5,-3.19036 1.5,-0.33266 1.5,-0.33265 3.5,-0.16273 3.5,-0.16273 3,0.62837 3,0.62837 5.75,0.68199 5.75,0.68199 v 0.67434 0.67434 l -7.17604,3.96043 -7.17603,3.96044 -9.57397,5.23597 -9.57396,5.23597 -1.61564,0.014 -1.61565,0.014 z m -49.82549,14.07381 1.94113,-1.42042 v -19.71608 -19.71607 l 15.41755,-8.23985 15.41755,-8.23985 3.08245,-2.60569 3.08245,-2.60569 -3.20403,-2.80241 -3.20403,-2.80241 -14.29597,-7.64863 -14.29597,-7.64862 -3.59018,-1.67593 -3.59017,-1.67593 -8.40983,5.40775 -8.40982,5.40774 -8.63622,5.19965 -8.63621,5.19964 -0.6931,4.6219 -0.69309,4.6219 -3.96617,13.5634 -3.96617,13.56341 0.29548,2.0347 0.29548,2.03471 5.2103,3.5316 5.21031,3.5316 7.61479,4.5 7.6148,4.5 5.05761,3.87815 5.0576,3.87815 2.6173,1.36569 2.61729,1.36569 1.55887,0.006 1.55887,0.006 z m -21.05887,-20.21001 -19,-11.53988 -1.43872,-1.38928 -1.43873,-1.38928 2.68873,-9.51864 2.68872,-9.51864 v -3.00693 -3.00692 h 0.3783 0.37831 l 8.37169,4.64651 8.3717,4.6465 9,4.48262 9,4.48263 0.73469,1.12087 0.73468,1.12087 -0.10889,8.5 -0.1089,8.5 -0.62579,6.70472 -0.62579,6.70473 z m 18,-25.62358 -3,-1.07611 -4.8353,-2.9732 -4.83531,-2.9732 1.17171,-0.72416 1.17171,-0.72415 -0.28271,-3.91546 -0.2827,-3.91545 0.76215,-1.2332 0.76216,-1.23319 3.01107,3.01106 3.01107,3.01107 h 2.77303 2.77304 l 4.14138,-3 4.14138,-3 h 2.61533 2.61532 l 8.89334,1.62706 8.89333,1.62705 v 0.71988 0.71987 l -13.25,7.03266 -13.25,7.03265 -2,0.53147 -2,0.53146 z m 198.50005,29.60103 13.5,-7.62603 4.3013,-2.47468 4.3013,-2.47468 -0.3082,-1.60053 -0.3082,-1.60053 -9.9931,-5.92504 -9.9931,-5.92503 -10.6945,-5.36025 -10.6944,-5.36025 h -2.3623 -2.3622 l -12.9433,7.97548 -12.9433,7.97548 -1.75,1.033 -1.75,1.03299 v 2.05727 2.05726 l 0.9897,1.84933 0.9897,1.84933 16.2603,8.97804 16.2603,8.97804 2.25,0.67428 2.25,0.67428 0.1571,5.18261 0.1571,5.18261 0.5929,-4.76348 0.5929,-4.76347 z m -19.1949,2.23473 -2.6949,-1.40593 -4.8051,-3.72288 -4.8051,-3.72288 2.9962,0.71582 2.9962,0.71583 -1.9962,-1.83086 -1.9962,-1.83085 -0.2933,-3.75 -0.2933,-3.75 h 1.0433 1.0433 v 1.34501 1.34501 l 1.8287,1.65499 1.8287,1.65499 h 1.7851 1.7851 l 4.1362,-2.12495 4.1362,-2.12496 1.3465,-0.63726 1.3466,-0.63727 9.6534,1.18334 9.6535,1.18335 1.7774,0.39155 1.7775,0.39154 0.1251,0.93733 0.1252,0.93733 -12.9026,7.24607 -12.9026,7.24607 -2,-0.002 -2,-0.002 z m -58.84195,-23.98497 0.91371,-2.40322 13.01545,-7.17208 13.01549,-7.17207 4.0461,-2.93098 4.0461,-2.93097 v -1.47954 -1.47954 l -3.75,-2.36924 -3.75,-2.36925 -10.00005,-5.50891 -10,-5.50891 -7.6695,-3.28137 -7.6695,-3.28138 -9.8305,5.79577 -9.8305,5.79577 -5.75,3.42198 -5.75,3.42197 v 2.92759 2.9276 l 1.84393,1.84393 1.84393,1.84393 12.20627,6.71313 12.20627,6.71312 4.4498,1.90741 4.4498,1.90741 v 2.53553 2.53554 h 0.52475 0.52475 z m -5.2132,-7.16875 -2.75,-1.4919 v -0.30095 -0.30094 l 2.25,0.19593 2.25,0.19592 0.70548,-0.39455 0.70548,-0.39454 -2.92953,-4.9685 -2.92954,-4.9685 1.72406,-0.007 1.72405,-0.007 2.96505,-1.95447 2.96505,-1.95447 0.76964,1.21106 0.76963,1.21106 0.0153,-3.29775 0.0153,-3.29693 -2.64602,-2.45225 -2.64603,-2.45225 h 0.92352 0.92352 l 2.16304,1.51505 2.16303,1.51505 0.30947,3.63516 0.30947,3.63516 4,0.37162 4,0.37162 3.5,0.0955 3.5,0.0955 2.50005,-0.64099 2.5,-0.641 1.5,1.09981 1.5,1.0998 -1.0405,0.43735 -1.0404,0.43734 -12.45957,6.95586 -12.45958,6.95585 -1.5,-0.009 -1.5,-0.009 z m 342.75005,4.69008 6,-2.88031 12.6416,-7.8689 12.6416,-7.8689 5.1482,-2.77193 5.1482,-2.77193 0.6193,-1.61399 0.6193,-1.614 -1.0112,-1.61407 -1.0113,-1.61408 -2.1718,-0.32269 -2.1718,-0.32268 -6.7261,3.74981 -6.726,3.74981 -12.5976,7.79381 -12.5976,7.79381 -5.1524,-0.61023 -5.1524,-0.61022 v 4.58259 4.58258 l 2.2225,1.55671 2.2225,1.5567 1.0275,-7.9e-4 1.0275,-7.9e-4 z m -209.7854,-4.71721 9.7854,-5.5991 6.25,-4.01836 6.25,-4.01836 v -2.22755 -2.22755 l -1.75,-1.53331 -1.75,-1.5333 -9,-4.83887 -9,-4.83887 -7.9671,-3.88091 -7.9671,-3.88091 -3.0329,-0.44794 -3.0329,-0.44793 -11,6.66965 -11,6.66964 -2.778,1.62639 -2.7779,1.62638 -0.5571,2.15686 -0.5571,2.15686 1.0601,1.98088 1.0602,1.98088 7.7749,4.98619 7.7749,4.9862 9.5,5.11217 9.5,5.11218 1.7146,0.0139 1.7146,0.0139 z m -17.8998,-0.38184 -3.6852,-2.00035 -0.6239,-1.00936 -0.6238,-1.00935 h 0.6248 0.6247 l 1.9486,1.04282 1.9485,1.04283 -0.1327,-0.79283 -0.1327,-0.79282 0.1184,-2.67661 0.1185,-2.67661 5.25,-2.92843 5.25,-2.92842 8.5,0.38627 8.5,0.38626 3.9605,0.0557 3.9605,0.0557 -2.3902,1.80295 -2.3902,1.80295 -9.9996,5.72936 -9.9996,5.72936 -3.5707,0.39051 -3.5707,0.3905 z m 228.8073,-17.36233 5.0764,-3.34326 5.4007,-2.99527 5.4008,-2.99528 10.5088,-6.41146 10.5088,-6.41146 2.3932,-1.70061 2.3932,-1.70062 -2.1098,-5.79938 -2.1098,-5.79939 -1.5274,-6.5 -1.5275,-6.5 -0.015,-3.34023 -0.015,-3.34023 -2.75,-2.3805 -2.75,-2.3805 -8.5,-5.1743 -8.5,-5.17429 -9.748,-5.45349 -9.748,-5.45349 -2.8417,0.99062 -2.8417,0.99061 -17.4103,10.16987 -17.4103,10.16986 -2.3868,2.65283 -2.3868,2.65282 4.1222,3.65812 4.1222,3.65811 15.2646,7.55903 15.2646,7.55902 2.6619,0.65437 2.662,0.65438 -0.5552,15.21172 -0.5552,15.21173 1.1784,2.20197 1.1785,2.20197 h 1.2376 1.2376 z m -5.9555,-2.3234 -0.6666,-0.66666 v -14.12931 -14.12931 l 11.25,-6.38286 11.25,-6.38286 7.8292,-4.82116 7.8292,-4.82117 h 0.3413 0.3413 l 0.6134,3.25 0.6133,3.25 2.1542,8.75224 2.1542,8.75223 -1.9381,1.44047 -1.938,1.44047 -9.5,5.25479 -9.5,5.25479 -8.2011,5.27684 -8.2011,5.27684 -1.0841,2.02567 -1.0841,2.02566 h -0.7982 -0.7981 z m -374.84992,-16.8352 14.31673,-7.87899 1.03366,-1.9314 1.03366,-1.93141 -1.85039,-1.77571 -1.85039,-1.77571 -17.17872,-9.60245 -17.17873,-9.60246 h -2.05044 -2.05045 l -14.27083,8.56905 -14.27083,8.56906 -1.87124,1.37984 -1.87123,1.37983 0.57869,2.30111 0.57869,2.30111 10.23777,6 10.23778,6 8.55477,4.53741 8.55477,4.53741 2.5,-1.59885 2.5,-1.59885 z m 112.79172,1.87066 17.2783,-9.63122 0.5877,-1.53161 0.5877,-1.53161 -2.6535,-2.76971 -2.6536,-2.76972 -17.7843,-9.06746 -17.7843,-9.06746 h -1.658 -1.658 l -11.8304,6.9764 -11.8305,6.97641 -3.10478,2.61249 -3.10477,2.61249 v 2.23679 2.23679 l 2.25,2.04074 2.25,2.04074 14.50005,7.78817 14.5,7.78816 2,1.29296 2,1.29296 0.415,0.0524 0.415,0.0525 z m 106.2684,5.48711 7.6232,-4.1441 9.25,-5.4532 9.25,-5.45321 v -1.76669 -1.7667 l -3.75,-2.49571 -3.75,-2.49571 -11.1131,-6.15471 -11.1131,-6.15471 -6.1171,-2.48558 -6.117,-2.48558 -1.7699,0.0188 -1.7698,0.0189 -14,8.78711 -14,8.7871 -0.3223,2.75451 -0.3223,2.75451 1.1867,1.42985 1.1867,1.42985 9.1163,5.21688 9.1164,5.21689 9.5192,4.21415 9.5193,4.21415 0.3768,0.0786 0.3769,0.0786 z m -180.87685,-30.05144 4.5,-2.52241 11.70607,-6.76374 11.70608,-6.76374 1.7939,-1.98489 1.794,-1.98489 -3.2245,-2.69392 -3.2245,-2.69392 -13.77554,-7.60328 -13.77551,-7.60327 -3.54288,-1.22119 -3.54287,-1.22119 -4.45713,2.271 -4.45712,2.271 -11,6.52692 -11,6.52692 -1.79402,1.52289 -1.79402,1.5229 0.29402,1.95071 0.29402,1.95071 6.5,3.96542 6.5,3.96543 11.36599,5.58834 11.366,5.58835 1.09964,1.76081 1.09964,1.7608 0.53437,-0.79667 0.53436,-0.79668 z m 126.31705,-5.96146 16.183,-9.15701 1.8546,-1.72546 1.8547,-1.72547 -0.6563,-2.06788 -0.6563,-2.06788 -3.1984,-1.95764 -3.1983,-1.95765 -16.1601,-8.09201 -16.1601,-8.092 h -2.2262 -2.2262 l -14.1715,8.41591 -14.1715,8.41592 -1.3938,1.6795 -1.3939,1.6795 1.477,2.65459 1.477,2.65458 4.4746,2.81418 4.4747,2.81418 13.5,7.37495 13.5,7.37495 0.317,0.0609 0.3171,0.0609 z m 103.9662,6.52585 5.2168,-2.63114 11.75,-6.93977 11.75,-6.93976 v -1.34176 -1.34177 l -10.75,-5.98174 -10.75,-5.98174 -10.1762,-5.10559 -10.1762,-5.10558 h -1.8935 -1.8935 l -10.8854,6.53771 -10.8853,6.5377 -3.295,2.51319 -3.2949,2.51318 v 1.83833 1.83832 l 1.75,2.1286 1.75,2.12861 17,8.9687 17,8.9687 1.2832,0.0135 1.2832,0.0135 z m 50.4953,-30.26968 5.7215,-2.90083 11.6402,-6.84917 11.6403,-6.84917 3.2514,-1.78478 3.2513,-1.78478 -2.1816,-2.32224 -2.1816,-2.32225 -10.21,-5.29934 -10.21,-5.29934 -8.1964,-4.9655 -8.1964,-4.96551 -2.3036,0.58713 -2.3036,0.58712 -14.9451,8.54365 -14.945,8.54365 -2.305,2.16541 -2.3049,2.16541 v 1.62952 1.62952 l 3.25,3.09267 3.25,3.09268 6,3.02165 6,3.02166 9,5.07955 9,5.07955 1.2785,0.002 1.2785,0.002 z m -102.7785,-6.86871 11.5,-6.49678 4.75,-2.97108 4.75,-2.97109 -0.012,-1.64576 -0.012,-1.64575 -3.6313,-2.35338 -3.6314,-2.35338 -9.1696,-5.29385 -9.1696,-5.29385 -7.2914,-3.10277 -7.2914,-3.10277 h -1.488 -1.4881 l -9.1572,5.41653 -9.1572,5.41652 -5.75,3.55169 -5.75,3.55168 v 2.85748 2.85747 l 2.25,2.0491 2.25,2.0491 15,8.22743 15,8.22742 0.9032,0.85098 0.9031,0.85099 2.0969,-1.08958 2.0968,-1.08958 z m -117.3088,1.62287 11.3232,-6.14667 6.2428,-4.10333 6.2428,-4.10333 0.3065,-1.66303 0.3066,-1.66304 -4.4293,-3.04741 -4.4292,-3.04741 -15.1101,-7.53955 -15.11,-7.53956 -1.7673,0.0181 -1.7672,0.0181 -5,2.83471 -5,2.83471 -10.00005,5.73738 -10,5.73738 -1.25,1.03224 -1.25,1.03224 v 1.70324 1.70324 l 2.25,2.01636 2.25,2.01636 7,3.86086 7.00005,3.86086 7.5,3.69095 7.5,3.69095 2,1.57434 2,1.57434 0.934,0.0318 0.934,0.0318 z m -193.91376,-13.41003 2.22251,-1.55671 -0.0153,-2.19329 -0.0153,-2.1933 -0.73468,-1.0231 -0.73469,-1.0231 -2.5,-1.53243 -2.5,-1.53244 -3.77798,0.65266 -3.77797,0.65267 -1.44022,1.90287 -1.44022,1.90287 -0.0318,1.29545 -0.0318,1.29546 2.45455,2.45454 2.45454,2.45455 h 3.82295 3.82295 z m 359.22256,-16.4163 4.5,-2.23417 10.7205,-6.00843 10.7205,-6.00843 1.1519,-1.38799 1.1519,-1.38798 -1.3203,-1.59088 -1.3203,-1.59088 -11.0521,-5.53118 -11.0521,-5.53117 -7,-4.23358 -7,-4.23357 -2,-0.61398 -2,-0.61398 -6,3.31479 -6,3.31479 -6.8899,3.90482 -6.8898,3.90482 -4.006,3.54324 -4.006,3.54324 1.1438,2.13722 1.1438,2.13721 2.874,2.04648 2.874,2.04647 15.2963,8.47133 15.2963,8.47132 2.5818,-1.81767 2.5817,-1.81767 z m -100.5,-7.76045 4,-2.42112 4.8168,-2.9431 4.8169,-2.94311 -0.3169,-2.22961 -0.3168,-2.22961 -9.5,-4.84242 -9.5,-4.84243 -9.9074,-5.4765 -9.9073,-5.4765 -2.2096,0.55458 -2.2096,0.55458 -4.8831,3.33342 -4.883,3.33342 -8.1751,4.33358 -8.175,4.33358 -2.8065,2.23784 -2.8065,2.23785 0.9815,2.75308 0.9816,2.75308 18.5,9.7373 18.5,9.73731 9.5,-5.03706 9.5,-5.03705 z m 41.6268,-24.2057 11.3732,-5.93914 6.9895,-3.82769 6.9895,-3.82768 0.3231,-1.67755 0.3231,-1.67754 -3.8126,-2.39784 -3.8126,-2.39784 -7.5,-4.2954 -7.5,-4.29541 -7.7637,-4.36238 -7.7637,-4.36238 h -1.9033 -1.9032 l -6.8331,3.58972 -6.833,3.58971 -9.75,6.06466 -9.75,6.06466 v 2.32257 2.32257 l 2.6851,1.77306 2.6852,1.77305 16.0648,8.62902 16.0649,8.62901 0.1268,0.12099 0.1269,0.12098 z m -312.87685,-7.91235 2.75,-1.57972 v -3.22768 -3.22769 l -2.22251,-1.55671 -2.2225,-1.5567 h -3.7124 -3.71239 l -2.33632,0.88827 -2.33633,0.88827 -1.39318,2.60319 -1.39319,2.60318 1.12533,2.46983 1.12533,2.46982 3.28908,0.9238 3.28908,0.92379 2.5,-0.52097 2.5,-0.52096 z m 82.67848,-0.61151 2.82916,-1.46302 0.62118,-1.61877 0.62118,-1.61877 v -2.97445 -2.97444 l -4.41302,-1.95209 -4.41302,-1.95209 -2.83515,1.07792 -2.83515,1.07793 -1.75183,1.58538 -1.75183,1.58539 v 3.03056 3.03056 l 2.17431,2.31445 2.17432,2.31445 h 3.37534 3.37535 z m 57.0598,-14.36898 2.51172,-1.86669 0.32289,-3.86078 0.32289,-3.86077 -1.76402,-1.28989 -1.76402,-1.28988 h -3.94084 -3.94083 l -3.36804,2.08156 -3.36803,2.08156 v 0.85334 0.85334 l 1.01352,2.66575 1.01351,2.66576 2.21929,1.79706 2.21928,1.79707 3.00547,-0.38037 3.00548,-0.38036 z m 312.54727,-0.18153 2.6658,-1.01351 1.866,-2.23649 1.8661,-2.23648 0.033,-2.17857 0.033,-2.17857 -1.5059,-1.50592 -1.5059,-1.50592 -2.0098,-0.63788 -2.0098,-0.63788 -3.4043,1.12352 -3.4043,1.12352 -1.159,1.39649 -1.159,1.39648 -0.4642,2.94577 -0.4643,2.94577 2.6781,2.10659 2.6781,2.1066 h 1.3001 1.3 z m 12.2145,-15.97552 3.25,-1.98156 v -3.94661 -3.9466 l -3.1758,-2.2613 -3.1757,-2.26131 -3.3498,0.095 -3.3499,0.095 -2.4744,1.6213 -2.4744,1.62123 v 4.0224 4.0224 l 2.4545,2.45454 2.4545,2.45455 3.2955,-0.004 3.2955,-0.004 z"
       id="path1" />
  </g>
</svg>
