<?xml version="1.0" encoding="UTF-8" standalone="no"?>
<!-- Created with Inkscape (http://www.inkscape.org/) -->

<svg
   version="1.1"
   id="svg1"
   width="1200"
   height="900"
   viewBox="0 0 1200 900"
   sodipodi:docname="x_logo_supermana terminarrrrrrrrrrrr.svg"
   inkscape:version="1.3.2 (091e20e, 2023-11-25, custom)"
   xmlns:inkscape="http://www.inkscape.org/namespaces/inkscape"
   xmlns:sodipodi="http://sodipodi.sourceforge.net/DTD/sodipodi-0.dtd"
   xmlns="http://www.w3.org/2000/svg"
   xmlns:svg="http://www.w3.org/2000/svg">
  <defs
     id="defs1">
    <inkscape:path-effect
       effect="bspline"
       id="path-effect4-4"
       is_visible="true"
       lpeversion="1.3"
       weight="33.333333"
       steps="2"
       helper_size="0"
       apply_no_weight="true"
       apply_with_weight="true"
       only_selected="false"
       uniform="false" />
    <inkscape:path-effect
       effect="bspline"
       id="path-effect6-9"
       is_visible="true"
       lpeversion="1.3"
       weight="33.333333"
       steps="2"
       helper_size="0"
       apply_no_weight="true"
       apply_with_weight="true"
       only_selected="false"
       uniform="false" />
    <inkscape:path-effect
       effect="bspline"
       id="path-effect8-4"
       is_visible="true"
       lpeversion="1.3"
       weight="33.333333"
       steps="2"
       helper_size="0"
       apply_no_weight="true"
       apply_with_weight="true"
       only_selected="false"
       uniform="false" />
    <inkscape:path-effect
       effect="bspline"
       id="path-effect9-8"
       is_visible="true"
       lpeversion="1.3"
       weight="33.333333"
       steps="2"
       helper_size="0"
       apply_no_weight="true"
       apply_with_weight="true"
       only_selected="false"
       uniform="false" />
    <inkscape:path-effect
       effect="bspline"
       id="path-effect11-3"
       is_visible="true"
       lpeversion="1.3"
       weight="33.333333"
       steps="2"
       helper_size="0"
       apply_no_weight="true"
       apply_with_weight="true"
       only_selected="false"
       uniform="false" />
    <inkscape:path-effect
       effect="bspline"
       id="path-effect2-7-7"
       is_visible="true"
       lpeversion="1.3"
       weight="33.333333"
       steps="2"
       helper_size="0"
       apply_no_weight="true"
       apply_with_weight="true"
       only_selected="false"
       uniform="false" />
  </defs>
  <sodipodi:namedview
     id="namedview1"
     pagecolor="#ffffff"
     bordercolor="#000000"
     borderopacity="0.25"
     inkscape:showpageshadow="2"
     inkscape:pageopacity="0.0"
     inkscape:pagecheckerboard="0"
     inkscape:deskcolor="#d1d1d1"
     showgrid="false"
     inkscape:zoom="0.1525"
     inkscape:cx="-459.01639"
     inkscape:cy="232.78689"
     inkscape:window-width="1366"
     inkscape:window-height="745"
     inkscape:window-x="-8"
     inkscape:window-y="-8"
     inkscape:window-maximized="1"
     inkscape:current-layer="g1" />
  <g
     inkscape:groupmode="layer"
     inkscape:label="Image"
     id="g1">
    <path
       style="fill:#c80000;fill-opacity:1"
       d="m 233.93932,42.962533 c 0,0 731.42953,0.07025 731.42953,0.07025 0,0 180.53275,173.770497 180.53275,173.770497 0,0 -545.59422,635.2459 -545.59422,635.2459 0,0 -545.799183,-635.65574 -545.799183,-635.65574 z"
       id="path2-4-1"
       transform="matrix(1.0247619,0,0,1.0293497,-9.0127466,-5.2693303)"
       inkscape:original-d="m 233.93932,42.962533 c 0,0 731.42953,0.07025 731.42953,0.07025 0,0 180.53275,173.770497 180.53275,173.770497 0,0 -545.59422,635.2459 -545.59422,635.2459 0,0 -545.799183,-635.65574 -545.799183,-635.65574 z"
       inkscape:path-effect="#path-effect2-7-7" />
    <path
       style="fill:#ffeb00;fill-opacity:1"
       d="m 980.4022,224.81591 c 0.70449,-7.8911 -0.0417,-22.31849 -0.89055,-38.73267 -0.8489,-16.41418 -1.80054,-34.81515 -1.13014,-42.84636 0.6704,-8.03121 2.96284,-5.69267 14.71312,6.29392 11.75027,11.98658 32.95837,33.6212 46.23027,47.16004 13.272,13.53884 18.6077,18.98186 20.6212,22.46166 2.0135,3.4798 0.7046,4.99639 -18.3635,27.09061 -19.0681,22.09423 -55.89551,64.76614 -74.87053,84.90797 -18.97501,20.14182 -20.09764,17.75357 -22.29833,14.44191 -2.20069,-3.31165 -5.47931,-7.54654 -9.98757,-12.39632 -4.50825,-4.84978 -10.24584,-10.31416 -16.53006,-15.64208 -6.28422,-5.32792 -13.11469,-10.51907 -20.01366,-15.02731 -6.89898,-4.50823 -13.86606,-8.33329 -21.4481,-12.02185 -7.58205,-3.68856 -15.77861,-7.2404 -23.6161,-9.38407 -7.83749,-2.14368 -15.3153,-2.87907 -23.06819,-5.26983 -7.75289,-2.39076 -15.78008,-6.43668 -25.89089,-8.48586 -10.11081,-2.04918 -22.30435,-2.10155 -34.01859,-3.18763 -11.71425,-1.08609 -22.94781,-3.20576 -34.54229,-4.4353 -11.59448,-1.22953 -23.54849,-1.56877 -33.34584,-1.87323 -9.79736,-0.30447 -17.4369,-0.57412 -26.75804,-1.02577 -9.32113,-0.45164 -20.32276,-1.08522 -30.40221,-1.60094 -10.07946,-0.51572 -19.23553,-0.91353 -28.47485,-0.67202 -9.23932,0.2415 -18.56077,1.12228 -28.77123,1.31548 -10.21046,0.1932 -21.30867,-0.30119 -30.67387,-0.30119 -9.36519,0 -16.99624,0.49439 -23.61854,-0.48304 -6.62231,-0.97743 -12.23521,-3.42663 -18.03626,-4.91504 -5.80106,-1.48841 -11.78993,-2.01598 -18.50718,-2.75791 -6.71725,-0.74194 -14.16245,-1.69821 -20.3442,-2.72281 -6.18174,-1.0246 -11.09968,-2.11747 -15.16392,-3.05669 -4.06424,-0.93922 -7.27455,-1.72472 -11.85111,-2.93717 -4.57657,-1.21245 -10.51907,-2.85176 -16.01775,-4.69604 -5.49869,-1.84428 -10.55323,-3.89342 -15.30055,-6.11339 -4.74731,-2.21997 -9.18711,-4.61063 -12.53413,-6.62567 -3.34701,-2.01505 -5.60107,-3.65436 -7.64055,-5.26087 -2.03948,-1.60652 -3.86427,-3.18014 -5.25969,-4.64318 -1.39543,-1.46304 -2.3614,-2.8154 -3.30325,-4.1195 -0.94185,-1.3041 -1.85953,-2.55987 -2.58403,-3.74323 -0.7245,-1.18335 -1.25578,-2.29421 -1.71463,-3.50171 -0.45885,-1.20751 -0.84524,-2.51158 -1.13504,-3.57418 -0.2898,-1.0626 -0.483,-1.88368 -0.71243,-3.33269 -0.22942,-1.44901 -0.49506,-3.52585 -0.55544,-5.1439 -0.0604,-1.61805 0.0845,-2.77722 0.27773,-4.05717 0.1932,-1.27996 0.43469,-2.68062 0.70034,-3.98472 0.26565,-1.3041 0.55544,-2.51157 0.92977,-3.93643 0.37433,-1.42485 0.83317,-3.06701 1.42484,-4.82997 0.59168,-1.76295 1.31617,-3.6466 2.06482,-5.2405 0.74865,-1.5939 1.52143,-2.89796 2.46328,-4.39527 0.94185,-1.4973 2.05272,-3.18776 3.26023,-4.75751 1.2075,-1.56975 2.51157,-3.01871 3.64662,-4.32281 1.13505,-1.30411 2.10103,-2.46328 3.28438,-3.69493 1.18335,-1.23165 2.58401,-2.53572 4.44357,-4.15378 1.85956,-1.61805 4.1779,-3.55 7.12421,-5.57861 2.94632,-2.02861 6.52042,-4.15375 10.11878,-6.1582 3.59836,-2.00446 7.22076,-3.8881 11.25382,-5.69936 4.03307,-1.81125 8.47655,-3.55 12.71488,-5.11976 4.23834,-1.56975 8.27128,-2.97041 11.7851,-4.15376 3.51383,-1.18335 6.50835,-2.14933 10.49312,-3.16363 3.98477,-1.0143 8.95954,-2.07687 12.79939,-2.87382 3.83984,-0.79695 6.54457,-1.32823 10.45689,-2.00444 3.91232,-0.6762 9.03198,-1.49728 14.2967,-2.34253 5.26471,-0.84525 10.67417,-1.71463 17.0015,-2.43913 6.32732,-0.7245 13.57212,-1.30408 21.25185,-1.78708 7.67972,-0.483 15.7939,-0.86939 24.05322,-1.06259 8.25932,-0.1932 16.66329,-0.1932 23.8117,-0.0242 7.14841,0.16905 13.04084,0.50714 19.60966,0.966 6.56883,0.45885 13.81363,1.03843 21.20355,1.90784 7.38993,0.8694 14.92452,2.02857 21.97633,3.47758 7.05182,1.449 13.62044,3.18775 19.22325,4.70921 5.6028,1.52145 10.23947,2.82551 16.0838,4.92657 5.84432,2.10107 12.89593,4.99899 18.74024,7.60719 5.8443,2.60821 10.48097,4.92655 14.39328,7.14835 3.9123,2.22181 7.10001,4.34695 11.15723,7.14836 4.05722,2.80141 8.98368,6.27891 12.89598,9.46672 3.9123,3.18781 6.81022,6.08573 9.51503,9.08034 2.7048,2.99461 5.21634,6.08572 8.41515,10.74512 3.1988,4.65939 7.08468,10.88675 9.71074,15.84479 2.62605,4.95804 3.99214,8.64649 5.35827,13.08643 1.36614,4.43994 2.73223,9.6311 3.82514,14.68579 1.0929,5.0547 1.91256,9.97263 3.33109,12.94274 1.41853,2.97012 3.43584,3.99228 34.81873,5.25025 31.38289,1.25796 92.13132,2.75172 152.87975,4.24547 2.15511,-1.35482 4.31021,-2.70963 5.01469,-10.60074 z"
       id="path10-8"
       transform="matrix(1.0272474,0,0,1.0824144,-20.53043,-16.322364)"
       sodipodi:nodetypes="cccccccccccccccccccccccccccccccccccccccccccccccccccccccccccccccccccccccccccccccccc"
       inkscape:original-d="m 981.85283,231.3522 c -0.74614,-14.42739 -1.49229,-28.85478 -2.23843,-43.28217 -0.95165,-18.40097 -1.9033,-36.80194 -2.85494,-55.20291 2.29244,2.33855 4.58489,4.67709 6.87734,7.01564 21.2081,21.63463 42.4162,43.26924 63.6243,64.90385 5.3358,5.44306 10.6715,10.88611 16.0073,16.32916 -1.3088,1.51655 -2.6177,3.0331 -3.9265,4.54965 -36.8274,42.67192 -73.65481,85.34383 -110.48221,128.01574 -1.12263,-2.38826 -2.24526,-4.77651 -3.36789,-7.16477 -3.27875,-4.23505 -6.55737,-8.46994 -9.83606,-12.70491 -5.73782,-5.46459 -11.47541,-10.92897 -17.21312,-16.39345 -6.83073,-5.19136 -13.6612,-10.38251 -20.4918,-15.57377 -6.96735,-3.82521 -13.93443,-7.65027 -20.90164,-11.47541 -8.19688,-3.55198 -16.39344,-7.10382 -24.59016,-10.65573 -7.47826,-0.73544 -14.95607,-1.47083 -22.43434,-2.20627 -8.02751,-4.04608 -16.0547,-8.092 -24.08206,-12.138 -12.19426,-0.0524 -24.3878,-0.10472 -36.58205,-0.15709 -11.23424,-2.1198 -22.4678,-4.23948 -33.70204,-6.35929 -11.95472,-0.33926 -23.90873,-0.6785 -35.86345,-1.01776 -7.63999,-0.26966 -15.27953,-0.53932 -22.91952,-0.80899 -11.00228,-0.63362 -22.00391,-1.2672 -33.0062,-1.90082 -9.15662,-0.39782 -18.31269,-0.79562 -27.46931,-1.19345 -9.32202,0.88083 -18.64347,1.76161 -27.96549,2.64244 -11.0989,-0.49443 -22.19711,-0.98882 -33.296,-1.48325 -7.6315,0.49443 -15.26255,0.98883 -22.89404,1.48325 -5.61312,-2.44929 -11.22602,-4.89849 -16.83902,-7.34773 -5.98911,-0.52758 -11.97798,-1.05514 -17.96697,-1.58272 -7.44551,-0.9563 -14.89071,-1.91257 -22.33607,-2.86885 -4.91813,-1.09292 -9.83607,-2.18579 -14.7541,-3.27869 -3.21045,-0.78553 -6.42076,-1.57104 -9.63115,-2.35656 -5.94274,-1.63937 -11.88524,-3.27868 -17.82786,-4.91803 -5.05475,-2.04922 -10.10929,-4.09836 -15.16394,-6.14754 -4.43998,-2.39076 -8.87978,-4.78142 -13.31967,-7.17213 -2.25414,-1.63938 -4.5082,-3.27869 -6.7623,-4.91803 -1.82486,-1.57369 -3.64965,-3.14731 -5.47448,-4.72097 -0.96602,-1.35242 -1.93199,-2.70478 -2.89798,-4.05717 -0.91771,-1.25581 -1.83539,-2.51158 -2.75308,-3.76737 -0.53131,-1.11092 -1.06259,-2.22178 -1.59389,-3.33268 -0.3864,-1.30411 -0.77279,-2.60818 -1.15919,-3.91227 -0.1932,-0.82111 -0.3864,-1.64219 -0.5796,-2.46328 -0.26565,-2.07693 -0.53129,-4.15377 -0.79694,-6.23065 0.1449,-1.15922 0.2898,-2.31839 0.4347,-3.47758 0.2415,-1.40072 0.48299,-2.80138 0.72449,-4.20207 0.2898,-1.20751 0.5796,-2.41498 0.86939,-3.62247 0.45886,-1.64222 0.9177,-3.28438 1.37654,-4.92656 0.72451,-1.88373 1.44899,-3.76738 2.17349,-5.65106 0.77281,-1.30412 1.54559,-2.60818 2.31838,-3.91227 1.11091,-1.69052 2.22178,-3.38098 3.33268,-5.07147 1.30411,-1.44901 2.60818,-2.89797 3.91227,-4.34696 0.96601,-1.15922 1.93198,-2.31839 2.89798,-3.47758 1.40071,-1.30411 2.80137,-2.60818 4.20206,-3.91227 2.31843,-1.93202 4.63677,-3.86397 6.95515,-5.79596 3.57425,-2.12522 7.14835,-4.25036 10.72252,-6.37555 3.62255,-1.88372 7.24495,-3.76737 10.86742,-5.65106 4.44366,-1.73882 8.88714,-3.47757 13.33071,-5.21636 4.0331,-1.40072 8.06604,-2.80138 12.09906,-4.20207 2.99463,-0.96601 5.98915,-1.93198 8.98373,-2.89798 4.97496,-1.06261 9.94973,-2.12518 14.92459,-3.18777 2.70483,-0.53131 5.40956,-1.0626 8.11434,-1.59389 5.11986,-0.82111 10.23952,-1.64219 15.35929,-2.46328 5.40966,-0.86941 10.81912,-1.73879 16.22868,-2.60818 7.24509,-0.57961 14.48989,-1.1592 21.73484,-1.73879 8.1145,-0.38641 16.22868,-0.7728 24.34302,-1.15919 8.4043,0 16.80827,0 25.21241,0 5.89268,0.3381 11.78511,0.67619 17.67767,1.01429 7.24509,0.57961 14.48989,1.15919 21.73484,1.73879 7.5349,1.15921 15.06949,2.31838 22.60423,3.47757 6.56889,1.73882 13.13751,3.47758 19.70626,5.21636 4.63686,1.30412 9.27353,2.60818 13.9103,3.91227 7.05188,2.89804 14.10349,5.79596 21.15524,8.69394 4.63686,2.31843 9.27353,4.63677 13.9103,6.95515 3.18784,2.12523 6.37555,4.25037 9.56333,6.37555 4.92666,3.47765 9.85312,6.95515 14.77969,10.43272 2.89803,2.89804 5.79595,5.79596 8.69393,8.69394 2.51163,3.09124 5.02317,6.18235 7.53475,9.27353 3.88603,6.22761 7.77191,12.45497 11.65787,18.68245 1.36615,3.6886 2.73224,7.37705 4.09836,11.06557 1.36615,5.19136 2.73224,10.38252 4.09836,15.57377 0.81969,4.91814 1.63934,9.83607 2.45902,14.7541 2.01739,1.0222 4.0347,2.04436 6.05205,3.06654 60.74843,1.49375 121.49686,2.98751 182.24529,4.48126 0,0 4.31021,-2.70963 6.46532,-4.06445 z"
       inkscape:path-effect="#path-effect11-3" />
    <path
       style="fill:#ffeb00;fill-opacity:1"
       d="m 300,413.72951 c 0,0 74.18033,87.70492 74.18033,87.70492 2.3224,-1.50273 4.64481,-3.00547 7.65031,-4.78144 3.0055,-1.77598 6.69395,-3.82512 10.45082,-5.7377 3.75687,-1.91259 7.58193,-3.68851 11.95356,-5.25956 4.37164,-1.57106 9.28957,-2.93715 14.00273,-4.16667 4.71316,-1.22952 9.22127,-2.32239 12.84801,-3.09489 3.62675,-0.77251 6.37195,-1.22459 10.4977,-1.69215 4.12576,-0.46755 9.63181,-0.95053 14.89652,-1.19203 5.26471,-0.2415 10.28778,-0.2415 14.15178,-0.1449 3.86399,0.0966 6.56872,0.2898 9.17692,0.5313 2.60821,0.2415 5.11974,0.53129 8.13851,0.9177 3.01876,0.3864 6.54456,0.86938 10.31198,1.56974 3.76741,0.70035 7.7762,1.61803 11.66436,2.53573 3.88815,0.9177 7.65545,1.83538 12.14737,3.26024 4.49192,1.42486 9.70818,3.3568 15.2627,5.82011 5.55451,2.46332 11.44695,5.45783 16.85656,8.69394 5.40961,3.23612 10.33607,6.71362 13.70683,9.29399 3.37076,2.58037 5.18564,4.26346 7.76662,6.7444 2.58099,2.48094 5.92792,5.75956 8.45526,8.52598 2.52735,2.76642 4.23496,5.02047 5.49863,6.79644 1.26367,1.77597 2.08332,3.07376 2.90299,4.37157 35.48497,0.0683 70.96995,0.13661 90.76165,0.17077 19.79171,0.0342 23.88999,0.0342 29.55946,-0.23908 5.66947,-0.27323 12.90977,-0.81967 19.4672,-1.57105 6.55744,-0.75137 12.43164,-1.70764 18.1694,-2.80054 5.73776,-1.09291 11.33874,-2.32239 16.05189,-3.48361 4.71316,-1.16121 8.53822,-2.25409 12.29509,-3.48361 3.75686,-1.22952 7.44531,-2.59561 10.79233,-4.03005 3.34703,-1.43444 6.35244,-2.93715 8.94809,-4.54236 2.59565,-1.6052 4.7814,-3.31282 7.13798,-5.49864 2.35658,-2.18582 4.88386,-4.8497 6.8989,-7.58197 2.01504,-2.73227 3.51774,-5.53276 4.47403,-8.0601 0.95629,-2.52735 1.36611,-4.7814 1.60519,-6.55737 0.23907,-1.77597 0.30737,-3.07376 0.14563,-4.23124 -0.16175,-1.15748 -0.55352,-2.17459 -1.40148,-3.48012 -0.84795,-1.30552 -2.15202,-2.89937 -3.84252,-4.22762 -1.69051,-1.32825 -3.76735,-2.39082 -6.37557,-3.67078 -2.60821,-1.27996 -5.74762,-2.77721 -10.0222,-4.41942 -4.27457,-1.64221 -9.68402,-3.42926 -15.74569,-4.97486 -6.06168,-1.54561 -12.77519,-2.84967 -19.44061,-4.03302 -6.66542,-1.18335 -13.28233,-2.24592 -19.4889,-3.09117 -6.20656,-0.84525 -12.0024,-1.47313 -18.49877,-2.24594 -6.49638,-0.7728 -13.69288,-1.69048 -22.38692,-2.48743 -8.69404,-0.79695 -18.88506,-1.47313 -29.19714,-2.19763 -10.31207,-0.7245 -20.74459,-1.49728 -33.94612,-2.3156 -13.20153,-0.81831 -29.17123,-1.68211 -41.32299,-2.28478 -12.15175,-0.60268 -20.48492,-0.9442 -30.23572,-1.55896 -9.75079,-0.61477 -20.9186,-1.50273 -35.79242,-2.62979 -14.87382,-1.12707 -33.45268,-2.49316 -50.05119,-3.79099 -16.59851,-1.29782 -31.2157,-2.5273 -44.80873,-3.82513 -13.59302,-1.29783 -26.16107,-2.66392 -38.79781,-4.09836 -12.63674,-1.43444 -25.3414,-2.93715 -40.98039,-5.126 -15.63899,-2.18886 -34.21131,-5.06372 -52.784,-7.93864 z"
       id="path9-6"
       inkscape:path-effect="#path-effect9-8"
       inkscape:original-d="m 300,413.72951 c 0,0 74.18033,87.70492 74.18033,87.70492 0,0 4.64481,-3.00547 6.96721,-4.5082 3.6886,-2.04922 7.37705,-4.09836 11.06558,-6.14754 3.82521,-1.77599 7.65027,-3.55191 11.47541,-5.32787 4.91813,-1.36615 9.83606,-2.73224 14.75409,-4.09836 4.50829,-1.09292 9.0164,-2.18579 13.52459,-3.27869 2.7453,-0.4521 5.4905,-0.90419 8.23574,-1.35629 5.50627,-0.483 11.01232,-0.96599 16.51848,-1.44899 5.02326,0 10.04633,0 15.06949,0 2.70483,0.19321 5.40956,0.3864 8.11434,0.5796 2.51163,0.2898 5.02316,0.57959 7.53474,0.86939 3.52595,0.48301 7.05175,0.966 10.57763,1.44899 4.00895,0.91771 8.01774,1.83539 12.02661,2.75308 3.76744,0.91771 7.53474,1.83539 11.30211,2.75308 5.21647,1.93203 10.43273,3.86397 15.64909,5.79596 5.89267,2.99464 11.78511,5.98915 17.67767,8.98373 4.92666,3.47765 9.85312,6.95515 14.77969,10.43273 1.81495,1.68316 3.62983,3.36625 5.44474,5.04938 3.34706,3.27875 6.69399,6.55737 10.04099,9.83606 1.70768,2.25415 3.4153,4.5082 5.12295,6.7623 0.81969,1.29784 2.45901,3.89344 2.45901,3.89344 0,0 70.96995,0.13661 106.45492,0.20492 4.09844,0 8.19672,0 12.29508,0 7.24058,-0.54646 14.48088,-1.0929 21.72131,-1.63935 5.87444,-0.9563 11.74864,-1.91256 17.62296,-2.86885 5.6012,-1.22953 11.20218,-2.45901 16.80327,-3.68852 3.82522,-1.09292 7.65028,-2.1858 11.47541,-3.27869 3.6886,-1.36615 7.37705,-2.73224 11.06558,-4.09836 3.00552,-1.50276 6.01093,-3.00547 9.01639,-4.5082 2.18584,-1.70768 4.37159,-3.4153 6.55738,-5.12295 2.52737,-2.66399 5.05464,-5.32787 7.58197,-7.9918 1.50276,-2.80061 3.00546,-5.6011 4.50819,-8.40164 0.40985,-2.25415 0.81967,-4.5082 1.22951,-6.7623 0.0683,-1.29784 0.13661,-2.59563 0.20492,-3.89344 -0.3918,-1.01715 -0.78358,-2.03426 -1.17536,-3.05139 -1.30412,-1.59392 -2.60819,-3.18777 -3.91228,-4.78166 -2.07692,-1.06261 -4.15376,-2.12519 -6.23065,-3.18778 -3.13954,-1.49732 -6.27895,-2.99458 -9.41843,-4.49186 -5.40967,-1.78713 -10.81912,-3.57418 -16.22868,-5.36127 -6.71379,-1.30411 -13.4273,-2.60818 -20.14095,-3.91227 -6.61719,-1.06261 -13.2341,-2.12518 -19.85116,-3.18777 -5.79607,-0.62791 -11.59191,-1.25579 -17.38787,-1.88369 -7.19679,-0.91771 -14.39329,-1.83539 -21.58994,-2.75308 -10.19143,-0.67621 -20.38245,-1.35239 -30.57367,-2.02858 -10.43293,-0.77281 -20.86545,-1.54559 -31.29817,-2.31839 -15.97034,-0.86383 -31.94004,-1.72763 -47.91005,-2.59144 -8.3335,-0.34154 -16.66667,-0.68306 -25,-1.02459 -11.16826,-0.888 -22.33607,-1.77596 -33.5041,-2.66394 -18.57961,-1.36614 -37.15847,-2.73224 -55.73771,-4.09836 -14.61778,-1.22953 -29.23497,-2.45901 -43.85246,-3.68852 -12.56856,-1.36615 -25.13661,-2.73224 -37.70492,-4.09836 -12.70517,-1.50276 -25.40983,-3.00547 -38.11475,-4.5082 -18.57306,-2.87497 -55.71807,-8.62476 -55.71807,-8.62476 z"
       transform="matrix(1.0409105,0,0,1.2111656,-25.584277,-96.766087)" />
    <path
       style="fill:#ffeb00;fill-opacity:1"
       d="m 820.70754,99.980262 c 0,0 22.31444,-0.289798 22.31444,-0.289798 -0.2898,1.931986 -0.57959,3.863976 -1.1109,5.651076 -0.5313,1.7871 -1.30408,3.42926 -2.27009,5.45787 -0.966,2.02861 -2.12517,4.44354 -3.28436,6.85852 0,0 -4.63677,-5.50616 -4.63677,-5.50616 -2.02858,-2.31838 -4.05716,-4.63676 -5.98917,-6.56877 -1.93201,-1.932 -3.76735,-3.47755 -5.60274,-5.02314 z"
       id="path7-4"
       inkscape:path-effect="#path-effect8-4"
       inkscape:original-d="m 820.70754,99.980262 c 0,0 22.31444,-0.289798 22.31444,-0.289798 0,0 -0.5796,3.863976 -0.86939,5.795956 -0.77281,1.64222 -1.54559,3.28438 -2.31839,4.92657 -1.15921,2.41503 -3.47757,7.24494 -3.47757,7.24494 0,0 -4.63677,-5.50616 -4.63677,-5.50616 0,0 -4.05717,-4.63676 -6.08575,-6.95515 -1.83543,-1.54562 -5.50616,-4.63676 -5.50616,-4.63676 z"
       transform="matrix(1.6329115,0,0,1.2580646,-527.78195,-28.470775)" />
    <path
       style="fill:#ffeb00;fill-opacity:1"
       d="m 490.57377,633.60656 c 0,0 109.01639,125.40983 109.01639,125.40983 0,0 103.27869,-118.85245 103.27869,-118.85245 -8.46994,1.63934 -16.93989,3.27869 -25.13669,4.5082 -8.1968,1.22952 -16.12014,2.04917 -24.45356,2.45901 -8.33342,0.40983 -17.07641,0.40983 -27.18581,0.40983 -10.10941,0 -21.58459,0 -31.28412,-0.27323 -9.69954,-0.27323 -17.62288,-0.81966 -26.22953,-1.63935 -8.60665,-0.81968 -17.89608,-1.91255 -26.63933,-3.00546 -8.74325,-1.09291 -16.93981,-2.18578 -24.86338,-3.68853 -7.92358,-1.50276 -15.5737,-3.41528 -23.22397,-5.32785 z"
       id="path5-7"
       inkscape:path-effect="#path-effect6-9"
       inkscape:original-d="m 490.57377,633.60656 c 0,0 109.01639,125.40983 109.01639,125.40983 0,0 103.27869,-118.85245 103.27869,-118.85245 0,0 -16.93989,3.27868 -25.40983,4.91803 -7.92366,0.81969 -15.847,1.63934 -23.77049,2.45901 -8.74335,0 -17.48634,0 -26.22951,0 -11.47564,0 -22.95082,0 -34.42623,0 -7.92366,-0.54645 -15.847,-1.09289 -23.77049,-1.63934 -9.28981,-1.09292 -18.57924,-2.18579 -27.86886,-3.27869 -8.19688,-1.09292 -16.39344,-2.18579 -24.59016,-3.27869 -7.65043,-1.9126 -22.95082,-5.7377 -22.95082,-5.7377 z"
       transform="matrix(1.0873646,0,0,1.0924323,-52.464235,-62.860036)" />
    <path
       style="fill:#ffeb00;fill-opacity:1"
       d="m 260.67318,100.84966 c 0,0 36.80433,0.28979 36.80433,0.28979 -2.99458,2.70478 -5.98916,5.40956 -10.52939,9.99809 -4.54023,4.58854 -10.62586,11.06056 -16.95318,18.30559 -6.32732,7.24502 -12.89594,15.2626 -17.80561,21.31077 -4.90966,6.04817 -8.16012,10.1266 -12.03952,15.64954 -3.87941,5.52293 -8.38751,12.49 -12.89575,19.79882 -4.50824,7.30882 -9.01635,14.95894 -12.77321,21.92622 -3.75686,6.96727 -6.76227,13.2513 -9.29862,18.82794 -2.53635,5.57664 -4.6035,10.44557 -6.50651,14.90871 -1.90301,4.46313 -3.64176,8.52022 -5.38057,13.01213 -1.7388,4.49192 -3.47755,9.41839 -4.7575,13.37899 -1.27995,3.9606 -2.10103,6.95512 -2.92212,9.9497 0,0 -48.39624,-56.80038 -48.39624,-56.80038 0,0 121.86,-118.96203 121.86,-118.96203 z"
       id="path3-1"
       inkscape:path-effect="#path-effect4-4"
       inkscape:original-d="m 260.67318,100.84966 c 0,0 36.80433,0.28979 36.80433,0.28979 0,0 -5.98916,5.40956 -8.98374,8.11434 -6.08588,6.47229 -12.17151,12.94431 -18.25726,19.41646 -6.56889,8.0179 -13.13751,16.03548 -19.70626,24.05322 -3.25058,4.0786 -6.50104,8.15703 -9.75156,12.23555 -4.50829,6.96735 -9.01639,13.93442 -13.52459,20.90164 -4.50829,7.65042 -9.01639,15.30054 -13.52459,22.95082 -3.00553,6.28427 -6.01093,12.5683 -9.01639,18.85245 -2.06724,4.86913 -4.13439,9.73806 -6.20158,14.60708 -1.73883,4.05725 -3.47758,8.11434 -5.21637,12.17151 -1.73882,4.92666 -3.47757,9.85313 -5.21636,14.77969 -0.82111,2.99464 -2.46328,8.98374 -2.46328,8.98374 0,0 -48.39624,-56.80038 -48.39624,-56.80038 0,0 121.86,-118.96203 121.86,-118.96203 z"
       transform="matrix(1.0650994,0,0,1.0588234,-12.246313,-12.324632)" />
    <path
       id="path1"
       style="fill:#000000;fill-opacity:1"
       d="M 226.76758,24.052734 28.980469,215.0293 600,880.32812 1171.0723,215.32031 972.95117,24.179688 Z m 7.17187,18.910157 731.42969,0.07031 L 1145.9023,216.80273 600.30664,852.04883 54.507812,216.39258 Z" />
    <path
       id="path2"
       style="fill:#000000;fill-opacity:1"
       d="m 253.86328,81.433594 -141.77344,138.853516 81.5586,95.90234 c 2.39412,-9.23157 4.7882,-18.46484 7.67578,-27.95898 2.88758,-9.49415 6.26727,-19.2501 9.45508,-27.6543 3.1878,-8.4042 6.18276,-15.45581 9.32226,-22.58008 3.13951,-7.12426 6.4233,-14.31971 11.73633,-24.0039 5.31303,-9.68419 12.65406,-21.85526 20.67188,-33.44727 8.01782,-11.59201 16.71208,-22.60578 25.21289,-32.45898 8.50081,-9.8532 16.80826,-18.54603 24.10156,-25.79102 7.2933,-7.24499 13.57223,-13.04145 21.25195,-19.51367 7.67973,-6.472217 16.75952,-13.619237 25.83985,-20.767578 z m 6.81055,19.416016 36.80273,0.28906 c -2.99457,2.70478 -5.98907,5.40952 -10.52929,9.99805 -4.54023,4.58853 -10.62582,11.06162 -16.95313,18.30664 -6.32731,7.24502 -12.89502,15.26238 -17.80469,21.31055 -4.90966,6.04816 -8.15966,10.12746 -12.03906,15.65039 -3.8794,5.52293 -8.38825,12.49001 -12.89648,19.79882 -4.50824,7.30882 -9.01658,14.95852 -12.77344,21.92579 -3.75686,6.96727 -6.76248,13.25149 -9.29883,18.82812 -2.53635,5.57664 -4.60285,10.44507 -6.50586,14.9082 -1.903,4.46314 -3.64205,8.51981 -5.38086,13.01172 -1.7388,4.49191 -3.47786,9.41831 -4.75781,13.37891 -1.27995,3.9606 -2.10078,6.95464 -2.92188,9.94922 L 137.21875,221.40625 259.08008,102.44336 Z" />
    <path
       id="path4"
       style="fill:#000000;fill-opacity:1"
       d="m 441.80273,603.2793 5.46485,6.6582 c 1.09289,1.33197 1.09314,1.33333 26.25,30.63672 L 599.30273,787.0918 752.31445,609.73438 c -6.95514,1.93198 -13.90995,3.86502 -23.18359,5.99023 -9.27364,2.12521 -20.86571,4.443 -30.91211,6.375 -10.0464,1.932 -18.54669,3.47752 -27.82031,4.63672 -9.27362,1.15919 -19.3201,1.93248 -28.07422,2.33008 -8.75412,0.39759 -16.21526,0.41843 -26.16211,0.36132 -9.94685,-0.0571 -22.37807,-0.19187 -33.92188,-0.80664 -11.5438,-0.61476 -22.1988,-1.70792 -31.76171,-2.86914 -9.56292,-1.16121 -18.03222,-2.39147 -24.31641,-3.48437 -6.28419,-1.09291 -10.38357,-2.04999 -17.72656,-3.55274 -7.343,-1.50275 -17.92988,-3.55087 -29.57617,-6.21484 -11.6463,-2.66397 -24.35174,-5.94202 -37.05665,-9.2207 z m 48.77149,30.32812 h 3.27734 c 7.65027,1.91257 15.30105,3.82342 23.22461,5.32617 7.92357,1.50275 16.12004,2.59655 24.86328,3.68946 8.74324,1.0929 18.03399,2.18617 26.64063,3.00586 8.60664,0.81968 16.52899,1.36544 26.22851,1.63867 9.69953,0.27323 21.17577,0.27344 31.28516,0.27344 10.10939,0 18.85214,-3.3e-4 27.18555,-0.41016 8.33341,-0.40983 16.25633,-1.22947 24.45312,-2.45898 8.19679,-1.22952 16.66679,-2.86848 25.13672,-4.50782 l -103.2793,118.85156 z" />
    <path
       id="path6"
       style="fill:#000000;fill-opacity:1"
       d="m 760.14062,81.722656 5.21485,3.478516 c 5.40954,3.091171 10.81965,6.181177 15.93945,9.175781 5.11982,2.994604 9.94986,5.893167 14.29688,8.984377 4.347,3.0912 8.21021,6.37501 12.07422,9.94922 3.86399,3.57419 7.72942,7.43874 11.20703,11.30273 3.4776,3.864 6.56864,7.72853 9.27343,11.30274 2.70481,3.57419 5.02147,6.85821 7.33985,10.14257 2.51158,-2.51156 5.02356,-5.02371 7.53515,-7.72851 2.51161,-2.7048 5.02339,-5.60353 7.3418,-9.17774 2.31841,-3.57419 4.44463,-7.82439 5.99024,-11.59179 1.5456,-3.76741 2.51024,-7.05113 3.08984,-11.01172 0.5796,-3.9606 0.77238,-8.596194 0.67578,-12.750002 C 860.02254,89.64502 859.6364,85.9735 859.25,82.302734 Z m 82.88086,17.96875 c -0.28979,1.931984 -0.58002,3.863294 -1.11132,5.650394 -0.53131,1.78709 -1.30353,3.42842 -2.26954,5.45703 -0.96599,2.02861 -2.12401,4.44441 -3.2832,6.85937 l -4.63672,-5.50586 c -2.02857,-2.31837 -4.05823,-4.63831 -5.99023,-6.57031 -1.93201,-1.932 -3.76619,-3.4759 -5.60156,-5.02148 l 0.57812,-0.580081 z m -589.1582,287.042974 19.08789,24.33203 99.17969,116.39257 9.83594,-9.83593 c 4.09844,-2.45906 8.19655,-4.91794 12.29492,-7.37696 3.8252,-2.18582 7.65143,-4.37085 11.47656,-6.55664 4.91813,-1.36615 9.83588,-2.73349 14.75391,-4.09961 4.6449,-1.09291 9.28879,-2.1864 13.93359,-3.27929 5.19136,-0.81969 10.38297,-1.63932 15.57422,-2.45899 6.28427,-0.27323 12.56742,-0.54514 18.85156,-0.81836 5.46459,0.27323 10.93006,0.54514 16.39453,0.81836 7.10397,1.36615 14.20673,2.73349 21.31055,4.09961 4.43998,1.50276 8.88043,3.00508 13.32031,4.50781 5.46459,2.18583 10.92811,4.37086 16.39258,6.55664 4.78152,2.7323 9.56429,5.46503 14.3457,8.19727 3.27876,2.45906 6.55726,4.91795 9.83594,7.37695 2.32245,2.18584 4.6444,4.37281 6.9668,6.5586 2.32245,2.8689 4.64439,5.73662 6.9668,8.60547 2.32244,4.09843 6.96679,12.29492 6.96679,12.29492 0,0 23.08911,0.27354 34.63282,0.41015 14.89099,0.13661 29.78117,0.27355 44.67187,0.41016 h 33.19531 c 8.37884,-0.36458 16.75806,-0.72918 25.13672,-1.09375 6.47228,-0.57961 12.94387,-1.15868 19.41602,-1.73828 4.73345,-0.67621 9.4678,-1.35311 14.20117,-2.0293 4.05724,-0.77281 8.11471,-1.54556 12.17187,-2.31836 2.65653,-0.6762 5.31228,-1.3531 7.96875,-2.02929 3.18784,-0.96601 6.37473,-1.9305 9.5625,-2.89649 3.18784,-1.11091 6.37668,-2.22308 9.56446,-3.33398 2.89802,-1.35241 5.79538,-2.70425 8.69336,-4.05664 2.46332,-1.40071 4.92734,-2.80049 7.39062,-4.20117 2.31843,-1.69053 4.63669,-3.38178 6.95508,-5.07227 1.93202,-1.69052 3.86294,-3.38178 5.79492,-5.07227 l 4.49219,-4.3457 c 0.96601,-1.35241 1.93245,-2.7062 2.89844,-4.05859 1.40071,-2.27013 2.80048,-4.53851 4.20117,-6.8086 0.77281,-1.73882 1.54557,-3.47801 2.31836,-5.21679 0.34597,-1.34254 0.69309,-2.68483 1.03906,-4.02735 0.34154,-1.9126 0.68191,-3.82571 1.02344,-5.73828 0.10246,-2.04922 0.20613,-4.09926 0.30859,-6.14844 -0.0683,-0.81969 -0.13677,-1.63931 -0.20508,-2.45898 -0.37569,-1.50276 -0.75127,-3.00507 -1.12695,-4.50781 -0.64892,-1.70768 -1.29836,-3.4154 -1.94727,-5.12305 -1.16122,-1.67353 -2.32317,-3.34603 -3.48437,-5.01953 -1.43445,-1.29784 -2.86831,-2.59672 -4.30273,-3.89453 -1.1783,-0.90507 -2.35688,-1.8098 -3.53516,-2.71485 l -7.47852,-4.40625 c -3.17628,-1.36614 -6.35307,-2.73153 -9.52929,-4.09765 -3.10799,-1.05877 -6.21631,-2.11704 -9.32422,-3.17578 -4.55952,-1.21246 -9.11831,-2.42429 -13.67774,-3.63672 -4.64489,-0.99045 -9.28879,-1.98222 -13.93359,-2.97266 -3.85936,-0.71723 -7.71884,-1.43318 -11.57813,-2.15039 -4.30336,-0.70015 -8.60688,-1.40142 -12.91015,-2.10156 -4.78152,-0.54646 -9.56234,-1.09222 -14.34375,-1.63867 l -12.0918,-1.33204 c -5.97688,-0.5806 -11.95292,-1.16158 -17.92969,-1.74218 -4.2009,-0.30739 -8.40074,-0.61451 -12.60156,-0.92188 -3.72276,-0.13662 -7.44529,-0.27354 -11.16797,-0.41015 -5.63534,-0.46108 -11.27101,-0.92175 -16.90625,-1.38282 -5.36212,-0.37569 -10.72392,-0.75126 -16.08594,-1.12695 -4.95746,-0.25975 -9.91567,-0.51955 -14.87304,-0.7793 -4.10555,-0.1932 -8.21094,-0.38687 -12.31641,-0.58007 -13.27346,-0.98149 -26.54515,-1.96188 -39.81836,-2.94336 -14.20791,-0.68307 -28.41541,-1.36773 -42.62304,-2.05079 -11.06578,-0.95629 -22.13171,-1.91089 -33.19727,-2.86718 -12.1587,-0.81969 -24.31615,-1.63932 -36.47461,-2.45899 -21.31188,-2.11752 -42.62409,-4.23603 -63.93555,-6.35351 -13.11499,-1.63938 -26.229,-3.27862 -39.34375,-4.91797 -12.70515,-1.77599 -25.41032,-3.55217 -38.11523,-5.32813 -11.88548,-2.04921 -23.77101,-4.0973 -35.65625,-6.14648 -10.87103,-2.23583 -32.61133,-6.70898 -32.61133,-6.70898 z M 300,413.73047 l 3.70898,0.39062 c 18.57268,2.87492 37.14423,5.7506 52.78321,7.93946 15.63897,2.18885 28.34374,3.69056 40.98047,5.125 12.63672,1.43444 25.20386,2.79983 38.79687,4.09765 13.59301,1.29783 28.2101,2.52835 44.80859,3.82618 16.5985,1.29782 35.17893,2.66395 50.05274,3.79101 14.8738,1.12706 26.04023,2.01414 35.79102,2.62891 9.75078,0.61476 18.08458,0.95787 30.23632,1.56054 12.15175,0.60268 28.12075,1.46489 41.32227,2.28321 13.20152,0.81831 23.6352,1.5919 33.94726,2.3164 10.31207,0.7245 20.50324,1.40032 29.19727,2.19727 8.69403,0.79695 15.89035,1.71548 22.38672,2.48828 6.49637,0.7728 12.29149,1.40084 18.49805,2.24609 6.20655,0.84525 12.82482,1.9065 19.49023,3.08985 6.66541,1.18335 13.37778,2.4876 19.43945,4.0332 6.06167,1.5456 11.47153,3.3324 15.7461,4.97461 4.27457,1.64221 7.41327,3.13997 10.02148,4.41992 2.60821,1.27996 4.68645,2.34363 6.37695,3.67188 1.69051,1.32824 2.99385,2.92104 3.8418,4.22656 0.84795,1.30552 1.2406,2.32299 1.40234,3.48047 0.16175,1.15748 0.0926,2.4545 -0.14648,4.23047 -0.23907,1.77597 -0.64918,4.03125 -1.60547,6.55859 -0.95628,2.52734 -2.45957,5.32633 -4.47461,8.05859 -2.01504,2.73227 -4.54185,5.39622 -6.89844,7.58204 -2.35658,2.18581 -4.54107,3.89479 -7.13671,5.5 -2.59565,1.6052 -5.6022,3.10657 -8.94922,4.54101 -3.34702,1.43444 -7.03611,2.80173 -10.79297,4.03125 -3.75686,1.22952 -7.58177,2.32121 -12.29492,3.48242 -4.71315,1.16122 -10.31303,2.39147 -16.05078,3.48438 -5.73776,1.0929 -11.6125,2.0494 -18.16993,2.80078 -6.55742,0.75137 -13.79733,1.29708 -19.46679,1.57031 -5.66947,0.27323 -9.76886,0.27439 -29.56055,0.24024 -19.79169,-0.0342 -55.27678,-0.10357 -90.76172,-0.17188 -0.81967,-1.29781 -1.63867,-2.59512 -2.90234,-4.37109 -1.26367,-1.77597 -2.97071,-4.03046 -5.49805,-6.79688 -2.52734,-2.76641 -5.87409,-6.04445 -8.45508,-8.52539 -2.58098,-2.48093 -4.39682,-4.16377 -7.76758,-6.74414 -3.37075,-2.58037 -8.29742,-6.05881 -13.70703,-9.29492 -5.4096,-3.23611 -11.30095,-6.23005 -16.85547,-8.69336 -5.55451,-2.46331 -10.77175,-4.39545 -15.26367,-5.82031 -4.49191,-1.42486 -8.25833,-2.34207 -12.14648,-3.25977 -3.88815,-0.9177 -7.89665,-1.8348 -11.66406,-2.53515 -3.76741,-0.70036 -7.29374,-1.18392 -10.3125,-1.57032 -3.01877,-0.3864 -5.53047,-0.67646 -8.13868,-0.91797 -2.6082,-0.2415 -5.31374,-0.43464 -9.17773,-0.53125 -3.86399,-0.0966 -8.88569,-0.097 -14.15039,0.14454 -5.26471,0.24149 -10.77073,0.72385 -14.89649,1.1914 -4.12575,0.46755 -6.8713,0.92086 -10.49804,1.69336 -3.62674,0.7725 -8.1345,1.86423 -12.84766,3.09375 -4.71315,1.22952 -9.63227,2.59692 -14.0039,4.16797 -4.37164,1.57105 -8.19626,3.34718 -11.95313,5.25977 -3.75687,1.91258 -7.44568,3.96035 -10.45117,5.73632 -3.0055,1.77598 -5.32799,3.27852 -7.65039,4.78125 z" />
    <path
       id="path9"
       style="fill:#000000;fill-opacity:1"
       d="M 591.96094,84.416016 C 584.20877,84.283188 577.59071,84.37925 570.3457,84.5 c -7.245,0.12075 -15.11647,0.265394 -24.60742,0.869141 -9.49095,0.603746 -20.59929,1.667338 -29.14844,2.68164 -8.54914,1.014303 -14.53951,1.979472 -21.01172,3.138672 -6.4722,1.1592 -13.4268,2.51266 -19.2832,3.804688 -5.85639,1.292027 -10.61354,2.52261 -15.23828,3.742187 -4.62473,1.219577 -9.11636,2.427582 -14.04297,4.021482 -4.9266,1.5939 -10.28827,3.57422 -14.68359,5.36133 -4.39532,1.78711 -7.82529,3.38112 -11.7207,5.37695 -3.89542,1.99584 -8.25504,4.39375 -12.04102,6.68555 -3.78598,2.2918 -6.99635,4.47725 -9.86524,6.62891 -2.86888,2.15166 -5.39748,4.26942 -7.95898,6.66015 -2.5615,2.39073 -5.15604,5.05469 -7.41016,7.58203 -2.25412,2.52735 -4.16773,4.91801 -5.76562,7.21485 -1.59789,2.29683 -2.88108,4.49857 -4.07813,6.71094 -1.19705,2.21237 -2.30761,4.43428 -3.20117,6.46289 -0.89355,2.0286 -1.56936,3.8636 -2.19726,6.03711 -0.62791,2.1735 -1.20698,4.68549 -1.73828,7.13671 -0.5313,2.45123 -1.01542,4.84177 -1.35352,7.02735 -0.3381,2.18558 -0.53054,4.16565 -0.55469,6.09765 -0.0242,1.93201 0.12054,3.81605 0.33789,5.74805 0.21735,1.932 0.50795,3.91228 0.9668,5.89258 0.45885,1.9803 1.08639,3.96002 1.93164,6.10937 0.84525,2.14936 1.90647,4.46924 3.35547,6.83594 1.449,2.36671 3.28484,4.77997 5.06836,7.03711 1.78351,2.25715 3.51506,4.3562 6.9082,7.38672 3.39314,3.03052 8.44785,6.99297 14.25391,10.54492 5.80605,3.55195 12.36401,6.69341 18.375,9.28906 6.01099,2.59566 11.47546,4.64596 17.62304,6.49024 6.14759,1.84428 12.97721,3.48379 21.37891,5.25976 8.4017,1.77598 18.37489,3.68861 28.34766,5.12305 9.97276,1.43445 19.94519,2.39015 28.65429,3.03906 8.70911,0.64892 16.15351,0.9895 23.97461,1.29688 7.82111,0.30738 16.01845,0.58208 27.22071,0.65039 11.20226,0.0683 25.41013,-0.0685 38.04687,-0.27344 12.63674,-0.20492 23.70056,-0.4778 33.94531,-0.60351 10.24475,-0.12572 19.66873,-0.10396 30.61133,0.14843 10.9426,0.2524 23.4032,0.73412 36.87891,1.60352 13.47571,0.8694 27.96537,2.1249 38.73633,3.1875 10.77095,1.0626 17.82397,1.93218 28.16015,3.76758 10.33619,1.83539 23.95627,4.63786 35.5,7.51172 11.54374,2.87385 21.00931,5.81897 29.36524,8.64453 8.35592,2.82555 15.60142,5.53079 22.55664,8.52539 6.95521,2.9946 13.62016,6.27952 19.60937,9.51562 5.98922,3.23611 11.30287,6.42386 17.33399,10.81836 6.03112,4.3945 12.77961,9.99415 18.61328,15.11719 5.83367,5.12304 10.75131,9.76768 14.98633,14.95898 4.23502,5.19131 7.78779,10.93032 11.20312,16.80469 3.41534,5.87437 6.69397,11.88557 9.97266,17.89649 L 1088.1152,220.49219 975,108.19727 v 114.7539 l -1.12695,0.0508 -168.66993,0.43164 c -0.84647,-3.91793 -1.69315,-7.83497 -2.35546,-11.09179 -0.66232,-3.25683 -1.1401,-5.85183 -1.72071,-8.72071 -0.5806,-2.86887 -1.26346,-6.01219 -2.2539,-9.15429 -0.99044,-3.1421 -2.28826,-6.28292 -3.49414,-9.13477 -1.20589,-2.85185 -2.31922,-5.41389 -3.43164,-7.70898 -1.11242,-2.2951 -2.22447,-4.32379 -3.81836,-7.05274 -1.5939,-2.72894 -3.67086,-6.159 -6.14453,-9.73828 -2.47368,-3.57927 -5.34323,-7.3083 -8.2129,-10.53906 -2.86966,-3.23076 -5.73865,-5.9631 -8.74414,-8.76367 -3.00549,-2.80058 -6.1469,-5.66802 -9.2207,-8.26368 -3.0738,-2.59565 -6.07897,-4.91797 -9.69922,-7.44531 -3.62024,-2.52734 -7.85504,-5.25981 -12.36328,-7.85547 -4.50823,-2.59565 -9.29075,-5.05441 -14.00391,-7.24023 -4.71316,-2.18582 -9.3572,-4.09908 -14.13867,-5.94336 -4.78146,-1.84428 -9.69976,-3.61983 -15.13476,-5.386719 -5.435,-1.766892 -11.38603,-3.525129 -18.70899,-5.273437 -7.32296,-1.748308 -16.0174,-3.485829 -25.29101,-4.958985 -9.27361,-1.473155 -19.12588,-2.681916 -28.4961,-3.466797 -9.37022,-0.78488 -18.25759,-1.146469 -26.00976,-1.279296 z M 592.25,102.17773 c 7.1484,0.16906 13.04056,0.50795 19.60938,0.9668 6.56881,0.45885 13.81516,1.03685 21.20507,1.90625 7.38992,0.86941 14.9228,2.02951 21.97461,3.47852 7.05181,1.449 13.62181,3.18753 19.22461,4.70898 5.6028,1.52145 10.23967,2.82667 16.08399,4.92774 5.84432,2.10106 12.89593,4.99726 18.74023,7.60546 5.8443,2.60821 10.48028,4.92664 14.39258,7.14844 3.9123,2.22181 7.09903,4.34703 11.15625,7.14844 4.05722,2.80141 8.98419,6.27899 12.89648,9.4668 3.9123,3.1878 6.81083,6.08547 9.51563,9.08007 2.7048,2.99461 5.21525,6.08671 8.41406,10.7461 3.19881,4.65939 7.08489,10.88571 9.71094,15.84375 2.62605,4.95803 3.99324,8.64795 5.35937,13.08789 1.36613,4.43993 2.73132,9.63086 3.82422,14.68555 1.09291,5.05469 1.91248,9.97228 2.39063,14.54882 0.47814,4.57654 0.61534,8.81191 0.75195,13.04688 h 205.94336 l -0.30664,-6.12695 -0.57813,-82.30274 70.70901,68.9707 -112.15041,133.59766 c -1.87493,-2.73206 -3.75129,-5.46371 -6.32813,-8.94727 -2.57683,-3.48355 -5.85503,-7.71858 -10.36328,-12.56835 -4.50825,-4.84978 -10.24508,-10.31467 -16.5293,-15.64258 -6.28421,-5.32792 -13.1147,-10.51912 -20.01367,-15.02735 -6.89897,-4.50823 -13.86718,-8.33293 -21.44922,-12.02148 -7.58203,-3.68855 -15.77797,-7.24087 -24.17968,-10.58789 -8.40172,-3.34702 -17.00893,-6.48818 -24.76172,-8.87891 -7.75279,-2.39072 -14.65047,-4.03087 -23.63281,-6.08008 -8.98235,-2.0492 -20.04839,-4.50749 -32.13868,-6.625 -12.09028,-2.1175 -25.20471,-3.89353 -37.36328,-5.12304 -12.15857,-1.22952 -23.36039,-1.91231 -33.3457,-2.38867 -9.98532,-0.47637 -18.75398,-0.74761 -28.45117,-1.02735 -9.6972,-0.27973 -20.32279,-0.56836 -29.83789,-0.56836 -9.51511,1e-5 -17.91818,0.28975 -26.78125,0.53125 -8.86307,0.2415 -18.18476,0.43376 -28.20703,0.62696 -10.02228,0.1932 -20.74488,0.38672 -29.92188,0.38671 -9.177,0 -16.80884,-0.19262 -23.61914,-0.48242 -6.8103,-0.2898 -12.79799,-0.67582 -18.78711,-1.13281 -5.98912,-0.45699 -11.97807,-0.98463 -18.69531,-1.72656 -6.71725,-0.74194 -14.16397,-1.69806 -20.34571,-2.72266 -6.18173,-1.0246 -11.09787,-2.11742 -15.16211,-3.05664 -4.06423,-0.93921 -7.275,-1.72505 -11.85156,-2.9375 -4.57656,-1.21245 -10.5189,-2.85298 -16.01758,-4.69727 -5.49868,-1.84428 -10.55347,-3.89331 -15.30078,-6.11328 -4.74731,-2.21996 -9.18814,-4.60996 -12.53515,-6.625 -3.34702,-2.01504 -5.60115,-3.6552 -7.64063,-5.26172 -2.03948,-1.60651 -3.86434,-3.17953 -5.25976,-4.64257 -1.39543,-1.46304 -2.36089,-2.81505 -3.30274,-4.11914 -0.94185,-1.3041 -1.85948,-2.56079 -2.58398,-3.74414 -0.7245,-1.18336 -1.256,-2.2925 -1.71485,-3.5 -0.45885,-1.20751 -0.84496,-2.51162 -1.13476,-3.57422 -0.2898,-1.0626 -0.48347,-1.88498 -0.71289,-3.33399 -0.22943,-1.44901 -0.49432,-3.52453 -0.55469,-5.14258 -0.0604,-1.61804 0.0841,-2.77864 0.27734,-4.05859 0.1932,-1.27995 0.43553,-2.68028 0.70118,-3.98437 0.26564,-1.3041 0.55536,-2.5107 0.92968,-3.93555 0.37433,-1.42485 0.83215,-3.06713 1.42383,-4.83008 0.59168,-1.76295 1.3158,-3.64633 2.06445,-5.24023 0.74866,-1.5939 1.523,-2.89919 2.46485,-4.39649 0.94185,-1.4973 2.05226,-3.18806 3.25976,-4.75781 1.20751,-1.56975 2.51144,-3.01816 3.64649,-4.32227 1.13505,-1.3041 2.1018,-2.46366 3.28515,-3.69531 1.18335,-1.23165 2.58381,-2.53429 4.44336,-4.15234 1.85956,-1.61806 4.17674,-3.55148 7.12305,-5.58008 2.94631,-2.02861 6.52078,-4.15375 10.11914,-6.1582 3.59836,-2.00446 7.22085,-3.88797 11.25391,-5.69922 4.03306,-1.81125 8.47651,-3.54939 12.71484,-5.11914 4.23833,-1.56975 8.27134,-2.97095 11.78516,-4.1543 3.51382,-1.18335 6.50742,-2.14976 10.49218,-3.16406 3.98477,-1.0143 8.96094,-2.0761 12.80079,-2.87305 3.83984,-0.79695 6.54471,-1.3277 10.45703,-2.00391 3.91231,-0.6762 9.03216,-1.49849 14.29687,-2.34375 5.26471,-0.84525 10.67268,-1.71495 17,-2.43945 6.32732,-0.7245 13.57224,-1.30411 21.25196,-1.78711 7.67971,-0.483 15.79537,-0.8693 24.05468,-1.0625 8.25931,-0.1932 16.66215,-0.19249 23.81055,-0.0234 z" />
  </g>
</svg>
