<?xml version="1.0" encoding="UTF-8" standalone="no"?>
<!-- Created with Inkscape (http://www.inkscape.org/) -->

<svg
   version="1.1"
   id="svg1"
   width="394.66599"
   height="396.01306"
   viewBox="0 0 394.66599 396.01314"
   sodipodi:docname="remo2.svg"
   inkscape:version="1.3.2 (091e20e, 2023-11-25, custom)"
   inkscape:export-filename="remoFinal.png"
   inkscape:export-xdpi="96"
   inkscape:export-ydpi="96"
   xmlns:inkscape="http://www.inkscape.org/namespaces/inkscape"
   xmlns:sodipodi="http://sodipodi.sourceforge.net/DTD/sodipodi-0.dtd"
   xmlns="http://www.w3.org/2000/svg"
   xmlns:svg="http://www.w3.org/2000/svg">
  <defs
     id="defs1" />
  <sodipodi:namedview
     id="namedview1"
     pagecolor="#ffffff"
     bordercolor="#000000"
     borderopacity="0.25"
     inkscape:showpageshadow="2"
     inkscape:pageopacity="0.0"
     inkscape:pagecheckerboard="0"
     inkscape:deskcolor="#d1d1d1"
     inkscape:zoom="1.125"
     inkscape:cx="72.444444"
     inkscape:cy="150.66667"
     inkscape:window-width="1366"
     inkscape:window-height="745"
     inkscape:window-x="-8"
     inkscape:window-y="-8"
     inkscape:window-maximized="1"
     inkscape:current-layer="g1" />
  <g
     inkscape:groupmode="layer"
     inkscape:label="Image"
     id="g1"
     transform="translate(-228,-61.361155)">
    <path
       style="fill:#000000"
       d="m 463.16875,168.75661 3.77123,-1.88562 -71.96775,-71.732057 -2.82843,3.142697 z"
       id="path1" />
    <path
       style="fill:#000000"
       d="m 441.24844,179.24536 -3.6141,1.49278 -44.35131,-44.46916 2.59272,-2.59273 z"
       id="path2" />
    <path
       style="fill:#000000"
       d="m 412.25706,192.56254 3.6141,-1.57135 -19.01331,-19.17045 -2.98557,2.51415 z"
       id="path3" />
    <path
       style="fill:#000000"
       d="m 474.88889,181.22222 4,-2.44444 30.66666,31.11111 -3.77777,1.77778 z"
       id="path4" />
    <path
       style="fill:#000000"
       d="m 449.55555,193 3.55556,-2.22222 30.66667,30.66667 -3.11112,2 z"
       id="path5" />
    <path
       style="fill:#000000"
       d="m 454.44444,235.22222 3.77778,-1.77777 -30.44444,-30.88889 -3.77778,2 z"
       id="path6" />
    <path
       style="fill:#000000"
       d="m 466.93998,247.16689 3.45697,-1.88561 23.25596,23.25595 -2.82843,2.51416 z"
       id="path7" />
    <path
       style="fill:#000000"
       d="m 492.08156,235.22465 3.45696,-1.88562 36.45529,36.45528 -2.51416,2.19989 z"
       id="path8" />
    <path
       style="fill:#000000"
       d="m 517.5374,223.59667 3.1427,-2.19989 48.98656,49.04767 -2.44444,2.66666 z"
       id="path9" />
    <path
       style="fill:#000000"
       d="m 438.81285,323.53443 2.51416,-2.35703 -24.19877,-24.3559 -1.88562,3.6141 z"
       id="path10" />
    <path
       style="fill:#000000"
       d="m 405.18599,322.27735 -1.72848,3.77123 36.14101,35.82675 2.67129,-2.6713 z"
       id="path11" />
    <path
       style="fill:#000000"
       d="m 440.54133,400.84477 2.51416,-3.1427 -49.96888,-49.96888 -1.25708,3.45697 z"
       id="path12" />
    <path
       style="fill:#000000"
       d="m 349,308.44445 1.77777,-3.33334 30.44445,30.66667 -1.55556,3.55556 z"
       id="path13" />
    <path
       style="fill:#000000"
       d="m 360.87397,283.30791 1.72848,-3.77124 30.75915,30.79843 -1.64992,3.53553 z"
       id="path14" />
    <path
       style="fill:#000000"
       d="m 372.58051,257.69493 1.88562,-3.45697 30.64129,30.6413 -1.82964,3.50963 z"
       id="path15" />
    <path
       style="fill:#000000"
       d="M 341.5,226.33334 344.27778,224 362.5,242.11111 l -1.44445,3.44445 z"
       id="path16" />
    <path
       style="fill:#000000"
       d="m 348.93172,270.42285 1.57135,-2.82843 -43.99776,-44.62629 -3.1427,3.14269 z"
       id="path17" />
    <path
       style="fill:#000000"
       d="m 336.44444,296.72222 2,-3.55555 L 268,222.22222 l -2.66667,2.66667 z"
       id="path18" />
    <path
       id="path19"
       style="fill:#000000;fill-opacity:1"
       d="m 298.88411,125.80707 c -0.49759,-0.0786 -1.07431,0.0249 -1.51953,0.23438 -0.44522,0.20951 -0.75844,0.52362 -0.99414,0.83789 -0.23571,0.31427 -0.39409,0.62909 -0.47266,0.94336 -0.0786,0.31427 -0.0774,0.629 0.0273,1.07422 0.10475,0.44522 0.31428,1.02151 2.60351,4.06055 2.28924,3.03904 6.65743,8.54045 12.91602,16.51367 6.25858,7.97321 14.40664,18.41751 22.35742,28.04102 7.95078,9.62349 15.70404,18.42506 22.69727,26.15234 6.99321,7.72728 13.22598,14.37923 19.45898,21.03125 -14.02332,30.17515 -28.04645,60.35138 -36.19141,77.09961 -8.14494,16.74822 -10.41105,20.06833 -12.01562,22.61914 -1.60458,2.55081 -2.54653,4.33126 -3.64649,6.66211 -1.09994,2.33085 -2.35743,5.21132 -3.50976,8.14453 -1.15233,2.93321 -2.20012,5.91871 -3.19531,8.9043 -0.9952,2.98557 -1.93805,5.97147 -2.88086,8.95703 1.72848,1.25708 3.45785,2.51528 5.16015,3.61523 1.70231,1.09996 3.37724,2.04137 4.71289,2.66992 1.33567,0.62855 2.33232,0.94247 3.66797,1.09961 1.33566,0.15714 3.0114,0.15821 4.6875,0.15821 0.78568,-1.09995 1.57042,-2.19933 2.5918,-3.79688 1.02138,-1.59755 2.27967,-3.69259 3.48437,-6.02344 1.20471,-2.33083 2.35637,-4.89765 3.35157,-7.22851 0.99519,-2.33086 1.83274,-4.42593 2.51367,-6.2461 0.68092,-1.82015 1.20473,-3.36499 1.72851,-4.91015 -1.46657,-2.93318 -2.9336,-5.86703 -4.08593,-8.4336 -1.15234,-2.56655 -1.98953,-4.76723 -2.46094,-6.44336 -0.47141,-1.67611 -0.57688,-2.82814 -0.68164,-3.98046 l 41.48437,-88.3086 37.88282,37.85742 c -0.1615,0.47538 -0.32438,0.95056 -6.89844,15.11719 -6.57406,14.16665 -19.55862,42.02344 -27.04883,57.35742 -7.49021,15.334 -9.48392,18.14364 -11.01172,20.44922 -1.5278,2.30559 -2.59102,4.10643 -3.60351,6.21094 -1.0125,2.10451 -1.97475,4.51325 -3.22461,7.80273 -1.24987,3.2895 -2.78728,7.46083 -3.84375,10.51563 -1.05647,3.0548 -1.63282,4.9917 -2.20899,6.92969 0.10476,0.31427 0.20972,0.62981 1.4668,1.625 1.25708,0.99519 3.66613,2.67108 5.83984,3.84961 2.17372,1.17852 4.1125,1.85955 5.86719,2.17382 1.75469,0.31428 3.32515,0.26137 4.89648,0.20899 0.10476,0 0.21105,-3.4e-4 1.23243,-1.5586 1.02137,-1.55824 2.95873,-4.6746 4.5039,-7.30664 1.54518,-2.63202 2.69737,-4.77932 3.71875,-7.08398 1.02139,-2.30466 1.91247,-4.76626 2.54102,-6.73047 0.62855,-1.96421 0.99468,-3.43184 1.36133,-4.89844 0.0524,-0.31427 0.10393,-0.62724 -0.55078,-1.96289 -0.65473,-1.33565 -2.01573,-3.69311 -3.03711,-5.81445 -1.02139,-2.12134 -1.70198,-4.00668 -2.25196,-5.70898 -0.54998,-1.70232 -0.96964,-3.22127 -1.38867,-4.74024 -0.009,-0.18239 -0.0166,-0.36449 6.16406,-13.75195 6.18073,-13.38748 18.54944,-39.97907 24.91993,-53.38672 6.37047,-13.40765 6.74095,-13.6313 7.11132,-13.85352 l 0.88868,0.44532 c 0.51851,0.66666 1.03755,1.33195 7.75976,7.79492 6.72221,6.46295 19.64819,18.72341 27.07422,25.66797 7.42603,6.94455 9.35118,8.57332 11.16602,10.1289 1.81482,1.55558 3.51958,3.03739 11.51562,9.55078 7.99604,6.51341 22.28452,18.05833 31.31445,25.27149 9.02994,7.21316 12.80053,10.09394 15.49805,12.13672 2.69752,2.04278 4.32147,3.24751 5.5,4.0332 1.17853,0.78569 1.91131,1.15261 2.51367,1.33594 0.60236,0.18333 1.07453,0.18353 1.44727,0.0957 0.37273,-0.0878 0.64537,-0.26437 0.875,-0.53711 0.22962,-0.27274 0.41464,-0.6418 0.46094,-1.02539 0.0463,-0.38358 -0.0451,-0.78207 -0.16993,-1.16406 -0.12486,-0.382 -0.2833,-0.74682 -0.72851,-1.42774 -0.44522,-0.6809 -1.17855,-1.67655 -2.30469,-3.15625 -1.12614,-1.47968 -2.6441,-3.44351 -4.45117,-5.83984 -1.80707,-2.39633 -3.90293,-5.22521 -7.5293,-9.94141 -3.62636,-4.71618 -8.78308,-11.32023 -12.6582,-16.21484 -3.87513,-4.8946 -6.46838,-8.07889 -10.2832,-12.48633 -3.81484,-4.40742 -8.85123,-10.03792 -12.70313,-14.48242 -3.8519,-4.44449 -6.5177,-7.70404 -9.5918,-11.18555 -3.07408,-3.48149 -6.55701,-7.18451 -12.12109,-12.90429 -5.56408,-5.7198 -13.21027,-13.45554 -17.53125,-17.79493 -4.32098,-4.33937 -5.31481,-5.2816 -5.94336,-5.91015 -0.62855,-0.62855 -0.89045,-0.94354 -1.15234,-1.25781 -0.0524,-0.10476 -0.10627,-0.20999 12.98828,-6.39063 13.09454,-6.18063 39.33715,-18.43728 52.82031,-24.73047 13.48316,-6.29317 14.20587,-6.62137 14.86914,-6.83594 0.66327,-0.21455 1.26657,-0.31431 1.92578,-0.30664 0.65922,0.008 1.376,0.12164 2.70313,0.51954 1.32712,0.39789 3.26324,1.07919 5.07031,1.8125 1.80707,0.73329 3.48349,1.51988 4.79297,2.14843 1.30947,0.62855 2.25251,1.09891 3.19531,1.57032 0.41903,0.26189 0.83906,0.52432 2.01758,0.36718 1.17851,-0.15713 3.11605,-0.73358 4.81836,-1.33593 1.70231,-0.60236 3.16958,-1.2304 4.8457,-1.9375 1.67612,-0.70712 3.56012,-1.49238 5.36719,-2.38282 1.80707,-0.89043 3.53533,-1.88734 4.89062,-2.69922 1.35531,-0.81186 2.33863,-1.43928 3.41797,-2.1289 1.07935,-0.68962 2.25473,-1.44128 2.97266,-1.92774 0.71793,-0.48646 0.97707,-0.70746 1.23633,-0.92968 0.0555,-0.14815 0.11132,-0.29752 0.11133,-0.63086 0,-0.33335 -0.0554,-0.85048 -0.17579,-1.54492 -0.12037,-0.69446 -0.30511,-1.56605 -0.52734,-2.38086 -0.22222,-0.81483 -0.48213,-1.574 -0.83398,-2.4629 -0.35186,-0.88888 -0.79485,-1.90609 -1.25782,-2.83203 -0.46297,-0.92594 -0.9453,-1.75975 -1.44531,-2.50976 -0.5,-0.75001 -1.01769,-1.41722 -1.41406,-1.93555 -0.39637,-0.51833 -0.6705,-0.88751 -0.9668,-1.29492 -0.2963,-0.40741 -0.61521,-0.85205 -0.93359,-1.29688 -0.11111,-0.22222 -0.22172,-0.4456 -1.74024,-0.0937 -1.5185,0.35186 -4.44455,1.27786 -6.70117,2.00586 -2.25662,0.728 -3.84406,1.25939 -5.50195,1.8125 -1.65789,0.55312 -3.38641,1.1283 -5.63867,2.04493 -2.25228,0.91661 -5.02826,2.17402 -7.75196,3.64062 -2.72368,1.4666 -5.39548,3.14163 -7.84961,4.72852 -2.45411,1.58687 -4.6911,3.08475 -16.42382,8.72851 -11.73274,5.64377 -32.96051,15.43472 -45.98438,21.42969 -13.02387,5.99497 -17.84331,8.19465 -22.66211,10.39453 l -4.1875,1.84766 c -0.89423,0.39451 -1.02892,0.45282 -1.15625,0.41601 -0.12732,-0.0368 -0.2744,-0.18111 -0.98828,-0.89453 -0.71388,-0.71341 -2.00251,-2.00422 -7.80664,-7.80469 -5.80413,-5.80045 -16.12255,-16.11111 -21.50391,-21.4707 -5.38135,-5.35958 -5.82588,-5.76634 -6.17773,-6.13672 -0.35186,-0.37037 -0.61183,-0.70377 -0.87109,-1.03711 -0.0741,-0.22222 -0.1482,-0.44518 8.96289,-4.87109 9.11108,-4.42593 27.40825,-13.05556 38.01953,-18.03711 10.61127,-4.98156 13.5376,-6.31546 16.79687,-7.83399 3.25928,-1.51851 6.85002,-3.22162 10.07227,-4.70312 3.22224,-1.4815 6.07477,-2.74153 8.12109,-3.6582 2.04632,-0.91668 3.28717,-1.49002 4.32422,-1.87891 1.03705,-0.38889 1.8701,-0.59218 2.72656,-0.67773 0.85647,-0.0856 1.73715,-0.0523 2.7793,0.12109 1.04215,0.17344 2.24646,0.48607 3.45117,0.87891 1.20471,0.39284 2.40982,0.86586 4.08594,1.67773 1.67611,0.81187 3.82245,1.96289 5.28906,2.53906 1.46661,0.57617 2.25258,0.57662 3.06446,0.49805 0.81186,-0.0786 1.64961,-0.23598 3.40429,-0.75977 1.75468,-0.52378 4.42573,-1.41478 7.4375,-2.67187 3.01178,-1.25709 6.36517,-2.88078 8.80078,-4.16406 2.43562,-1.28328 3.95429,-2.22489 5.13282,-2.98438 1.17851,-0.75949 2.01546,-1.33594 2.85351,-1.91211 0.15713,-0.36664 0.31453,-0.73288 0.1836,-1.80664 -0.13095,-1.07376 -0.55017,-2.85539 -0.89063,-4.13867 -0.34046,-1.28328 -0.60202,-2.06962 -1.09961,-3.11719 -0.49759,-1.04757 -1.23038,-2.35663 -1.9375,-3.53515 -0.70711,-1.17853 -1.38744,-2.22588 -2.06836,-3.27344 -0.68092,-0.83805 -1.36249,-1.67596 -1.96484,-1.99024 -0.60236,-0.31427 -1.12608,-0.10448 -1.85938,0.1836 -0.7333,0.28808 -1.67704,0.65554 -3.30078,1.12695 -1.62374,0.47141 -3.92746,1.04634 -6.16992,1.72852 -2.24246,0.68217 -4.42361,1.47019 -6.55078,2.38281 -2.12717,0.91262 -4.20124,1.94928 -6.23828,2.98633 -2.03706,1.03704 -4.03666,2.07413 -5.81446,3.03711 -1.77779,0.96297 -3.33295,1.85343 -4.81445,2.8164 -1.4815,0.96297 -2.88891,2.00005 -19.17578,9.81446 -16.28687,7.8144 -47.45395,22.40529 -63.03711,29.70117 -15.58316,7.29587 -15.5816,7.29524 -15.68359,7.16601 l -0.51172,-0.64453 c -0.37219,-0.37009 -0.7438,-0.74023 -2.39649,-2.28711 -1.65268,-1.54688 -4.58589,-4.2719 -7.60351,-7.06836 -3.01764,-2.79644 -6.1191,-5.66505 -8.78125,-8.13672 -2.66216,-2.47165 -4.88527,-4.54663 -8.14453,-7.43554 -3.25928,-2.88891 -7.55441,-6.59101 -18.35352,-15.28906 -10.79911,-8.69806 -28.10131,-22.39093 -37.25,-29.65625 -9.14869,-7.26534 -10.14444,-8.10237 -10.85156,-8.65235 -0.70712,-0.54998 -1.12545,-0.81206 -1.62305,-0.89063 z m 60.89063,64.16212 c 0.34046,0 0.67955,0.001 1.16406,0.0273 0.4845,0.0262 1.11444,0.0777 1.7168,0.15625 0.60235,0.0786 1.17748,0.18298 2.14648,0.52344 0.969,0.34046 2.33036,0.91637 3.66602,1.54492 1.33564,0.62854 2.64596,1.30958 4.00781,2.17383 1.36185,0.86425 2.77611,1.91345 4.0332,2.83008 1.25709,0.91661 2.35673,1.7018 3.4043,2.51367 1.04757,0.81187 2.04369,1.65004 3.30078,2.75 1.25709,1.09995 2.77452,2.46131 4.66016,4.24218 1.88562,1.78089 4.13763,3.98001 9.74218,9.59766 5.60456,5.61766 14.56287,14.65422 23.51953,23.68945 l -11,11.15625 c -12.2304,-12.16902 -24.46197,-24.33857 -31.3457,-31.30273 -6.88373,-6.96416 -8.42034,-8.72301 -9.89258,-10.6582 -1.47223,-1.93521 -2.87904,-4.04744 -3.95312,-5.84375 -1.07408,-1.79631 -1.81459,-3.27676 -2.38867,-4.48047 -0.57408,-1.20372 -0.98123,-2.13022 -1.35157,-3.08594 -0.37034,-0.95572 -0.70343,-1.94066 -0.93554,-2.69531 -0.23211,-0.75466 -0.36342,-1.27939 -0.45508,-1.72461 -0.0917,-0.44522 -0.14489,-0.81109 -0.19727,-1.17774 z m 65.44726,54.80859 c 1,0.87037 2.00015,1.74023 2.57422,2.24023 0.57407,0.5 0.72302,0.63058 5.9082,5.73243 5.18518,5.10184 15.40668,15.17526 21.12891,20.91601 5.72223,5.74075 6.94451,7.14901 8.03711,8.44531 1.0926,1.29631 2.05475,2.48118 3.0918,3.85157 1.03704,1.37038 2.14843,2.92475 3.14843,4.40625 1.00001,1.48149 1.89012,2.88917 2.63086,4.14843 0.74075,1.25927 1.33326,2.37159 1.96289,3.63086 0.62964,1.25928 1.29642,2.66679 1.64844,3.57032 0.35203,0.90353 0.38871,1.30239 0.43359,1.68554 0.0449,0.38315 0.0969,0.74881 0.12305,1.07617 0.0262,0.32737 0.0256,0.61687 -0.0137,0.78711 -0.0393,0.17024 -0.11643,0.22302 -0.36523,0.27539 -0.24881,0.0524 -0.66762,0.10432 -1.19141,0.0781 -0.52379,-0.0262 -1.15382,-0.13046 -2.16211,-0.43164 -1.00829,-0.30118 -2.39574,-0.80021 -3.79687,-1.36328 -1.40114,-0.56307 -2.81558,-1.19124 -4.34766,-2.0293 -1.53208,-0.83806 -3.18081,-1.88464 -4.71289,-2.94531 -1.53208,-1.06067 -2.94628,-2.13428 -4.27539,-3.14258 -1.32912,-1.00829 -2.57419,-1.95171 -4.01172,-3.20703 -1.43753,-1.25533 -3.06769,-2.82428 -9.14258,-9.05273 -6.07489,-6.22846 -16.59282,-17.11699 -27.11133,-28.00586 z" />
  </g>
</svg>
